<svg width="32" height="32" viewBox="0 0 32 32" fill="none" xmlns="http://www.w3.org/2000/svg">
<path fill-rule="evenodd" clip-rule="evenodd" d="M10 7C10 5.93913 10.4214 4.92172 11.1716 4.17157C11.9217 3.42143 12.9391 3 14 3H18C19.0609 3 20.0783 3.42143 20.8284 4.17157C21.5786 4.92172 22 5.93913 22 7V7.27333C23.244 7.38667 24.476 7.536 25.6987 7.71867C27.6373 8.00933 29 9.696 29 11.608V15.652C29 17.2667 28.0213 18.788 26.4187 19.3213C23.0584 20.4367 19.5405 21.0035 16 21C12.36 21 8.85733 20.4107 5.58133 19.3213C3.97867 18.788 3 17.2667 3 15.652V11.608C3 9.696 4.36267 8.008 6.30133 7.71867C7.52972 7.53496 8.76311 7.38646 10 7.27333V7ZM20 7V7.12C17.3358 6.9582 14.6642 6.9582 12 7.12V7C12 6.46957 12.2107 5.96086 12.5858 5.58579C12.9609 5.21071 13.4696 5 14 5H18C18.5304 5 19.0391 5.21071 19.4142 5.58579C19.7893 5.96086 20 6.46957 20 7ZM16 18C16.2652 18 16.5196 17.8946 16.7071 17.7071C16.8946 17.5196 17 17.2652 17 17C17 16.7348 16.8946 16.4804 16.7071 16.2929C16.5196 16.1054 16.2652 16 16 16C15.7348 16 15.4804 16.1054 15.2929 16.2929C15.1054 16.4804 15 16.7348 15 17C15 17.2652 15.1054 17.5196 15.2929 17.7071C15.4804 17.8946 15.7348 18 16 18Z" fill="#0061F9"/>
<path d="M4 24.5327V20.8047C4.30376 20.9709 4.62195 21.1092 4.95067 21.218C8.51425 22.4012 12.2451 23.0027 16 22.9994C19.856 22.9994 23.5733 22.3754 27.0493 21.2194C27.3853 21.1074 27.7027 20.9674 28 20.8047V24.5327C28 26.4687 26.604 28.17 24.636 28.43C21.8093 28.806 18.9267 28.9994 16 28.9994C13.1119 28.9999 10.227 28.8097 7.364 28.43C5.396 28.17 4 26.4687 4 24.5327Z" fill="#0061F9"/>
</svg>
