<svg width="70" height="70" viewBox="0 0 70 70" fill="none" xmlns="http://www.w3.org/2000/svg">
<rect width="70" height="70" rx="10" fill="#E5EFFF"/>
<path d="M33.8625 20.713C33.7488 21.0805 33.6875 21.4707 33.6875 21.875C33.6875 22.5995 34.2755 23.1875 35 23.1875H42.875C43.2231 23.1875 43.5569 23.0492 43.8031 22.8031C44.0492 22.5569 44.1875 22.2231 44.1875 21.875C44.1876 21.4811 44.1286 21.0894 44.0125 20.713M33.8625 20.713C34.111 19.9092 34.6104 19.2061 35.2875 18.7067C35.9645 18.2073 36.7837 17.9377 37.625 17.9375H40.25C42.021 17.9375 43.5172 19.1065 44.0125 20.713M33.8625 20.713C33.2045 20.7532 32.55 20.8005 31.8955 20.853C29.9162 21.0175 28.4375 22.7027 28.4375 24.689V28.4375M44.0125 20.713C44.6705 20.7532 45.325 20.8005 45.9795 20.853C47.9588 21.0175 49.4375 22.7027 49.4375 24.689V42.875C49.4375 43.9193 49.0227 44.9208 48.2842 45.6592C47.5458 46.3977 46.5443 46.8125 45.5 46.8125H41.5625M28.4375 28.4375H22.5312C21.4445 28.4375 20.5625 29.3195 20.5625 30.4062V50.0938C20.5625 51.1805 21.4445 52.0625 22.5312 52.0625H39.5938C40.6805 52.0625 41.5625 51.1805 41.5625 50.0938V46.8125M28.4375 28.4375H39.5938C40.6805 28.4375 41.5625 29.3195 41.5625 30.4062V46.8125M27.125 41.5625L29.75 44.1875L35 37.625" stroke="#0061F9" stroke-width="2.1" stroke-linecap="round" stroke-linejoin="round"/>
</svg>
