<svg width="350" height="193" viewBox="0 0 350 193" fill="none" xmlns="http://www.w3.org/2000/svg">
<g clip-path="url(#clip0_660_9517)">
<path opacity="0.5" d="M101.21 104.758H57.1772V181.21H101.21H113.226H165V47.9839H101.21V104.758Z" fill="#E5EFFF"/>
<path opacity="0.5" d="M237.58 109.435V0H173.79V181.21H235.08H237.58H284.435V109.435H237.58Z" fill="#E5EFFF"/>
<path d="M350 178.791H0V180.403H350V178.791Z" fill="#0061F9"/>
<path d="M230.484 66.6934H76.6934V187.58H230.484V66.6934Z" fill="#8AB7FF"/>
<path d="M230.484 80.3223H76.6934V187.5H230.484V80.3223Z" fill="white"/>
<path d="M82.177 75.4839C83.4241 75.4839 84.4351 74.4729 84.4351 73.2258C84.4351 71.9787 83.4241 70.9678 82.177 70.9678C80.9299 70.9678 79.9189 71.9787 79.9189 73.2258C79.9189 74.4729 80.9299 75.4839 82.177 75.4839Z" fill="white"/>
<path d="M93.9512 73.2258C93.9512 74.4355 92.9834 75.4839 91.6931 75.4839C90.4834 75.4839 89.4351 74.5162 89.4351 73.2258C89.4351 72.0162 90.4028 70.9678 91.6931 70.9678C92.9834 70.9678 93.9512 72.0162 93.9512 73.2258Z" fill="white"/>
<path d="M103.548 73.2258C103.548 74.4355 102.581 75.4839 101.29 75.4839C100.081 75.4839 99.0322 74.5162 99.0322 73.2258C99.0322 72.0162 100 70.9678 101.29 70.9678C102.5 70.9678 103.548 72.0162 103.548 73.2258Z" fill="white"/>
<path d="M177.58 77.2581H114.274C112.177 77.2581 110.403 75.5645 110.403 73.3871C110.403 71.2903 112.096 69.5161 114.274 69.5161H177.58C179.677 69.5161 181.451 71.2097 181.451 73.3871C181.371 75.5645 179.677 77.2581 177.58 77.2581Z" fill="white"/>
<path d="M221.129 77.2581H191.129C189.032 77.2581 187.258 75.5645 187.258 73.3871C187.258 71.2903 188.951 69.5161 191.129 69.5161H221.129C223.226 69.5161 225 71.2097 225 73.3871C224.919 75.5645 223.226 77.2581 221.129 77.2581Z" fill="white"/>
<path d="M143.629 128.145H88.9517V159.032H143.629V128.145Z" fill="#8AB7FF"/>
<path d="M143.629 90.2417H88.9517V121.129H143.629V90.2417Z" fill="#8AB7FF"/>
<path d="M143.225 166.774H89.4351V169.193H143.225V166.774Z" fill="#8AB7FF"/>
<path d="M143.225 174.838H89.4351V177.258H143.225V174.838Z" fill="#8AB7FF"/>
<path d="M216.371 166.774H162.581V169.193H216.371V166.774Z" fill="#8AB7FF"/>
<path d="M216.371 174.838H162.581V177.258H216.371V174.838Z" fill="#8AB7FF"/>
<path d="M231.29 188.387H75.8872V65.8872H231.29V188.387ZM77.5001 186.774H229.678V67.5001H77.5001V186.774Z" fill="#B7D3FF"/>
<path d="M268.145 170.161H252.339V37.3389H268.145V170.161ZM253.952 168.549H266.532V38.9518H253.952V168.549Z" fill="#0061F9"/>
<path d="M270.323 162.5H250.242V176.935H270.323V162.5Z" fill="#8AB7FF"/>
<path d="M267.42 154.839H253.468C253.145 154.839 252.823 154.677 252.742 154.355C252.581 154.032 252.661 153.71 252.903 153.468L266.371 138.952L267.581 140.081L255.323 153.226H267.42V154.839Z" fill="#0061F9"/>
<path d="M267.42 140.323H253.468C253.145 140.323 252.823 140.161 252.742 139.839C252.581 139.516 252.661 139.194 252.903 138.952L266.371 124.436L267.581 125.565L255.323 138.71H267.42V140.323Z" fill="#0061F9"/>
<path d="M267.42 125.726H253.468C253.145 125.726 252.823 125.565 252.742 125.242C252.581 124.92 252.661 124.597 252.903 124.355L266.371 109.839L267.581 110.968L255.403 124.113H267.5V125.726H267.42Z" fill="#0061F9"/>
<path d="M267.42 111.21H253.468C253.145 111.21 252.823 111.049 252.742 110.726C252.581 110.403 252.661 110.081 252.903 109.839L266.371 95.3228L267.581 96.4518L255.403 109.597H267.5V111.21H267.42Z" fill="#0061F9"/>
<path d="M267.42 96.6937H253.468C253.145 96.6937 252.823 96.5325 252.742 96.2099C252.581 95.8873 252.661 95.5647 252.903 95.3228L266.371 80.8066L267.581 81.9357L255.403 95.0808H267.5V96.6937H267.42Z" fill="#0061F9"/>
<path d="M267.42 82.0971H253.468C253.145 82.0971 252.823 81.9358 252.742 81.6132C252.581 81.2906 252.661 80.968 252.903 80.7261L266.371 66.21L267.581 67.339L255.403 80.4842H267.5V82.0971H267.42Z" fill="#0061F9"/>
<path d="M267.42 67.5809H253.468C253.145 67.5809 252.823 67.4197 252.742 67.0971C252.581 66.7745 252.661 66.4519 252.903 66.21L266.371 51.6938L267.581 52.8229L255.403 65.968H267.5V67.5809H267.42Z" fill="#0061F9"/>
<path d="M267.42 53.0648H253.468C253.145 53.0648 252.823 52.9035 252.742 52.581C252.581 52.2584 252.661 51.9358 252.903 51.6939L266.371 37.1777L267.581 38.3068L255.403 51.4519H267.5V53.0648H267.42Z" fill="#0061F9"/>
<path d="M268.145 31.7744H242.581V53.3067H268.145V31.7744Z" fill="#ED7445"/>
<path d="M306.532 31.7744H280.968V44.1938H306.532V31.7744Z" fill="#ED7445"/>
<path d="M306.129 33.3068H179.758C179.274 33.3068 178.952 32.9842 178.952 32.5003C178.952 32.0164 179.274 31.6938 179.758 31.6938H306.129C306.613 31.6938 306.936 32.0164 306.936 32.5003C306.936 32.9842 306.613 33.3068 306.129 33.3068Z" fill="#0061F9"/>
<path d="M186.451 36.2905H185.645V88.7099H186.451V36.2905Z" fill="#0061F9"/>
<path d="M277.178 174.274H243.387V180.645H277.178V174.274Z" fill="#0061F9"/>
<path d="M255.404 33.1456C255.323 33.1456 255.162 33.1456 255.081 33.0649L248.307 26.2907H186.533L180.162 32.6617C180 32.823 179.758 32.823 179.597 32.6617C179.436 32.5004 179.436 32.2585 179.597 32.0972L186.129 25.5649H248.549L255.484 32.5004C255.645 32.6617 255.645 32.9037 255.484 33.0649C255.645 33.0649 255.565 33.1456 255.404 33.1456Z" fill="#0061F9"/>
<path d="M306.694 33.1455C306.533 33.1455 306.371 33.0648 306.371 32.9035L299.597 20.0003H283.226L276.855 32.5003C276.774 32.6616 276.533 32.7422 276.291 32.6616C276.129 32.5809 276.049 32.339 276.129 32.0971L282.662 19.1938H300L306.936 32.5003C307.016 32.6616 306.936 32.9035 306.774 33.0648C306.774 33.1455 306.774 33.1455 306.694 33.1455Z" fill="#0061F9"/>
<path d="M189.032 36.2905C189.032 37.9034 187.742 39.2744 186.048 39.2744C184.435 39.2744 183.064 37.9841 183.064 36.2905C183.064 34.6776 184.355 33.3066 186.048 33.3066C187.742 33.3066 189.032 34.6776 189.032 36.2905Z" fill="#8AB7FF"/>
<path d="M217.616 87.6846L150.078 93.9263L153.292 128.699L220.829 122.457L217.616 87.6846Z" fill="#8AB7FF"/>
<path d="M203.548 26.2906C203.387 26.2906 203.226 26.2099 203.145 25.968C203.064 25.726 203.226 25.5648 203.387 25.4841L263.064 7.2583C263.145 7.2583 263.226 7.2583 263.306 7.2583L291.613 19.1938C291.855 19.2744 291.935 19.5164 291.855 19.7583C291.774 20.0002 291.532 20.0809 291.29 20.0002L263.226 8.06475L203.629 26.2099C203.629 26.2906 203.629 26.2906 203.548 26.2906Z" fill="#0061F9"/>
<path d="M253.871 33.1454C253.79 33.1454 253.71 33.1454 253.549 33.0647C253.145 32.9035 252.903 32.4196 253.065 32.0164L262.5 7.25829C262.661 6.93571 262.984 6.69377 263.307 6.77442C263.629 6.77442 263.952 7.097 264.032 7.41958L268.871 31.5325C268.952 31.9357 268.71 32.4196 268.226 32.5002C267.823 32.5809 267.339 32.3389 267.258 31.8551L262.984 10.4841L254.597 32.5809C254.516 32.9841 254.194 33.1454 253.871 33.1454Z" fill="#0061F9"/>
<path d="M264.919 7.6615C264.919 8.5486 264.193 9.27441 263.306 9.27441C262.419 9.27441 261.693 8.5486 261.693 7.6615C261.693 6.77441 262.419 6.0486 263.306 6.0486C264.193 5.96796 264.919 6.69376 264.919 7.6615Z" fill="#8AB7FF"/>
<path d="M195.081 33.2261C195 33.2261 194.919 33.2261 194.839 33.1454L186.935 26.7744V32.7422C186.935 32.9841 186.774 33.1454 186.532 33.1454C186.29 33.1454 186.129 32.9841 186.129 32.7422V25.8873C186.129 25.7261 186.21 25.5648 186.371 25.4841C186.532 25.4035 186.693 25.4035 186.774 25.5648L195.322 32.5003C195.484 32.6615 195.484 32.9035 195.403 33.0648C195.322 33.1454 195.161 33.2261 195.081 33.2261Z" fill="#0061F9"/>
<path d="M202.742 33.2261C202.661 33.2261 202.581 33.2261 202.5 33.1454L194.597 26.7744V32.7422C194.597 32.9841 194.436 33.1454 194.194 33.1454C193.952 33.1454 193.791 32.9841 193.791 32.7422V25.8873C193.791 25.7261 193.871 25.5648 194.032 25.4841C194.194 25.4035 194.355 25.4035 194.436 25.5648L202.984 32.5003C203.145 32.6615 203.145 32.9035 203.065 33.0648C202.903 33.1454 202.823 33.2261 202.742 33.2261Z" fill="#0061F9"/>
<path d="M210.403 33.2261C210.323 33.2261 210.242 33.2261 210.161 33.1454L202.258 26.7744V32.7422C202.258 32.9841 202.097 33.1454 201.855 33.1454C201.613 33.1454 201.452 32.9841 201.452 32.7422V25.8873C201.452 25.7261 201.532 25.5648 201.694 25.4841C201.855 25.4035 202.016 25.4035 202.097 25.5648L210.645 32.5003C210.807 32.6615 210.806 32.9035 210.726 33.0648C210.565 33.1454 210.484 33.2261 210.403 33.2261Z" fill="#0061F9"/>
<path d="M218.064 33.2261C217.984 33.2261 217.903 33.2261 217.822 33.1454L209.919 26.7744V32.7422C209.919 32.9841 209.758 33.1454 209.516 33.1454C209.274 33.1454 209.113 32.9841 209.113 32.7422V25.8873C209.113 25.7261 209.193 25.5648 209.355 25.4841C209.516 25.4035 209.677 25.4035 209.758 25.5648L218.306 32.5003C218.468 32.6615 218.468 32.9035 218.387 33.0648C218.226 33.1454 218.145 33.2261 218.064 33.2261Z" fill="#0061F9"/>
<path d="M225.645 33.2261C225.564 33.2261 225.484 33.2261 225.403 33.1454L217.5 26.7744V32.7422C217.5 32.9841 217.339 33.1454 217.097 33.1454C216.855 33.1454 216.693 32.9841 216.693 32.7422V25.8873C216.693 25.7261 216.774 25.5648 216.935 25.4841C217.097 25.4035 217.258 25.4035 217.339 25.5648L225.887 32.5003C226.048 32.6615 226.048 32.9035 225.968 33.0648C225.887 33.1454 225.806 33.2261 225.645 33.2261Z" fill="#0061F9"/>
<path d="M233.307 33.2261C233.226 33.2261 233.145 33.2261 233.065 33.1454L225.161 26.7744V32.7422C225.161 32.9841 225 33.1454 224.758 33.1454C224.516 33.1454 224.355 32.9841 224.355 32.7422V25.8873C224.355 25.7261 224.436 25.5648 224.597 25.4841C224.758 25.4035 224.919 25.4035 225 25.5648L233.549 32.5003C233.71 32.6615 233.71 32.9035 233.629 33.0648C233.549 33.1454 233.468 33.2261 233.307 33.2261Z" fill="#0061F9"/>
<path d="M240.968 33.2261C240.887 33.2261 240.806 33.2261 240.726 33.1454L232.823 26.7744V32.7422C232.823 32.9841 232.661 33.1454 232.419 33.1454C232.177 33.1454 232.016 32.9841 232.016 32.7422V25.8873C232.016 25.7261 232.097 25.5648 232.258 25.4841C232.419 25.4035 232.581 25.4035 232.661 25.5648L241.21 32.5003C241.371 32.6615 241.371 32.9035 241.29 33.0648C241.21 33.1454 241.129 33.2261 240.968 33.2261Z" fill="#0061F9"/>
<path d="M248.629 33.2261C248.548 33.2261 248.468 33.2261 248.387 33.1454L240.484 26.7744V32.7422C240.484 32.9841 240.322 33.1454 240.08 33.1454C239.839 33.1454 239.677 32.9841 239.677 32.7422V25.8873C239.677 25.7261 239.758 25.5648 239.919 25.4841C240.08 25.4035 240.242 25.4035 240.322 25.5648L248.871 32.5003C249.032 32.6615 249.032 32.9035 248.951 33.0648C248.871 33.1454 248.79 33.2261 248.629 33.2261Z" fill="#0061F9"/>
<path d="M293.952 33.2262C293.871 33.2262 293.71 33.1455 293.629 33.0649L283.306 20.8874V32.6616C283.306 32.9036 283.145 33.0649 282.903 33.0649C282.661 33.0649 282.5 32.9036 282.5 32.6616V19.7584C282.5 19.5971 282.581 19.4358 282.742 19.3552C282.903 19.2745 283.065 19.3552 283.226 19.4358L294.194 32.4197C294.355 32.581 294.355 32.8229 294.113 32.9842C294.113 33.1455 294.032 33.2262 293.952 33.2262Z" fill="#0061F9"/>
<path d="M301.855 33.2263C301.694 33.2263 301.613 33.1456 301.532 33.065L293.71 21.2101V32.7424C293.71 32.9843 293.548 33.1456 293.307 33.1456C293.065 33.1456 292.903 32.9843 292.903 32.7424V19.8392C292.903 19.6779 292.984 19.5166 293.226 19.4359C293.387 19.3553 293.548 19.4359 293.71 19.5972L302.258 32.5811C302.419 32.7424 302.339 32.9843 302.178 33.1456C302.016 33.1456 301.936 33.2263 301.855 33.2263Z" fill="#0061F9"/>
<path d="M188.629 89.7583C188.629 91.1293 187.5 92.2583 186.129 92.2583C184.758 92.2583 183.629 91.1293 183.629 89.7583C183.629 88.3873 184.758 87.2583 186.129 87.2583C187.5 87.2583 188.629 88.3873 188.629 89.7583Z" fill="#ED7445"/>
<path d="M50.0807 140.484H48.4678V179.194H50.0807V140.484Z" fill="#0061F9"/>
<path d="M19.4357 140.484H17.8228V179.194H19.4357V140.484Z" fill="#0061F9"/>
<path d="M54.2744 144.113H13.7905V159.032H54.2744V144.113Z" fill="#B7D3FF"/>
<path d="M54.2743 159.032V144.919L46.855 159.032H54.2743Z" fill="#ED7445"/>
<path d="M28.71 159.032H37.339L45.2422 144.113H36.6132L28.71 159.032Z" fill="#ED7445"/>
<path d="M18.4679 144.113L13.7905 152.903V159.032H19.1938L27.097 144.113H18.4679Z" fill="#ED7445"/>
<path d="M56.1293 167.903H11.7744V169.516H56.1293V167.903Z" fill="#0061F9"/>
<path d="M330.726 140.484H329.113V179.194H330.726V140.484Z" fill="#0061F9"/>
<path d="M300.081 140.484H298.468V179.194H300.081V140.484Z" fill="#0061F9"/>
<path d="M334.919 144.113H294.436V159.032H334.919V144.113Z" fill="#B7D3FF"/>
<path d="M334.919 159.032V144.919L327.5 159.032H334.919Z" fill="#ED7445"/>
<path d="M309.355 159.032H317.984L325.887 144.113H317.258L309.355 159.032Z" fill="#ED7445"/>
<path d="M299.113 144.113L294.436 152.903V159.032H299.839L307.742 144.113H299.113Z" fill="#ED7445"/>
<path d="M336.774 167.903H292.419V169.516H336.774V167.903Z" fill="#0061F9"/>
<path d="M73.7905 190.323H55.4034C54.7583 190.323 54.2744 190.807 54.2744 191.452C54.2744 192.097 54.7583 192.581 55.4034 192.581H73.7905C74.4357 192.581 74.9196 192.097 74.9196 191.452C74.9196 190.807 74.3551 190.323 73.7905 190.323Z" fill="#ED7445"/>
<path d="M66.1291 174.678C66.0485 174.436 65.8065 174.274 65.5646 174.274H63.4678C63.2259 174.274 62.9839 174.436 62.9033 174.678L56.9355 191.613H72.2581L66.1291 174.678Z" fill="#ED7445"/>
<path d="M61.7744 177.823L60.8066 180.484H68.226L67.2583 177.823H61.7744Z" fill="#ECEFF1"/>
<path d="M59.3549 184.678L58.4678 187.339H70.7258L69.7581 184.678H59.3549Z" fill="#ECEFF1"/>
<path opacity="0.5" d="M71.0484 47.4999C69.6774 47.4999 68.4678 47.9031 67.4194 48.629V46.8548C67.4194 41.6935 63.3065 37.5806 58.1452 37.5806C52.9839 37.5806 48.871 41.6935 48.871 46.8548V50.3225C48.0645 49.5161 46.9355 49.0322 45.6452 49.0322C43.0645 49.0322 40.9678 51.129 40.9678 53.7096H77.3387C77.3387 50.3225 74.5162 47.4999 71.0484 47.4999Z" fill="#E5EFFF"/>
<path opacity="0.5" d="M145.968 22.2581C145 22.2581 144.113 22.5806 143.306 23.0645V21.7742C143.306 18.0645 140.323 15 136.532 15C132.823 15 129.758 17.9839 129.758 21.7742V24.3548C129.113 23.7903 128.306 23.3871 127.419 23.3871C125.564 23.3871 124.032 24.9194 124.032 26.7742H150.484C150.484 24.2742 148.468 22.2581 145.968 22.2581Z" fill="#E5EFFF"/>
</g>
<defs>
<clipPath id="clip0_660_9517">
<rect width="350" height="192.5" fill="white"/>
</clipPath>
</defs>
</svg>
