<svg width="30" height="30" viewBox="0 0 30 30" fill="none" xmlns="http://www.w3.org/2000/svg">
<path fill-rule="evenodd" clip-rule="evenodd" d="M6.32203e-07 15C2.83047e-07 6.71573 6.71573 -9.81359e-07 15 -6.32203e-07C23.2843 -2.83047e-07 30 6.71573 30 15C30 23.2843 23.2843 30 15 30C6.71573 30 9.81359e-07 23.2843 6.32203e-07 15ZM22.3539 15.3416C22.5487 15.148 22.5487 14.8344 22.3539 14.6413L16.3136 8.65536C15.8422 8.18436 15.1352 8.89061 15.6067 9.36161L20.399 14.1473C20.5943 14.3424 20.5261 14.5005 20.2569 14.5005L8.19466 14.5005C7.92085 14.5005 7.69888 14.7222 7.69888 15C7.69888 15.2758 7.92545 15.4995 8.19466 15.4995L20.2569 15.4995C20.5307 15.4995 20.593 15.6589 20.399 15.8527L15.6067 20.6384C15.1352 21.1094 15.8422 21.8156 16.3136 21.3446L22.3539 15.3416Z" fill="#F7FCFF"/>
</svg>
