<svg width="32" height="32" viewBox="0 0 32 32" fill="none" xmlns="http://www.w3.org/2000/svg">
<path fill-rule="evenodd" clip-rule="evenodd" d="M16 3C8.82 3 3 8.82 3 16C3 23.18 8.82 29 16 29C23.18 29 29 23.18 29 16C29 8.82 23.18 3 16 3ZM8.34933 8.096C6.72666 9.66708 5.62693 11.6996 5.19956 13.9174C4.77219 16.1352 5.03788 18.4308 5.96055 20.4924C6.88322 22.554 8.41813 24.2816 10.3568 25.4404C12.2954 26.5993 14.5438 27.1334 16.7965 26.97C19.0492 26.8066 21.197 25.9538 22.9482 24.5273C24.6993 23.1008 25.9689 21.1698 26.5845 18.9967C27.2 16.8236 27.1317 14.5136 26.3888 12.3807C25.6459 10.2477 24.2644 8.39517 22.432 7.07467C21.981 7.79548 21.382 8.41222 20.6747 8.884L19 10L19.22 10.44C19.3212 10.6426 19.3562 10.8718 19.3198 11.0954C19.2835 11.3189 19.1777 11.5253 19.0175 11.6853C18.8573 11.8454 18.6508 11.951 18.4273 11.9871C18.2037 12.0232 17.9745 11.9881 17.772 11.8867L16.9667 11.484C16.6853 11.3433 16.3668 11.2946 16.0562 11.3448C15.7456 11.3951 15.4587 11.5417 15.236 11.764L15.06 11.9387C14.4747 12.5253 14.4747 13.4747 15.06 14.06L15.4547 14.4547C15.796 14.7973 16.284 14.9533 16.7613 14.8733L18.3213 14.6133C18.752 14.5413 19.1933 14.6613 19.528 14.94L21.3013 16.4173C21.728 16.7733 21.9147 17.3427 21.7787 17.884C21.2685 19.9228 20.2141 21.7846 18.728 23.2707L17.764 24.236C17.5413 24.4583 17.2544 24.6049 16.9438 24.6552C16.6332 24.7054 16.3147 24.6567 16.0333 24.516L15.8293 24.4147C15.5802 24.2901 15.3706 24.0987 15.2242 23.8618C15.0777 23.6249 15.0001 23.3519 15 23.0733V21.6213C15 21.224 14.8413 20.8413 14.56 20.56L12.764 18.764C12.5417 18.5413 12.3951 18.2544 12.3448 17.9438C12.2946 17.6332 12.3433 17.3147 12.484 17.0333L13 16L10.8133 13.8133C9.63399 12.6341 8.85269 11.1158 8.57867 9.47067L8.34933 8.096Z" fill="#0061F9"/>
</svg>
