<svg width="40" height="40" viewBox="0 0 40 40" fill="none" xmlns="http://www.w3.org/2000/svg">
<rect width="39.9998" height="39.9995" rx="19.9997" fill="#C5DDFF"/>
<path d="M13.1829 11C11.863 11 11 11.9068 11 13.0986C11 14.2641 11.8373 15.1967 13.1323 15.1967H13.1573C14.503 15.1967 15.3405 14.2641 15.3405 13.0986C15.3154 11.9068 14.503 11 13.1829 11Z" fill="#001433"/>
<path d="M11.2285 16.8555H15.0872V29.0007H11.2285V16.8555Z" fill="#001433"/>
<path d="M24.5589 16.5684C22.4773 16.5684 21.0814 18.6148 21.0814 18.6148V16.8534H17.2227V28.9987H21.0812V22.2163C21.0812 21.8532 21.1064 21.4907 21.2083 21.231C21.4873 20.506 22.1221 19.7548 23.1881 19.7548C24.5844 19.7548 25.1428 20.8686 25.1428 22.5013V28.9987H29.0011V22.0348C29.0011 18.3043 27.0974 16.5684 24.5589 16.5684Z" fill="#001433"/>
</svg>
