<svg width="120" height="44" viewBox="0 0 120 44" fill="none" xmlns="http://www.w3.org/2000/svg">
<g clip-path="url(#clip0_3503_7980)">
<path d="M40.8476 35.6158C39.4448 35.6405 38.0551 35.3429 36.7854 34.746C35.6451 34.2087 34.6602 33.3899 33.9236 32.367C33.2195 31.3996 32.8445 30.2318 32.8537 29.0354C32.8537 27.0058 33.6728 25.4111 35.311 24.2513C36.9492 23.0915 39.1079 22.2941 41.787 21.8592L47.3845 21.0437V20.2717C47.3845 19.1605 47.1279 18.3146 46.6169 17.7078C46.1058 17.1011 45.2077 16.8119 43.9247 16.8119C42.9823 16.8119 42.2278 16.9967 41.6609 17.3664C41.0984 17.7261 40.6408 18.228 40.3344 18.8212C40.2374 18.993 40.0955 19.1352 39.9238 19.2325C39.7522 19.3298 39.5574 19.3786 39.3601 19.3736H35.2893C35.1574 19.3806 35.0256 19.3594 34.9026 19.3114C34.7796 19.2634 34.6682 19.1897 34.576 19.0952C34.4929 19.01 34.4301 18.907 34.3925 18.794C34.3548 18.681 34.3432 18.561 34.3585 18.4429C34.395 17.8345 34.5859 17.2456 34.913 16.7314C35.3621 15.9865 35.941 15.3281 36.6223 14.7873C37.5063 14.0826 38.5064 13.5373 39.5776 13.1759C40.7722 12.7497 42.2393 12.5366 43.979 12.5366C45.5414 12.5031 47.0992 12.7189 48.5936 13.1759C49.7455 13.5288 50.7996 14.1444 51.6729 14.9743C52.4276 15.7316 53.0067 16.6454 53.3691 17.6513C53.7465 18.6971 53.9364 19.8014 53.9301 20.9132V34.1175C53.937 34.2598 53.914 34.402 53.8626 34.5349C53.8113 34.6678 53.7327 34.7885 53.6319 34.8893C53.5312 34.99 53.4105 35.0686 53.2776 35.1199C53.1447 35.1713 53.0025 35.1943 52.8602 35.1874H48.6697C48.5347 35.1898 48.4007 35.1647 48.2758 35.1134C48.1509 35.0622 48.0378 34.986 47.9434 34.8895C47.8432 34.7882 47.7649 34.6674 47.7133 34.5346C47.6617 34.4019 47.6379 34.2599 47.6433 34.1175V32.5366C47.2324 33.1227 46.7276 33.637 46.1493 34.0588C45.4676 34.5575 44.7088 34.9409 43.9029 35.194C42.9128 35.4933 41.8818 35.6357 40.8476 35.6158ZM42.5568 31.1709C43.4345 31.1855 44.3017 30.9799 45.0794 30.5729C45.8342 30.1535 46.4416 29.5119 46.8191 28.7353C47.2453 27.909 47.4628 26.8688 47.4715 25.6148V24.8884L43.4963 25.5408C41.9581 25.7974 40.8331 26.1823 40.1213 26.6955C39.408 27.2066 39.0535 27.835 39.0535 28.5744C39.043 29.0882 39.2165 29.5888 39.5428 29.9858C39.8887 30.3969 40.3396 30.7065 40.8476 30.8817C41.3955 31.0793 41.9744 31.1772 42.5568 31.1709Z" fill="white"/>
<path d="M60.1246 35.189C59.9897 35.1911 59.8557 35.1658 59.7309 35.1146C59.606 35.0634 59.4929 34.9873 59.3983 34.891C59.2988 34.7893 59.2211 34.6684 59.1699 34.5357C59.1187 34.403 59.095 34.2612 59.1004 34.119V14.0321C59.095 13.8902 59.1186 13.7488 59.1698 13.6164C59.2211 13.484 59.2988 13.3635 59.3983 13.2622C59.4926 13.1656 59.6056 13.0892 59.7306 13.038C59.8555 12.9867 59.9896 12.9617 60.1246 12.9643H64.0998C64.3779 12.9621 64.6457 13.069 64.8457 13.2622C64.9515 13.3599 65.035 13.4792 65.0905 13.6121C65.1461 13.7449 65.1723 13.8882 65.1676 14.0321V15.476C65.7982 14.6265 66.6082 13.9263 67.5401 13.4253C68.6502 12.8311 69.8908 12.5225 71.1499 12.5272C74.4583 12.4707 76.7242 13.724 77.9478 16.2871C78.6359 15.145 79.6173 14.2079 80.7901 13.5732C82.0306 12.894 83.4208 12.5346 84.8351 12.5274C86.2493 12.5202 87.6431 12.8654 88.8905 13.5319C90.1274 14.2468 91.1178 15.3206 91.7306 16.6112C92.4265 17.9913 92.7758 19.7644 92.7787 21.9303V34.1082C92.7838 34.2507 92.7595 34.3927 92.7075 34.5255C92.6555 34.6582 92.5769 34.779 92.4765 34.8802C92.3823 34.9764 92.2695 35.0524 92.145 35.1036C92.0205 35.1549 91.8869 35.1802 91.7523 35.1781H87.5227C87.3874 35.1803 87.2531 35.155 87.1279 35.1038C87.0027 35.0526 86.8892 34.9765 86.7942 34.8802C86.6944 34.7785 86.6164 34.6577 86.5648 34.525C86.5132 34.3923 86.4892 34.2505 86.4941 34.1082V22.2804C86.4941 21.1119 86.323 20.1935 85.9809 19.5252C85.698 18.9142 85.227 18.4098 84.637 18.0856C84.0606 17.7947 83.4232 17.6456 82.7777 17.6506C82.1713 17.6546 81.5748 17.8038 81.038 18.0856C80.4445 18.4099 79.9665 18.9107 79.6701 19.5186C79.3135 20.1855 79.1352 21.1039 79.1352 22.2739V34.1125C79.1419 34.2545 79.1191 34.3962 79.068 34.5288C79.0169 34.6614 78.9387 34.7819 78.8384 34.8826C78.7382 34.9833 78.618 35.0619 78.4856 35.1136C78.3532 35.1652 78.2116 35.1886 78.0696 35.1824H73.8856C73.7442 35.1869 73.6034 35.1628 73.4715 35.1117C73.3396 35.0605 73.2193 34.9832 73.118 34.8845C73.0182 34.783 72.9403 34.6621 72.8891 34.5294C72.8378 34.3966 72.8143 34.2547 72.8201 34.1125V22.2804C72.8201 21.1126 72.6461 20.1928 72.3069 19.5252C72.0231 18.9134 71.5505 18.4088 70.9586 18.0856C70.3968 17.7974 69.7741 17.6483 69.1428 17.6506C68.5304 17.6542 67.9283 17.8088 67.39 18.1008C66.7927 18.4271 66.3082 18.9267 66.0004 19.5339C65.6438 20.1891 65.4662 21.0858 65.4677 22.2239V34.106C65.4726 34.2483 65.4485 34.3901 65.3969 34.5228C65.3453 34.6555 65.2673 34.7764 65.1676 34.878C65.0726 34.9743 64.9591 35.0504 64.8338 35.1016C64.7086 35.1528 64.5743 35.1781 64.4391 35.1759L60.1246 35.189Z" fill="white"/>
<path d="M99.0141 43.3121C98.8722 43.3186 98.7304 43.2954 98.598 43.244C98.4655 43.1927 98.3451 43.1142 98.2447 43.0138C98.1442 42.9133 98.0658 42.793 98.0144 42.6605C97.9631 42.528 97.9399 42.3863 97.9464 42.2443V14.0329C97.9399 13.891 97.9631 13.7493 98.0144 13.6168C98.0658 13.4843 98.1442 13.364 98.2447 13.2635C98.3451 13.163 98.4655 13.0846 98.598 13.0332C98.7304 12.9819 98.8722 12.9587 99.0141 12.9652H103.076C103.218 12.9587 103.36 12.9819 103.492 13.0332C103.625 13.0846 103.745 13.1631 103.845 13.2636C103.945 13.3641 104.024 13.4845 104.075 13.6169C104.126 13.7494 104.149 13.8911 104.142 14.0329V15.6552C104.852 14.7236 105.758 13.9584 106.795 13.4132C107.875 12.8333 109.228 12.5433 110.853 12.5433C112.177 12.5146 113.493 12.7542 114.721 13.2479C115.789 13.6978 116.74 14.3858 117.501 15.2594C118.281 16.1809 118.872 17.2472 119.24 18.3974C119.675 19.7391 119.912 21.1367 119.945 22.5466C119.974 23.0859 119.988 23.5984 119.988 24.0841C119.988 24.5697 119.974 25.0967 119.945 25.665C119.935 27.0302 119.715 28.3857 119.292 29.6837C118.917 30.8435 118.315 31.9174 117.522 32.8434C116.752 33.7273 115.796 34.4292 114.721 34.8984C113.496 35.4053 112.179 35.6519 110.853 35.6226C109.548 35.654 108.254 35.3831 107.071 34.831C106.036 34.3307 105.135 33.5903 104.444 32.6716V42.24C104.448 42.3821 104.424 42.5236 104.372 42.6559C104.32 42.7882 104.242 42.9086 104.142 43.0098C104.048 43.1065 103.935 43.1828 103.81 43.234C103.685 43.2853 103.551 43.3104 103.416 43.3077L99.0141 43.3121ZM108.93 30.4818C110.018 30.4818 110.866 30.2491 111.494 29.7772C112.12 29.3073 112.589 28.6603 112.843 27.9201C113.12 27.1048 113.285 26.2553 113.332 25.3953C113.388 24.5134 113.388 23.6287 113.332 22.7467C113.285 21.8881 113.12 21.0401 112.843 20.2263C112.59 19.4851 112.12 18.8372 111.494 18.367C110.865 17.8973 110.01 17.6617 108.93 17.6602C107.875 17.6602 107.02 17.9023 106.364 18.3865C105.726 18.8501 105.237 19.4893 104.955 20.2263C104.663 20.9926 104.49 21.7994 104.444 22.6184C104.412 23.1316 104.398 23.66 104.398 24.2015C104.398 24.743 104.412 25.2888 104.444 25.8259C104.466 26.6017 104.647 27.3647 104.975 28.068C105.299 28.7653 105.801 29.3652 106.43 29.8077C107.071 30.2643 107.904 30.4818 108.93 30.4818Z" fill="white"/>
<path d="M15.9844 35.9834L26.0464 35.9203L33.688 3.29883L16.5585 10.4555L15.9844 35.9834Z" fill="#0061F9"/>
<path d="M15.9095 35.9834H15.4811L0 3.29883L15.4811 10.723L15.9095 35.9834Z" fill="#0061F9"/>
</g>
<defs>
<clipPath id="clip0_3503_7980">
<rect width="120" height="42.6204" fill="white" transform="translate(0 0.689453)"/>
</clipPath>
</defs>
</svg>
