<svg width="120" height="43" viewBox="0 0 120 43" fill="none" xmlns="http://www.w3.org/2000/svg">
<g clip-path="url(#clip0_3644_38568)">
<path d="M40.8476 34.9264C39.4448 34.951 38.0551 34.6534 36.7854 34.0565C35.6451 33.5192 34.6602 32.7005 33.9236 31.6775C33.2195 30.7102 32.8445 29.5424 32.8537 28.346C32.8537 26.3163 33.6728 24.7216 35.311 23.5618C36.9492 22.402 39.1079 21.6047 41.787 21.1697L47.3845 20.3543V19.5823C47.3845 18.471 47.1279 17.6251 46.6169 17.0184C46.1058 16.4117 45.2077 16.1224 43.9247 16.1224C42.9823 16.1224 42.2278 16.3073 41.6609 16.677C41.0984 17.0367 40.6408 17.5385 40.3344 18.1318C40.2374 18.3036 40.0955 18.4457 39.9238 18.543C39.7522 18.6403 39.5574 18.6891 39.3601 18.6841H35.2893C35.1574 18.6911 35.0256 18.6699 34.9026 18.6219C34.7796 18.5739 34.6682 18.5002 34.576 18.4058C34.4929 18.3205 34.4301 18.2175 34.3925 18.1045C34.3548 17.9915 34.3432 17.8715 34.3585 17.7534C34.395 17.1451 34.5859 16.5561 34.913 16.042C35.3621 15.2971 35.941 14.6386 36.6223 14.0979C37.5063 13.3931 38.5064 12.8478 39.5776 12.4865C40.7722 12.0602 42.2393 11.8471 43.979 11.8471C45.5414 11.8136 47.0992 12.0294 48.5936 12.4865C49.7455 12.8393 50.7996 13.455 51.6729 14.2849C52.4276 15.0421 53.0067 15.956 53.3691 16.9618C53.7465 18.0077 53.9364 19.1119 53.9301 20.2238V33.4281C53.937 33.5704 53.914 33.7126 53.8626 33.8455C53.8113 33.9784 53.7327 34.0991 53.6319 34.1998C53.5312 34.3006 53.4105 34.3791 53.2776 34.4305C53.1447 34.4818 53.0025 34.5048 52.8602 34.498H48.6697C48.5347 34.5004 48.4007 34.4752 48.2758 34.424C48.1509 34.3727 48.0378 34.2966 47.9434 34.2001C47.8432 34.0988 47.7649 33.978 47.7133 33.8452C47.6617 33.7124 47.6379 33.5704 47.6433 33.4281V31.8471C47.2324 32.4332 46.7276 32.9476 46.1493 33.3694C45.4676 33.868 44.7088 34.2515 43.9029 34.5045C42.9128 34.8039 41.8818 34.9462 40.8476 34.9264ZM42.5568 30.4815C43.4345 30.4961 44.3017 30.2905 45.0794 29.8834C45.8342 29.464 46.4416 28.8225 46.8191 28.0459C47.2453 27.2195 47.4628 26.1793 47.4715 24.9253V24.199L43.4963 24.8514C41.9581 25.108 40.8331 25.4929 40.1213 26.0061C39.408 26.5171 39.0535 27.1456 39.0535 27.885C39.043 28.3987 39.2165 28.8993 39.5428 29.2963C39.8887 29.7075 40.3396 30.0171 40.8476 30.1922C41.3955 30.3898 41.9744 30.4878 42.5568 30.4815Z" fill="#0061F9"/>
<path d="M60.1246 34.4995C59.9897 34.5016 59.8557 34.4763 59.7309 34.4251C59.606 34.3739 59.4929 34.2979 59.3983 34.2016C59.2988 34.0999 59.2211 33.979 59.1699 33.8462C59.1187 33.7135 59.095 33.5718 59.1004 33.4296V13.3426C59.095 13.2008 59.1186 13.0593 59.1698 12.9269C59.2211 12.7945 59.2988 12.674 59.3983 12.5728C59.4926 12.4761 59.6056 12.3998 59.7306 12.3485C59.8555 12.2973 59.9896 12.2722 60.1246 12.2749H64.0998C64.3779 12.2726 64.6457 12.3796 64.8457 12.5728C64.9515 12.6705 65.035 12.7898 65.0905 12.9226C65.1461 13.0555 65.1723 13.1987 65.1676 13.3426V14.7866C65.7982 13.937 66.6082 13.2369 67.5401 12.7359C68.6502 12.1417 69.8908 11.833 71.1499 11.8378C74.4583 11.7812 76.7242 13.0345 77.9478 15.5977C78.6359 14.4555 79.6173 13.5184 80.7901 12.8838C82.0306 12.2046 83.4208 11.8452 84.8351 11.838C86.2493 11.8307 87.6431 12.176 88.8905 12.8424C90.1274 13.5573 91.1178 14.6312 91.7306 15.9217C92.4265 17.3019 92.7758 19.0749 92.7787 21.2408V33.4187C92.7838 33.5612 92.7595 33.7032 92.7075 33.836C92.6555 33.9688 92.5769 34.0895 92.4765 34.1907C92.3823 34.2869 92.2695 34.363 92.145 34.4142C92.0205 34.4654 91.8869 34.4907 91.7523 34.4886H87.5227C87.3874 34.4908 87.2531 34.4655 87.1279 34.4143C87.0027 34.3631 86.8892 34.287 86.7942 34.1907C86.6944 34.0891 86.6164 33.9683 86.5648 33.8355C86.5132 33.7028 86.4892 33.561 86.4941 33.4187V21.5909C86.4941 20.4225 86.323 19.504 85.9809 18.8357C85.698 18.2247 85.227 17.7203 84.637 17.3961C84.0606 17.1052 83.4232 16.9561 82.7777 16.9612C82.1713 16.9652 81.5748 17.1143 81.038 17.3961C80.4445 17.7204 79.9665 18.2212 79.6701 18.8292C79.3135 19.4961 79.1352 20.4145 79.1352 21.5844V33.4231C79.1419 33.565 79.1191 33.7068 79.068 33.8394C79.0169 33.972 78.9387 34.0924 78.8384 34.1931C78.7382 34.2938 78.618 34.3725 78.4856 34.4241C78.3532 34.4757 78.2116 34.4992 78.0696 34.493H73.8856C73.7442 34.4975 73.6034 34.4734 73.4715 34.4222C73.3396 34.371 73.2193 34.2938 73.118 34.1951C73.0182 34.0936 72.9403 33.9727 72.8891 33.8399C72.8378 33.7071 72.8143 33.5653 72.8201 33.4231V21.5909C72.8201 20.4232 72.6461 19.5033 72.3069 18.8357C72.0231 18.2239 71.5505 17.7193 70.9586 17.3961C70.3968 17.108 69.7741 16.9588 69.1428 16.9612C68.5304 16.9647 67.9283 17.1193 67.39 17.4113C66.7927 17.7376 66.3082 18.2373 66.0004 18.8444C65.6438 19.4997 65.4662 20.3964 65.4677 21.5344V33.4165C65.4726 33.5588 65.4485 33.7007 65.3969 33.8334C65.3453 33.9661 65.2673 34.0869 65.1676 34.1885C65.0726 34.2849 64.9591 34.3609 64.8338 34.4122C64.7086 34.4634 64.5743 34.4886 64.4391 34.4865L60.1246 34.4995Z" fill="#0061F9"/>
<path d="M99.0141 42.6226C98.8722 42.6291 98.7304 42.6059 98.598 42.5546C98.4655 42.5032 98.3451 42.4248 98.2447 42.3243C98.1442 42.2238 98.0658 42.1035 98.0144 41.971C97.9631 41.8386 97.9399 41.6968 97.9464 41.5549V13.3435C97.9399 13.2016 97.9631 13.0598 98.0144 12.9273C98.0658 12.7948 98.1442 12.6745 98.2447 12.574C98.3451 12.4736 98.4655 12.3951 98.598 12.3438C98.7304 12.2924 98.8722 12.2693 99.0141 12.2758H103.076C103.218 12.2692 103.36 12.2924 103.492 12.3438C103.625 12.3952 103.745 12.4736 103.845 12.5741C103.945 12.6746 104.024 12.795 104.075 12.9275C104.126 13.06 104.149 13.2017 104.142 13.3435V14.9658C104.852 14.0342 105.758 13.269 106.795 12.7237C107.875 12.1438 109.228 11.8539 110.853 11.8539C112.177 11.8251 113.493 12.0648 114.721 12.5585C115.789 13.0083 116.74 13.6964 117.501 14.57C118.281 15.4914 118.872 16.5578 119.24 17.708C119.675 19.0496 119.912 20.4473 119.945 21.8571C119.974 22.3964 119.988 22.9089 119.988 23.3946C119.988 23.8803 119.974 24.4072 119.945 24.9755C119.935 26.3407 119.715 27.6962 119.292 28.9943C118.917 30.154 118.315 31.228 117.522 32.154C116.752 33.0379 115.796 33.7398 114.721 34.209C113.496 34.7159 112.179 34.9625 110.853 34.9331C109.548 34.9645 108.254 34.6936 107.071 34.1416C106.036 33.6412 105.135 32.9009 104.444 31.9822V41.5505C104.448 41.6926 104.424 41.8341 104.372 41.9664C104.32 42.0988 104.242 42.2192 104.142 42.3203C104.048 42.417 103.935 42.4934 103.81 42.5446C103.685 42.5958 103.551 42.6209 103.416 42.6183L99.0141 42.6226ZM108.93 29.7923C110.018 29.7923 110.866 29.5597 111.494 29.0878C112.12 28.6179 112.589 27.9709 112.843 27.2306C113.12 26.4153 113.285 25.5659 113.332 24.7059C113.388 23.8239 113.388 22.9392 113.332 22.0572C113.285 21.1987 113.12 20.3506 112.843 19.5368C112.59 18.7957 112.12 18.1478 111.494 17.6775C110.865 17.2078 110.01 16.9722 108.93 16.9708C107.875 16.9708 107.02 17.2129 106.364 17.6971C105.726 18.1607 105.237 18.7999 104.955 19.5368C104.663 20.3031 104.49 21.11 104.444 21.9289C104.412 22.4421 104.398 22.9705 104.398 23.512C104.398 24.0535 104.412 24.5993 104.444 25.1365C104.466 25.9122 104.647 26.6752 104.975 27.3785C105.299 28.0759 105.801 28.6758 106.43 29.1182C107.071 29.5749 107.904 29.7923 108.93 29.7923Z" fill="#0061F9"/>
<path d="M15.9844 35.2939L26.0464 35.2309L33.688 2.60938L16.5585 9.76606L15.9844 35.2939Z" fill="#0061F9"/>
<path d="M15.9095 35.2939H15.4811L0 2.60938L15.4811 10.0335L15.9095 35.2939Z" fill="#0061F9"/>
</g>
<defs>
<clipPath id="clip0_3644_38568">
<rect width="120" height="42.6204" fill="white"/>
</clipPath>
</defs>
</svg>
