<svg width="272" height="110" viewBox="0 0 272 110" fill="none" xmlns="http://www.w3.org/2000/svg">
<ellipse cx="70.8805" cy="70.4262" rx="70.8805" ry="70.4262" transform="matrix(4.37114e-08 1 1 -4.37114e-08 74.7822 -16)" fill="url(#paint0_linear_853_11253)"/>
<ellipse cx="70.8805" cy="70.4262" rx="70.8805" ry="70.4262" transform="matrix(4.37114e-08 1 1 -4.37114e-08 0 -16)" fill="url(#paint1_linear_853_11253)"/>
<ellipse cx="70.8805" cy="70.4262" rx="70.8805" ry="70.4262" transform="matrix(4.37114e-08 1 1 -4.37114e-08 141.965 -16)" fill="url(#paint2_linear_853_11253)"/>
<ellipse cx="70.8805" cy="70.4262" rx="70.8805" ry="70.4262" transform="matrix(4.37114e-08 1 1 -4.37114e-08 209.147 -16)" fill="url(#paint3_linear_853_11253)"/>
<defs>
<linearGradient id="paint0_linear_853_11253" x1="71.5412" y1="12.3935" x2="78.0637" y2="149.592" gradientUnits="userSpaceOnUse">
<stop stop-color="#B7D3FF"/>
<stop offset="1" stop-color="#E5EFFF"/>
</linearGradient>
<linearGradient id="paint1_linear_853_11253" x1="71.5412" y1="12.3935" x2="78.0637" y2="149.592" gradientUnits="userSpaceOnUse">
<stop stop-color="#B7D3FF"/>
<stop offset="1" stop-color="#E5EFFF"/>
</linearGradient>
<linearGradient id="paint2_linear_853_11253" x1="71.5412" y1="12.3935" x2="78.0637" y2="149.592" gradientUnits="userSpaceOnUse">
<stop stop-color="#B7D3FF"/>
<stop offset="1" stop-color="#E5EFFF"/>
</linearGradient>
<linearGradient id="paint3_linear_853_11253" x1="71.5412" y1="12.3935" x2="78.0637" y2="149.592" gradientUnits="userSpaceOnUse">
<stop stop-color="#B7D3FF"/>
<stop offset="1" stop-color="#E5EFFF"/>
</linearGradient>
</defs>
</svg>
