<svg width="70" height="70" viewBox="0 0 70 70" fill="none" xmlns="http://www.w3.org/2000/svg">
<rect width="70" height="70" rx="10" fill="#E5EFFF"/>
<path d="M45.502 27.127V32.377M45.502 32.377V37.627M45.502 32.377H50.752M45.502 32.377H40.252M36.3145 25.1582C36.3145 26.7246 35.6922 28.2269 34.5846 29.3346C33.4769 30.4422 31.9746 31.0645 30.4082 31.0645C28.8418 31.0645 27.3395 30.4422 26.2319 29.3346C25.1242 28.2269 24.502 26.7246 24.502 25.1582C24.502 23.5918 25.1242 22.0895 26.2319 20.9819C27.3395 19.8742 28.8418 19.252 30.4082 19.252C31.9746 19.252 33.4769 19.8742 34.5846 20.9819C35.6922 22.0895 36.3145 23.5918 36.3145 25.1582ZM19.252 47.6632V47.4707C19.252 44.5119 20.4273 41.6742 22.5195 39.582C24.6117 37.4898 27.4494 36.3145 30.4082 36.3145C33.367 36.3145 36.2047 37.4898 38.2969 39.582C40.3891 41.6742 41.5645 44.5119 41.5645 47.4707V47.6614C38.1965 49.6899 34.338 50.7586 30.4065 50.752C26.3272 50.752 22.5105 49.6232 19.252 47.6614V47.6632Z" stroke="#0061F9" stroke-width="2.1" stroke-linecap="round" stroke-linejoin="round"/>
</svg>
