<svg width="400" height="308" viewBox="0 0 400 308" fill="none" xmlns="http://www.w3.org/2000/svg">
<g clip-path="url(#clip0_439_15771)">
<path d="M41.7696 289.643L39.3005 296.022C39.3005 296.022 42.9356 297.188 44.7875 302.606C37.0371 302.263 29.9727 302.057 29.9727 302.057L39.7806 285.185" fill="#2C1824"/>
<path d="M124.485 285.528L127.297 292.318L148.148 301.92L122.222 299.108L122.565 292.455L119.479 285.322" fill="#2C1824"/>
<path d="M86.8999 213.992L115.569 244.445L127.503 287.106L120.508 289.712L104.801 247.257L66.8725 220.096L62.4143 250.069L43.9644 291.701C43.9644 291.701 37.5858 294.788 35.8711 288.478L52.4006 245.816C52.4006 245.816 45.9534 214.678 51.166 206.996" fill="#7C96AB"/>
<path d="M111.935 102.332L116.324 93.0728C116.324 93.0728 114.198 87.723 115.09 84.7737C116.05 81.7559 120.165 83.6763 123.114 86.6942C125.995 89.6434 121.057 89.8492 118.245 86.4884C121.605 89.369 119.891 91.701 119.891 91.701L116.05 87.1057C116.05 87.1057 116.598 81.6187 119.685 80.7271C122.703 79.8354 121.88 82.5789 121.88 82.5789C121.88 82.5789 124.417 80.3156 124.212 84.3622C127.092 84.3622 126.544 86.6942 126.544 86.6942C126.544 86.6942 129.15 86.0083 127.641 89.3005C126.132 92.6612 123.594 94.7188 123.046 91.8382C121.605 94.4445 119.068 94.7188 119.068 94.7188L115.981 108.642" fill="#613B1D"/>
<path d="M116.255 93.2783C116.187 93.2783 116.118 93.2097 116.05 93.1411C115.981 92.9354 113.855 87.7228 114.815 84.7049C115.089 83.8133 115.638 83.3332 116.393 83.1274C118.313 82.6473 121.194 84.4992 123.183 86.5568C123.937 87.3112 124.211 87.9971 124.074 88.4772C124.006 88.8201 123.663 89.0259 123.251 89.0945C122.428 89.2317 121.194 88.9573 119.959 88.2029C121.056 90.2605 119.959 91.7694 119.959 91.7694C119.89 91.838 119.753 91.9066 119.685 91.838C119.616 91.7694 119.548 91.6322 119.616 91.5636C119.685 91.495 120.851 89.849 118.93 87.517C118.587 87.2426 118.313 86.8997 117.97 86.5568C117.901 86.4882 117.901 86.351 117.97 86.2824C118.039 86.2138 118.176 86.2138 118.244 86.2824C118.587 86.6254 118.93 86.8997 119.205 87.2426C120.645 88.4772 122.291 88.8201 123.114 88.683C123.32 88.6144 123.594 88.5458 123.663 88.34C123.731 87.9971 123.457 87.4484 122.84 86.8311C120.576 84.5677 117.97 83.196 116.461 83.5389C115.844 83.6761 115.432 84.1562 115.158 84.8421C114.266 87.7228 116.324 92.9354 116.324 93.004C116.393 93.1411 116.324 93.2097 116.187 93.2783C116.324 93.2783 116.324 93.2783 116.255 93.2783Z" fill="#4F2B13"/>
<path d="M122.977 91.9752C122.84 91.9066 122.771 91.838 122.771 91.7008C123.389 89.3003 126.201 86.5568 126.338 86.4196C126.407 86.351 126.544 86.351 126.612 86.4196C126.681 86.4882 126.681 86.6254 126.612 86.694C126.612 86.694 123.8 89.4374 123.183 91.7694C123.114 91.9066 123.046 91.9752 122.977 91.9752Z" fill="#4F2B13"/>
<path d="M122.909 86.6943C122.84 86.6943 122.84 86.6943 122.772 86.6943C122.703 86.6257 122.635 86.4886 122.703 86.42L123.938 84.2938C124.006 84.2252 124.144 84.1566 124.212 84.2252C124.281 84.2938 124.349 84.4309 124.281 84.4995L123.046 86.6257C123.046 86.6257 122.978 86.6943 122.909 86.6943Z" fill="#4F2B13"/>
<path d="M121.674 91.8379C121.468 91.8379 121.262 91.7694 121.125 91.6322C120.439 91.0149 121.4 89.0259 121.605 88.6829C121.674 88.6144 121.811 88.5458 121.88 88.6143C121.948 88.6829 122.017 88.8201 121.948 88.8887C121.537 89.7117 121.057 91.0835 121.4 91.3578C121.468 91.4264 121.811 91.5636 122.84 91.0149C122.908 90.9463 123.046 91.0149 123.114 91.0835C123.183 91.1521 123.114 91.2892 123.046 91.3578C122.497 91.7008 122.085 91.8379 121.674 91.8379Z" fill="#4F2B13"/>
<path d="M120.851 84.911H120.783C120.646 84.8424 120.646 84.7738 120.646 84.6367L121.606 82.4419C121.674 82.3047 121.743 82.3047 121.88 82.3047C122.017 82.3733 122.017 82.4419 122.017 82.579L121.057 84.7738C120.988 84.911 120.92 84.911 120.851 84.911Z" fill="#4F2B13"/>
<path d="M120.714 91.3582C120.508 91.3582 120.234 91.221 120.028 91.0152C119.959 90.9467 119.959 90.8095 120.028 90.7409C120.097 90.6723 120.234 90.6723 120.302 90.7409C120.508 90.8781 120.645 90.9467 120.782 90.9467C120.92 90.9467 120.988 90.8095 120.988 90.8095C121.057 90.7409 121.194 90.6723 121.263 90.7409C121.331 90.8095 121.4 90.9467 121.331 91.0152C121.331 91.0152 121.125 91.2896 120.851 91.3582C120.782 91.3582 120.782 91.3582 120.714 91.3582Z" fill="#4F2B13"/>
<path d="M18.5872 109.396L12.6201 101.097C12.6201 101.097 13.7861 95.4731 12.2772 92.7296C10.7682 89.9861 7.06453 92.5924 4.73257 96.0218C2.40061 99.4511 7.33888 98.6967 9.46508 94.9244C6.65301 98.3537 8.8478 100.343 8.8478 100.343L11.797 95.1301C11.797 95.1301 10.2881 89.8489 7.13312 89.506C3.97811 89.1631 5.28127 91.7008 5.28127 91.7008C5.28127 91.7008 2.40061 89.9175 3.29224 93.827C0.411583 94.3757 1.3718 96.5019 1.3718 96.5019C1.3718 96.5019 -1.3031 96.2961 0.754518 99.2454C2.88072 102.263 5.69279 103.841 5.76138 100.891C7.61323 103.223 10.151 103.018 10.151 103.018L15.7065 116.186" fill="#613B1D"/>
<path d="M12.551 101.303C12.4138 101.303 12.3453 101.166 12.3453 101.029C12.3453 100.96 13.5112 95.4731 12.0709 92.7982C11.728 92.1123 11.2479 91.7693 10.562 91.7693C8.98449 91.7008 6.65252 93.484 4.86926 96.1589C4.38915 96.9134 4.18339 97.4621 4.32056 97.805C4.45774 98.0108 4.73209 98.0794 4.93785 98.0794C5.76089 98.0794 7.26981 97.3935 8.50438 95.9532C8.71014 95.6102 8.98449 95.2673 9.25883 94.8558C9.32742 94.7872 9.4646 94.7872 9.53318 94.7872C9.60177 94.8558 9.67036 94.9929 9.60177 95.0615C9.39601 95.4731 9.12166 95.816 8.84731 96.1589C7.33839 98.7652 8.84731 100.206 8.9159 100.206C8.98449 100.274 8.98449 100.411 8.9159 100.48C8.84731 100.548 8.71014 100.548 8.64155 100.48C8.64155 100.48 7.26981 99.1767 8.02427 96.982C6.92687 97.9422 5.76089 98.4223 4.93785 98.4223C4.45774 98.4223 4.1148 98.2165 3.97763 97.9422C3.70328 97.4621 3.90904 96.7762 4.52632 95.8846C6.10383 93.5526 8.57296 91.2206 10.562 91.3578C11.385 91.4264 12.0023 91.8379 12.4138 92.5924C13.9228 95.4045 12.8254 100.891 12.7568 101.166C12.7568 101.234 12.6882 101.303 12.551 101.303Z" fill="#4F2B13"/>
<path d="M5.76144 101.235C5.69285 101.235 5.62427 101.166 5.55568 101.097C4.52687 98.9026 1.30328 96.7764 1.23469 96.7078C1.1661 96.6392 1.09752 96.502 1.16611 96.4334C1.23469 96.3648 1.37187 96.2962 1.44045 96.3648C1.57763 96.4334 4.80122 98.6282 5.89862 100.892C5.9672 101.029 5.89861 101.097 5.83003 101.166C5.83003 101.235 5.83003 101.235 5.76144 101.235Z" fill="#4F2B13"/>
<path d="M4.86963 96.0218C4.80105 96.0218 4.73246 96.0218 4.73246 95.9533L3.15496 94.0328C3.08637 93.9642 3.08637 93.8271 3.15496 93.7585C3.22354 93.6899 3.36072 93.6899 3.4293 93.7585L5.00681 95.6789C5.0754 95.7475 5.0754 95.8847 5.00681 95.9533C5.00681 95.9533 4.93822 96.0218 4.86963 96.0218Z" fill="#4F2B13"/>
<path d="M6.79046 100.891C6.44752 100.891 6.10459 100.823 5.62448 100.686C5.4873 100.617 5.4873 100.549 5.4873 100.411C5.55589 100.274 5.62448 100.274 5.76165 100.274C6.85905 100.617 7.1334 100.48 7.20198 100.343C7.47633 99.9998 6.79046 98.7653 6.17318 98.0108C6.10459 97.9422 6.10459 97.805 6.24176 97.7365C6.31035 97.6679 6.44752 97.6679 6.51611 97.805C6.79046 98.148 8.09361 99.8627 7.54492 100.617C7.40774 100.823 7.13339 100.891 6.79046 100.891Z" fill="#4F2B13"/>
<path d="M6.65283 93.8956C6.58424 93.8956 6.51565 93.8956 6.44707 93.827L5.07533 91.8379C5.00674 91.7694 5.00674 91.6322 5.14391 91.5636C5.2125 91.495 5.34967 91.495 5.41826 91.6322L6.79 93.6212C6.85859 93.6898 6.85859 93.827 6.72142 93.8956H6.65283Z" fill="#4F2B13"/>
<path d="M7.75053 100.206C7.47618 100.206 7.27042 100 7.20183 100C7.13324 99.9314 7.13324 99.7942 7.20183 99.7256C7.27042 99.657 7.40759 99.657 7.47618 99.7256C7.47618 99.7256 7.61335 99.7942 7.75053 99.7942C7.8877 99.7942 8.02488 99.657 8.16205 99.5199C8.23064 99.4513 8.36781 99.3827 8.4364 99.4513C8.50499 99.5198 8.57357 99.657 8.50499 99.7256C8.29922 100.069 8.09346 100.206 7.75053 100.206C7.81911 100.206 7.81911 100.206 7.75053 100.206Z" fill="#4F2B13"/>
<path d="M73.3192 159.671C73.3192 159.671 104.801 115.295 112.14 101.92C116.666 105.144 118.45 107.476 118.45 107.476C118.45 107.476 113.168 126.612 100.891 132.236C97.8734 147.942 89.7115 166.461 89.7115 166.461C89.7115 166.461 88.2712 204.527 89.5058 215.363C80.658 224.28 75.7198 225.789 75.7198 225.789L73.2506 217.627L71.7417 225.583C71.7417 225.583 53.4975 218.45 48.4221 209.328C46.9132 187.449 46.5702 165.569 46.5702 165.569C46.5702 165.569 31.0696 142.318 27.846 133.196C19.4097 127.229 11.5908 112.826 11.5908 112.826L19.204 108.093C19.204 108.093 46.8446 145.473 62.4825 158.436" fill="#EE9A04"/>
<path d="M69.9593 153.841L73.3201 159.671L70.6452 172.085L62.209 159.122L64.1294 151.303" fill="#613B1D"/>
<path d="M62.3457 158.505L64.129 151.303L69.9589 153.841L72.7024 158.642C70.5762 158.848 66.118 159.259 62.3457 158.505Z" fill="#4F2D16"/>
<path d="M72.428 117.215C72.428 117.215 70.439 110.562 68.8615 110.425C65.295 110.631 52.8121 116.872 50.2744 126.269C55.0069 134.774 58.2991 139.3 58.2991 139.3" fill="#2C1824"/>
<path d="M72.4276 117.215C72.4276 117.215 85.3906 146.228 81.4125 154.321C81.4125 154.321 81.2068 158.779 63.5799 154.115C57.75 151.715 57.3384 148.834 57.3384 148.834C57.3384 148.834 58.2301 135.802 54.5264 127.16C59.9447 120.096 66.4605 118.313 72.4276 117.215Z" fill="#613B1D"/>
<path d="M82.1672 148.834C82.3043 151.097 82.0986 153.018 81.4813 154.321C81.4813 154.321 81.2755 158.779 63.6487 154.115C57.8188 151.715 57.4072 148.834 57.4072 148.834C57.4072 148.834 57.4758 148.08 57.4758 146.776C71.1247 133.128 79.4923 144.17 82.1672 148.834Z" fill="#2C1824"/>
<path d="M58.0933 138.683C58.0933 138.683 54.5954 134.911 52.0577 137.243C49.4514 139.643 55.7614 145.268 58.2305 142.593" fill="#613B1D"/>
<path d="M70.5764 132.716C70.5764 132.716 76.6807 138.066 76.3378 143.759C70.0963 146.228 64.6094 141.907 64.6094 141.907C64.6094 141.907 63.8549 137.174 67.9015 139.781" fill="#613B1D"/>
<path d="M72.3594 144.719C67.9012 144.719 64.5404 142.112 64.4719 142.044C64.4033 142.044 64.4033 141.975 64.4033 141.907C64.4033 141.838 64.0603 139.643 65.1577 138.957C65.775 138.546 66.8038 138.752 68.0384 139.575C68.107 139.643 68.1756 139.78 68.107 139.849C68.0384 139.918 67.9012 139.986 67.8326 139.918C66.7352 139.163 65.8436 138.957 65.3635 139.3C64.6776 139.712 64.7462 141.152 64.8148 141.769C65.4321 142.25 70.5075 145.748 76.1317 143.621C76.3374 138.134 70.5075 132.922 70.4389 132.853C70.3703 132.785 70.3703 132.647 70.4389 132.579C70.5075 132.51 70.6447 132.51 70.7133 132.579C70.9876 132.785 76.8861 138.066 76.5432 143.827C76.5432 143.896 76.4746 143.964 76.406 144.033C75.0343 144.513 73.6625 144.719 72.3594 144.719Z" fill="#4F2B13"/>
<path d="M57.4073 141.907C56.8587 141.77 56.1042 141.495 56.1728 141.084C56.1728 140.809 56.4471 140.672 57.133 140.535C55.8298 138.82 55.144 138.683 54.801 138.752C54.3895 138.82 54.2523 139.3 54.2523 139.3C54.2523 139.438 54.1152 139.506 53.978 139.438C53.8408 139.438 53.8408 139.3 53.8408 139.163C53.8408 139.163 54.0466 138.409 54.7325 138.272C55.4869 138.135 56.5157 138.889 57.6817 140.535C57.7503 140.604 57.7503 140.672 57.6817 140.741C57.6817 140.809 57.6131 140.878 57.5445 140.878C56.7215 141.015 56.5843 141.152 56.5843 141.152C56.6529 141.221 57.0644 141.427 57.4759 141.564C57.6131 141.564 57.6817 141.701 57.6131 141.838C57.6131 141.838 57.5445 141.907 57.4073 141.907Z" fill="#4F2B13"/>
<path d="M66.1182 133.745C66.1182 134.362 66.4611 134.911 66.9412 134.979C67.4213 134.979 67.8328 134.499 67.8328 133.882C67.8328 133.265 67.4899 132.716 67.0098 132.647C66.5983 132.647 66.1868 133.128 66.1182 133.745Z" fill="#2C1824"/>
<path d="M72.7021 133.745C72.7021 134.362 73.0451 134.911 73.5252 134.979C74.0053 134.979 74.4168 134.499 74.4168 133.882C74.4168 133.265 74.0739 132.716 73.5938 132.647C73.1137 132.579 72.7021 133.128 72.7021 133.745Z" fill="#2C1824"/>
<path d="M67.2836 126.886C67.2836 126.886 62.9627 121.125 60.9736 129.561Z" fill="#2C1824"/>
<path d="M69.4785 127.092C69.4785 127.092 73.388 120.713 75.7885 129.15Z" fill="#2C1824"/>
<path d="M73.8681 147.462L65.3633 145.405C65.3633 145.405 67.8324 160.7 73.8681 147.462Z" fill="#070406"/>
<path d="M71.056 149.04C71.056 149.04 68.5869 149.589 66.3235 149.108C65.7062 147.257 65.3633 145.405 65.3633 145.405L71.7419 146.982L71.056 149.04Z" fill="#DFDFDF"/>
<path d="M73.1829 217.833C73.0458 217.833 72.9772 217.764 72.9772 217.627C73.1144 204.184 70.508 172.428 70.4395 172.085C70.4395 171.948 70.508 171.879 70.6452 171.879C70.7824 171.879 70.851 171.948 70.851 172.085C70.851 172.428 73.5259 204.184 73.3887 217.627C73.3887 217.764 73.2515 217.833 73.1829 217.833Z" fill="#CC7E00"/>
<path d="M68.8614 170.576L63.3059 170.37C63.2373 170.37 63.1687 170.302 63.1001 170.233C63.0315 170.165 63.1001 170.096 63.1001 170.027L65.2263 166.598L57.2016 164.609C57.133 164.609 57.0645 164.54 57.0645 164.54C57.0645 164.472 57.0645 164.403 57.0645 164.403L59.6708 156.31C59.7394 156.173 59.8079 156.173 59.9451 156.173C60.0823 156.241 60.0823 156.31 60.0823 156.447L57.5446 164.335L65.7064 166.324C65.775 166.324 65.8436 166.392 65.8436 166.461C65.8436 166.53 65.8436 166.598 65.8436 166.667L63.7174 170.027L68.93 170.233C69.0672 170.233 69.1358 170.302 69.1358 170.439C69.0672 170.439 68.9986 170.576 68.8614 170.576Z" fill="#CC7E00"/>
<path d="M72.1541 170.713C72.0855 170.713 72.0169 170.645 71.9483 170.576C71.8797 170.508 71.9483 170.37 72.0169 170.302L74.829 168.724L72.1541 166.872C72.0855 166.804 72.0169 166.735 72.0855 166.667C72.0855 166.598 72.1541 166.529 72.2913 166.529L80.1102 165.981L75.0348 157.064C74.9662 156.996 75.0348 156.859 75.1033 156.79C75.1719 156.722 75.3091 156.79 75.3777 156.859L80.5903 166.118C80.6589 166.187 80.6589 166.255 80.5903 166.324C80.5903 166.392 80.5217 166.461 80.4531 166.461L72.9086 166.941L75.3777 168.656C75.4463 168.724 75.4463 168.793 75.4463 168.861C75.4463 168.93 75.3777 168.999 75.3091 168.999L72.2227 170.713C72.2227 170.713 72.2227 170.713 72.1541 170.713Z" fill="#CC7E00"/>
<path d="M68.6553 175.24C68.6553 175.514 68.861 175.789 69.204 175.789C69.4783 175.789 69.7527 175.583 69.7527 175.24C69.7527 174.966 69.5469 174.691 69.204 174.691C68.9296 174.691 68.6553 174.897 68.6553 175.24Z" fill="#CC7E00"/>
<path d="M69.4102 188.615C69.4102 188.889 69.6159 189.163 69.9589 189.163C70.3018 189.163 70.5076 188.958 70.5076 188.615C70.5076 188.34 70.3018 188.066 69.9589 188.066C69.6845 188.066 69.4102 188.34 69.4102 188.615Z" fill="#CC7E00"/>
<path d="M70.0957 202.057C70.0957 202.332 70.3015 202.606 70.6444 202.606C70.9188 202.606 71.1931 202.4 71.1931 202.057C71.1931 201.783 70.9873 201.509 70.6444 201.509C70.3701 201.509 70.1643 201.715 70.0957 202.057Z" fill="#CC7E00"/>
<path d="M70.8506 215.432C70.8506 215.706 71.0563 215.981 71.3993 215.981C71.6736 215.981 71.948 215.775 71.948 215.432C71.948 215.158 71.7422 214.883 71.3993 214.883C71.1249 214.883 70.8506 215.089 70.8506 215.432Z" fill="#CC7E00"/>
<path d="M117.078 111.797C117.009 111.797 117.009 111.797 116.941 111.728L110.013 105.487C109.945 105.418 109.945 105.281 110.013 105.213C110.082 105.144 110.219 105.144 110.288 105.213L117.215 111.454C117.284 111.523 117.284 111.66 117.215 111.728C117.146 111.728 117.146 111.797 117.078 111.797Z" fill="#CC7E00"/>
<path d="M14.7462 117.559C14.6776 117.559 14.6091 117.559 14.6091 117.49C14.5405 117.421 14.5405 117.284 14.6091 117.216L21.6049 111.591C21.6735 111.523 21.8107 111.523 21.8793 111.591C21.9479 111.66 21.9479 111.797 21.8793 111.866L14.8834 117.49C14.8834 117.559 14.8148 117.559 14.7462 117.559Z" fill="#CC7E00"/>
<path d="M193.278 295.062L191.906 304.321L222.839 307.819C222.839 307.819 219.341 302.264 199.039 298.834C199.039 290.947 199.039 290.947 199.039 290.947" fill="#EE9A04"/>
<path d="M149.177 291.77L146.639 297.188C146.639 297.188 131.962 296.571 123.251 307.064C128.875 306.653 151.646 302.606 151.646 302.606L154.184 289.849" fill="#EE9A04"/>
<path d="M213.718 37.3801C213.718 37.3801 221.399 33.9508 222.634 39.9179C223.937 45.8163 221.125 51.3719 213.238 52.8122C211.934 54.8698 212.072 56.3102 212.072 56.3102C212.072 56.3102 225.24 54.5269 226.543 46.365C227.847 38.2032 223.457 29.3554 213.306 34.4309" fill="#EE9A04"/>
<path d="M184.567 44.8562C184.567 44.8562 177.777 46.9824 177.915 51.029C178.052 55.0071 186.762 59.671 193.552 55.6929C195.061 57.7506 194.856 57.2019 194.856 57.2019C194.856 57.2019 191.358 62.0715 182.921 59.1909C174.417 56.3102 174.074 49.2458 177.16 45.5421C180.178 41.8383 186.625 41.7012 186.625 41.7012" fill="#EE9A04"/>
<path d="M191.838 108.642C191.838 108.642 185.459 78.0525 184.842 63.512C186.145 57.6135 188.34 57.1334 187.242 54.8701C186.145 52.6067 179.423 52.3323 179.08 53.5669C178.738 54.8701 179.08 56.5847 179.08 56.5847L177.16 55.9675C177.16 55.9675 176.886 59.8083 181.001 63.512C178.463 74.4174 177.64 85.117 182.441 91.5642C180.658 111.592 182.784 120.439 182.784 120.439" fill="#D39C76"/>
<path d="M221.811 105.83L223.868 60.2884C223.868 60.2884 218.244 55.9674 216.667 52.6067C215.089 49.2459 221.811 46.3652 221.811 46.3652L225.034 50.8234L225.994 48.4228C225.994 48.4228 228.121 53.5669 225.994 58.9853C233.333 75.7891 231.824 83.1279 229.698 86.2829C235.459 100.961 233.265 115.844 233.265 115.844" fill="#D39C76"/>
<path d="M186.832 185.528C186.352 186.557 177.778 217.215 163.924 250.137C150.069 283.059 144.582 293.141 144.582 293.141C144.582 293.141 150.618 297.942 157.682 294.17C157.682 294.17 167.559 258.162 176.612 240.809C185.666 223.457 198.08 205.899 198.08 205.899C198.08 205.899 202.195 207.407 206.585 205.418C210.974 203.429 201.921 203.429 201.921 203.429L204.596 250.96C204.596 250.96 200.823 250.206 203.841 254.458C199.315 269.067 188.546 295.61 188.546 295.61C188.546 295.61 199.04 302.401 201.098 295.61C209.74 267.627 211.935 249.177 211.935 249.177C211.935 249.177 224.76 188.615 224.006 182.785" fill="#422738"/>
<path d="M183.265 195.817C183.265 195.817 188.752 149.863 184.637 135.94C177.846 123.251 175.857 117.216 175.857 117.216L191.838 108.574C191.838 108.574 196.022 122.291 200.274 125.515C204.527 128.807 217.01 122.223 217.01 122.223L221.811 105.762L240.741 110.906C240.741 110.906 232.51 128.121 231.139 138.546C229.698 148.972 225.24 192.25 225.24 192.25C225.24 192.25 218.107 208.025 202.538 205.762C186.9 203.636 183.265 195.817 183.265 195.817Z" fill="#0061F9"/>
<path d="M205.693 134.157C204.184 134.157 202.949 133.677 201.989 132.716C199.383 130.179 199.451 125.24 199.451 125.035C199.451 124.897 199.52 124.829 199.657 124.829C199.794 124.829 199.863 124.897 199.863 125.035C199.863 125.103 199.794 129.973 202.263 132.373C203.292 133.334 204.527 133.745 206.104 133.677C212.551 133.265 214.609 124.554 214.609 124.486C214.609 124.349 214.746 124.28 214.883 124.349C215.021 124.349 215.089 124.486 215.021 124.623C215.021 124.692 212.894 133.677 206.104 134.157C206.036 134.157 205.83 134.157 205.693 134.157Z" fill="#DFDCC9"/>
<path d="M213.238 125.515C213.238 125.515 210.837 133.196 205.282 131.825C199.795 130.453 200.343 123.937 200.343 123.937L213.238 125.515Z" fill="#C1845B"/>
<path d="M214.54 95.3364C214.54 95.3364 217.832 94.3762 218.312 92.4558C218.793 90.5353 217.558 87.106 215.432 86.2144C206.927 89.3008 195.747 94.3076 191.838 97.8742C193.964 108.848 196.365 114.952 196.365 114.952" fill="#D2551F"/>
<path d="M214.54 95.3365C214.54 95.3365 218.724 117.079 218.724 120.919C218.724 124.692 209.19 129.699 203.155 128.738C197.119 127.778 193.621 99.3831 193.621 99.3831C193.621 99.3831 210.356 94.9935 214.54 95.3365Z" fill="#D39C76"/>
<path d="M197.119 112.551C197.119 112.551 195.747 110.151 193.621 111.866C191.495 113.58 195.336 122.085 198.079 117.49" fill="#D39C76"/>
<path d="M196.227 119.068C196.159 119.068 196.09 119.068 196.022 119.068C194.65 118.862 193.484 117.01 193.004 115.364C192.524 113.718 192.729 112.346 193.415 111.729C194.101 111.18 194.787 110.974 195.404 111.111C196.57 111.317 197.188 112.415 197.188 112.483C197.256 112.552 197.188 112.689 197.119 112.758C197.05 112.826 196.913 112.758 196.845 112.689C196.845 112.689 196.227 111.66 195.336 111.523C194.787 111.454 194.238 111.592 193.69 112.072C193.072 112.552 193.004 113.786 193.415 115.227C193.895 116.804 194.924 118.519 196.09 118.656C196.708 118.725 197.325 118.313 197.874 117.421C197.942 117.353 198.079 117.284 198.148 117.353C198.216 117.421 198.285 117.559 198.216 117.627C197.531 118.725 196.776 119.068 196.227 119.068Z" fill="#BC7646"/>
<path d="M206.584 103.293C206.584 103.293 206.241 101.166 205.075 100.618C203.909 100.069 200.48 103.567 200.343 104.527C200.206 105.487 201.92 106.928 201.92 106.928L206.584 103.293Z" fill="#D2551F"/>
<path d="M209.397 103.224C209.397 103.224 208.779 100.343 210.014 100.069C211.18 99.7946 214.541 101.029 214.815 101.646C215.089 102.264 214.403 103.841 214.403 103.841L209.397 103.224Z" fill="#D2551F"/>
<path d="M209.26 104.733C209.26 104.733 211.591 115.09 212.483 117.284C208.162 114.747 206.104 112.14 206.104 112.14" fill="#D39C76"/>
<path d="M212.483 117.421C212.414 117.421 212.414 117.421 212.346 117.421C208.025 114.952 206.036 112.346 205.967 112.209C205.898 112.14 205.898 112.003 206.036 111.934C206.104 111.866 206.241 111.866 206.31 112.003C206.31 112.003 208.162 114.403 212.071 116.804C211.042 113.855 209.122 105.213 209.053 104.801C209.053 104.664 209.122 104.595 209.191 104.527C209.328 104.527 209.396 104.595 209.465 104.664C209.465 104.801 211.797 115.021 212.688 117.147C212.757 117.215 212.688 117.353 212.62 117.353C212.551 117.421 212.551 117.421 212.483 117.421Z" fill="#BC7646"/>
<path d="M198.011 116.05C196.502 115.844 196.502 115.501 196.433 115.432C196.433 115.158 196.639 115.021 197.051 114.884C196.09 113.855 195.542 113.786 195.336 113.855C195.062 113.924 194.993 114.198 194.993 114.266C194.993 114.404 194.856 114.472 194.719 114.404C194.582 114.404 194.513 114.266 194.582 114.129C194.582 114.129 194.719 113.581 195.199 113.443C195.816 113.306 196.571 113.718 197.531 114.815C197.599 114.884 197.599 114.952 197.599 115.021C197.599 115.09 197.531 115.158 197.462 115.158C197.119 115.227 196.982 115.295 196.845 115.364C197.051 115.432 197.462 115.57 197.942 115.638C198.08 115.638 198.148 115.775 198.148 115.844C198.217 115.981 198.148 116.05 198.011 116.05Z" fill="#BC7646"/>
<path d="M210.836 118.039H203.909C203.909 118.039 204.458 125.446 206.584 125.515C208.779 125.583 210.905 122.565 210.836 118.039Z" fill="#2C1824"/>
<path d="M209.671 118.039H203.909C203.909 118.039 203.978 119.067 204.184 120.302C206.378 120.576 209.328 119.822 209.328 119.822L209.671 118.039Z" fill="#E4E4E4"/>
<path d="M207.065 108.642C207.065 109.396 206.653 109.945 206.173 109.945C205.693 109.945 205.281 109.328 205.281 108.642C205.281 107.888 205.693 107.339 206.173 107.339C206.722 107.339 207.065 107.888 207.065 108.642Z" fill="#2C1824"/>
<path d="M212.62 108.642C212.62 109.396 212.209 109.945 211.729 109.945C211.248 109.945 210.837 109.328 210.837 108.642C210.837 107.888 211.248 107.339 211.729 107.339C212.209 107.339 212.62 107.888 212.62 108.642Z" fill="#2C1824"/>
<path d="M204.664 122.634C205.076 124.143 205.693 125.514 206.653 125.514C207.27 125.514 207.956 125.309 208.505 124.829C207.545 121.879 205.693 122.154 204.664 122.634Z" fill="#CC521A"/>
<path d="M181.618 37.3802C181.618 37.3802 191.975 24.0743 211.865 28.1209C217.283 49.5201 212.62 63.0317 207.338 64.9522C202.126 66.8726 189.643 60.7684 181.618 37.3802Z" fill="#EE9A04"/>
<path d="M205.281 64.2662C205.281 64.2662 208.025 73.2512 206.584 75.3088C205.144 77.3664 198.423 80.4528 199.52 83.1277C200.617 85.8712 222.085 79.1496 221.468 76.0632C220.85 73.0454 213.375 74.9658 211.317 72.5653C209.259 70.1647 207.339 62.7573 207.339 62.7573" fill="#EE9A04"/>
<path d="M205.487 203.909C193.895 203.909 183.333 195.13 183.264 195.062C183.196 194.993 183.196 194.856 183.264 194.787C183.333 194.719 183.47 194.719 183.539 194.787C183.676 194.925 196.433 205.487 209.122 203.224C215.637 202.058 221.056 197.805 225.308 190.535C225.377 190.466 225.514 190.398 225.583 190.466C225.651 190.535 225.72 190.672 225.651 190.741C221.399 198.148 215.843 202.469 209.19 203.635C207.956 203.841 206.721 203.909 205.487 203.909Z" fill="#DFDCC9"/>
<path d="M176.887 120.165C176.818 120.165 176.749 120.096 176.681 120.027C176.612 119.959 176.681 119.822 176.749 119.753L192.456 110.768C192.524 110.7 192.662 110.768 192.73 110.837C192.799 110.905 192.73 111.043 192.662 111.111L176.955 120.096C176.955 120.165 176.887 120.165 176.887 120.165Z" fill="#DFDCC9"/>
<path d="M239.575 113.855C239.506 113.855 239.506 113.855 239.575 113.855L221.331 107.545C221.193 107.476 221.193 107.408 221.193 107.27C221.262 107.133 221.331 107.133 221.468 107.133L239.643 113.443C239.78 113.512 239.78 113.58 239.78 113.718C239.712 113.786 239.643 113.855 239.575 113.855Z" fill="#DFDCC9"/>
<path d="M183.059 41.0839L182.784 40.8782C194.307 27.9838 212.482 31.3446 212.688 31.4131L212.62 31.7561C212.482 31.6875 194.444 28.3267 183.059 41.0839Z" fill="#FFBC50"/>
<path d="M182.511 39.5066L182.236 39.3008C182.305 39.1637 190.535 27.2295 212.415 29.973L212.346 30.3159C190.673 27.5724 182.579 39.3694 182.511 39.5066Z" fill="#FFBC50"/>
<path d="M189.369 53.4295L189.095 53.2237C189.163 53.1551 196.845 45.1304 214.266 45.6106V45.9535C197.051 45.4734 189.438 53.3609 189.369 53.4295Z" fill="#FFBC50"/>
<path d="M201.166 64.4036L200.96 64.1293C201.029 64.1293 204.595 61.5229 211.385 60.4941L211.454 60.8371C204.732 61.7973 201.166 64.4036 201.166 64.4036Z" fill="#FFBC50"/>
<path d="M200.412 82.8535L200.274 82.5106C200.412 82.442 211.523 77.4351 220.233 75.6519L220.302 75.9948C211.66 77.7781 200.549 82.7849 200.412 82.8535Z" fill="#FFBC50"/>
<path d="M171.262 41.701C169.547 41.5639 167.901 41.2895 166.186 41.0152C164.472 40.7408 162.826 40.4665 161.18 40.1921C159.533 39.8492 157.819 39.5748 156.173 39.2319L153.704 38.6832C152.88 38.4774 152.057 38.2717 151.234 38.0659C152.057 38.1345 152.949 38.2717 153.772 38.3403L156.31 38.6832C158.024 38.9576 159.671 39.2319 161.317 39.5062C162.963 39.8492 164.677 40.1235 166.324 40.4665C167.901 40.878 169.616 41.2209 171.262 41.701Z" fill="#EE9A04"/>
<path d="M178.257 31.5501C176.817 30.5899 175.377 29.561 173.936 28.4637C172.496 27.4348 171.124 26.3375 169.752 25.2401C168.381 24.1427 167.009 23.0453 165.637 21.8793L163.648 20.1646C162.962 19.5473 162.345 18.9986 161.659 18.3813C162.414 18.8615 163.1 19.4102 163.854 19.8903L165.98 21.4678C167.42 22.4966 168.792 23.594 170.164 24.6914C171.536 25.7888 172.907 26.8861 174.279 28.0521C175.582 29.2181 176.954 30.3841 178.257 31.5501Z" fill="#EE9A04"/>
<path d="M191.838 23.0455C191.015 21.1936 190.261 19.2732 189.575 17.3528C188.82 15.4323 188.134 13.5119 187.449 11.5914C186.763 9.67101 186.145 7.75057 185.528 5.83013L184.637 2.88089C184.362 1.92067 184.019 0.960447 183.813 -0.0683594C184.225 0.89186 184.568 1.78349 184.979 2.74371L186.077 5.62437C186.831 7.54481 187.517 9.46525 188.203 11.3857C188.889 13.3061 189.506 15.2266 190.123 17.147C190.672 19.136 191.289 21.1251 191.838 23.0455Z" fill="#EE9A04"/>
<path d="M207.339 23.0454C207.476 21.3993 207.613 19.7532 207.819 18.1071C208.025 16.461 208.231 14.8149 208.505 13.1688C208.779 11.5227 208.985 9.87665 209.328 8.29914L209.808 5.8986C210.014 5.07555 210.151 4.25251 210.357 3.49805C210.288 4.32109 210.22 5.14414 210.151 5.96718L209.877 8.43632C209.671 10.0824 209.465 11.7285 209.191 13.3746C208.916 15.0207 208.711 16.6668 208.368 18.2443C208.093 19.8218 207.75 21.4679 207.339 23.0454Z" fill="#EE9A04"/>
<path d="M219.342 27.2981C220.371 26.0635 221.468 24.8975 222.565 23.7315C223.663 22.5655 224.76 21.4681 225.926 20.3022C227.092 19.2048 228.19 18.1074 229.356 17.01L231.139 15.4325C231.756 14.8838 232.305 14.4037 232.991 13.855C232.511 14.4723 231.962 15.021 231.413 15.6382L229.767 17.3529C228.67 18.5189 227.572 19.6163 226.406 20.7823C225.24 21.8797 224.143 22.9771 222.977 24.0745C221.811 25.2404 220.576 26.3378 219.342 27.2981Z" fill="#EE9A04"/>
<path d="M326.132 196.639L332.236 188.134L342.661 207.956C342.661 207.956 334.431 210.082 330.864 193.69L328.944 200.411" fill="#C4461A"/>
<path d="M321.743 199.931L325.926 195.13C325.926 195.13 330.042 197.874 330.728 201.029C331.413 204.184 321.674 212.551 321.674 212.551L317.49 206.516" fill="#657F67"/>
<path d="M332.922 197.599L339.163 188.134L352.401 208.505C352.401 208.505 341.29 209.328 338.752 194.033L334.979 201.577" fill="#D2551F"/>
<path d="M315.501 170.988C315.501 170.988 322.36 175.172 324.692 184.842C327.092 194.513 317.284 222.154 317.284 222.154L315.501 217.216L332.031 196.571C332.031 196.571 335.186 195.816 336.489 198.628C334.431 209.602 320.165 235.185 311.043 235.94C302.881 221.674 300.618 193.416 300.275 189.095C303.361 183.882 305.693 182.716 305.693 182.716L315.776 214.403L311.455 231.482C311.455 231.482 305.693 236.214 302.675 237.106C297.326 231.619 290.467 200.96 289.85 177.229C289.232 153.498 303.43 170.919 303.43 170.919" fill="#7C96AB"/>
<path d="M311.043 236.214C310.974 236.214 310.905 236.145 310.837 236.077C303.498 223.319 300.823 199.108 300 189.3V189.163C300 189.094 300 189.094 300 189.026C303.086 183.813 305.418 182.579 305.556 182.579C305.624 182.51 305.761 182.579 305.83 182.647C305.898 182.716 305.83 182.853 305.761 182.922C305.761 182.922 303.429 184.156 300.412 189.163V189.232C301.235 199.04 303.909 223.114 311.18 235.871C311.248 235.939 311.18 236.077 311.111 236.145C311.111 236.214 311.043 236.214 311.043 236.214Z" fill="#5B725D"/>
<path d="M315.501 217.489C315.432 217.489 315.432 217.489 315.363 217.421C315.295 217.352 315.226 217.215 315.363 217.146L321.673 209.259C321.742 209.19 321.879 209.122 321.948 209.259C322.016 209.327 322.085 209.465 321.948 209.533L315.638 217.421C315.569 217.421 315.569 217.489 315.501 217.489Z" fill="#5B725D"/>
<path d="M300.206 189.369C297.874 188.82 294.719 185.459 294.582 185.254C294.513 185.185 294.513 185.048 294.582 184.979C294.65 184.911 294.787 184.911 294.856 184.979C294.856 184.979 298.011 188.409 300.206 188.957C300.343 188.957 300.412 189.094 300.343 189.232C300.412 189.3 300.343 189.369 300.206 189.369Z" fill="#5B725D"/>
<path d="M298.217 133.128L282.236 71.4679C282.236 71.4679 283.471 69.1359 283.608 67.1469C283.745 65.1579 286.283 62.2086 286.283 62.2086C286.283 62.2086 284.911 61.0427 283.745 62.8259C282.511 64.6092 282.785 65.9123 282.785 65.9123L282.236 66.461L282.511 62.483C282.511 62.483 284.774 55.3499 285.117 54.5269C285.46 53.7038 284.705 53.9782 284.705 53.9782C284.705 53.9782 285.185 53.018 284.568 52.9494C283.951 52.8808 283.128 53.9782 283.128 53.9782C283.128 53.9782 282.373 53.7038 281.139 55.8986C279.904 58.162 279.493 59.6023 279.493 59.6023L279.699 54.1839C279.699 54.1839 278.601 54.5269 278.464 55.83C278.327 57.1332 278.464 62.0029 278.464 62.0029C278.464 62.0029 276.886 65.7752 277.298 68.5187C277.71 71.2621 280.316 71.6737 280.316 71.6737C280.316 71.6737 278.258 86.6942 279.699 90.6037C281.139 94.5132 282.716 94.9247 282.716 94.9247C282.716 94.9247 285.734 119.067 286.42 125.377C287.037 131.619 288.203 143.553 288.203 143.553" fill="#AD653D"/>
<path d="M322.36 133.128L324.143 137.311C325.035 136.831 325.995 136.283 326.955 135.665L326.681 134.225L327.435 135.322C328.19 134.842 328.944 134.294 329.63 133.745L327.229 130.658L330.11 133.402C331.482 132.305 332.785 131.07 333.951 129.835C332.716 129.081 331.002 127.915 329.973 126.68C331.276 127.572 332.991 128.464 334.568 129.218C336.146 127.366 337.449 125.377 338.135 123.32C335.528 123.663 328.395 120.233 324.212 114.403C320.028 108.642 318.313 94.7874 314.404 92.2497C310.426 89.7805 290.741 88.4088 289.575 92.5926C288.409 96.7764 291.221 104.733 291.221 104.733L300.823 120.302V135.254C300.823 135.254 311.523 140.878 317.147 140.055C318.519 139.849 320.371 139.232 322.291 138.34V133.128H322.36Z" fill="#2C1824"/>
<path d="M309.397 130.384L326.338 71.4678C326.338 71.4678 324.76 68.3128 325.24 64.8148C325.72 61.3169 322.84 57.4074 322.84 57.4074C322.84 57.4074 324.006 56.1043 325.446 57.8875C326.818 59.7394 326.406 61.5226 326.406 61.5226L327.298 62.1399L328.258 58.7106L331.55 52.0576C331.55 52.0576 332.648 53.3608 331.619 55.4184C330.59 57.476 329.355 59.3278 329.355 59.3278L328.875 61.2483H329.561L334.774 53.3608C334.774 53.3608 336.146 53.9095 334.705 56.3786C333.265 58.8477 330.727 61.797 330.727 61.797L336.488 57.3388C336.488 57.3388 337.86 57.8189 337.037 58.9163C336.146 60.0137 331.55 62.4829 331.55 62.4829L335.391 61.1111L337.311 65.0206C337.311 65.0206 334.842 65.6379 334.568 62.6886C332.716 63.3059 332.167 63.786 332.167 63.786C332.167 63.786 332.648 66.6667 332.236 68.93C331.825 71.1934 329.012 72.2908 329.012 72.2908C329.012 72.2908 329.767 97.668 322.977 102.195L318.176 150.343L313.718 153.841L305.967 148.834L303.498 143.004" fill="#BF7D51"/>
<path d="M292.593 135.803C292.593 135.803 283.608 142.113 283.06 146.708C282.58 151.372 289.301 177.298 289.301 177.298C289.301 177.298 313.65 177.298 318.862 169.136C318.862 169.136 317.696 154.87 318.176 150.275C313.787 152.469 305.899 145.542 307.202 138.958C308.506 132.442 309.397 130.247 309.397 130.247L307.408 130.864" fill="#D2551F"/>
<path d="M291.77 96.8451C291.77 96.8451 290.879 99.5885 289.918 104.252C288.958 108.916 289.507 109.602 283.608 109.259C285.049 110.631 287.244 112.346 287.244 112.346C287.244 112.346 286.695 120.919 287.861 122.085C289.027 123.251 299.726 123.8 299.726 123.8C299.726 123.8 298.492 129.287 297.737 130.864C297.051 132.442 292.593 135.871 292.593 135.871C292.593 135.871 287.861 140.604 289.918 141.907C291.976 143.21 303.979 134.979 307.34 131.07C305.488 123.663 306.791 112.346 306.791 112.346L295.405 96.1592" fill="#BF7D51"/>
<path d="M291.77 96.1593C291.77 96.1593 294.993 103.155 298.971 106.447C302.949 109.74 298.971 104.664 298.971 104.664C298.971 104.664 304.595 111.111 307.888 111.454C307.064 103.567 301.303 94.5818 301.303 94.5818L294.444 93.6216L291.77 96.1593Z" fill="#2C1824"/>
<path d="M305.076 113.374C305.076 113.374 307.202 110.014 309.466 110.288C311.661 110.562 310.975 121.468 305.076 118.175" fill="#BF7D51"/>
<path d="M289.301 116.392C289.301 116.392 292.387 115.089 295.817 114.883C294.994 122.085 292.593 123.525 289.301 116.392Z" fill="#2C1824"/>
<path d="M291.153 117.558L295.474 117.284C295.611 116.598 295.748 115.775 295.885 114.883C293.69 115.02 291.633 115.569 290.467 115.981L291.153 117.558Z" fill="#E5E5E5"/>
<path d="M305.625 116.735C305.556 116.735 305.488 116.667 305.419 116.598C305.35 116.461 305.419 116.392 305.488 116.324C305.899 116.118 306.585 115.706 306.585 115.432C306.585 115.295 306.379 115.226 306.242 115.158C306.174 115.158 306.173 115.089 306.105 115.021C306.105 114.952 306.105 114.883 306.105 114.883C306.859 113.169 307.614 112.346 308.3 112.346C309.054 112.346 309.466 113.306 309.466 113.306C309.534 113.443 309.466 113.512 309.329 113.58C309.191 113.649 309.123 113.58 309.054 113.443C309.054 113.443 308.78 112.757 308.3 112.757C308.025 112.757 307.408 113.032 306.516 114.883C306.791 115.021 306.859 115.226 306.928 115.432C306.928 116.049 305.831 116.598 305.625 116.735Z" fill="#AA5E33"/>
<path d="M287.86 112.689H287.792C287.655 112.689 287.586 112.62 287.586 112.483C287.586 112.346 287.723 112.277 287.792 112.277C287.997 112.277 288.272 112.277 288.409 112.071C288.546 111.866 288.478 111.591 288.478 111.591C288.478 111.454 288.478 111.385 288.615 111.317C288.752 111.317 288.821 111.317 288.889 111.454C288.889 111.454 289.026 111.934 288.752 112.346C288.546 112.551 288.272 112.689 287.86 112.689Z" fill="#AA5E33"/>
<path d="M286.832 112.071C286.763 112.071 286.626 112.071 286.489 111.934C286.42 111.865 286.351 111.797 286.42 111.728C286.489 111.66 286.557 111.591 286.626 111.66C286.832 111.728 286.9 111.728 286.9 111.728C287.106 111.66 287.174 111.248 287.174 111.042C287.174 110.974 287.243 110.905 287.38 110.905C287.449 110.905 287.517 110.974 287.517 111.111C287.517 111.18 287.449 111.865 287.037 112.071C286.969 112.003 286.9 112.071 286.832 112.071Z" fill="white"/>
<path d="M294.308 109.602C294.239 109.602 294.102 109.534 294.102 109.465C293.622 107.888 293.21 107.613 292.936 107.613C292.387 107.613 291.839 108.642 291.702 108.985C291.633 109.122 291.564 109.122 291.427 109.122C291.29 109.054 291.29 108.985 291.29 108.848C291.359 108.711 292.044 107.202 293.005 107.27C293.622 107.339 294.102 108.025 294.514 109.397C294.582 109.397 294.514 109.534 294.308 109.602Z" fill="#2C1824"/>
<path d="M291.77 104.047C291.77 104.047 294.513 98.9027 296.982 105.899Z" fill="#2C1824"/>
<path d="M312.894 140.741C312.757 140.741 312.688 140.672 312.688 140.535C312.688 135.939 314.815 132.373 314.815 132.373C314.883 132.304 315.02 132.236 315.089 132.304C315.158 132.373 315.226 132.51 315.158 132.579C315.158 132.579 313.1 136.008 313.1 140.535C313.1 140.603 313.031 140.741 312.894 140.741Z" fill="#AA5E33"/>
<path d="M299.726 123.731L303.429 124.074L298.217 129.492L299.726 123.731Z" fill="#AD653D"/>
<path d="M295.336 137.928C295.267 137.928 295.199 137.928 295.13 137.86C294.856 137.654 294.924 137.243 295.336 136.282L294.239 135.597C294.17 135.528 294.101 135.391 294.17 135.322C294.239 135.254 294.376 135.185 294.444 135.254L295.748 136.008C295.816 136.077 295.885 136.145 295.816 136.282C295.405 137.105 295.405 137.38 295.405 137.517C295.679 137.448 296.639 136.694 297.599 135.734L297.668 135.665L303.018 133.745C303.155 133.676 303.224 133.745 303.292 133.882C303.361 134.019 303.292 134.088 303.155 134.156L297.805 136.077C296.982 136.968 295.885 137.928 295.336 137.928Z" fill="#AA5E33"/>
<path d="M329.561 69.3416C329.424 69.273 329.356 69.2044 329.356 69.0672C330.59 65.0892 327.161 62.3457 327.092 62.2771C327.024 62.2085 326.955 62.0713 327.024 62.0028C327.092 61.9342 327.229 61.8656 327.298 61.9342C327.366 61.9342 331.002 64.8834 329.698 69.1358C329.767 69.273 329.63 69.3416 329.561 69.3416Z" fill="#AA5E33"/>
<path d="M332.099 63.9915C332.031 63.9915 331.962 63.9915 331.894 63.9229C331.894 63.9229 330.522 61.8653 328.533 61.6596C328.396 61.6596 328.327 61.5224 328.327 61.4538C328.327 61.3166 328.464 61.248 328.533 61.248C330.796 61.5224 332.168 63.6486 332.237 63.7172C332.305 63.7858 332.305 63.9229 332.168 63.9915C332.168 63.9229 332.168 63.9915 332.099 63.9915Z" fill="#AA5E33"/>
<path d="M279.63 70.4387C279.561 70.4387 279.424 70.3702 279.424 70.3016C278.806 67.4209 282.099 66.2549 282.167 66.2549C282.304 66.1863 282.373 66.2549 282.442 66.3921C282.51 66.5293 282.442 66.5979 282.304 66.6665C282.167 66.735 279.355 67.6953 279.835 70.233C279.904 70.3016 279.835 70.4387 279.63 70.4387C279.698 70.4387 279.698 70.4387 279.63 70.4387Z" fill="#914924"/>
<path d="M280.933 62.3457H280.865C280.728 62.2771 280.728 62.2085 280.728 62.0714C280.728 62.0714 281.208 60.974 282.511 57.6818C283.814 54.321 284.568 53.8409 284.637 53.8409C284.706 53.7723 284.843 53.8409 284.911 53.9095C284.98 53.9781 284.911 54.1153 284.843 54.1838C284.843 54.1838 284.088 54.7325 282.922 57.819C281.619 61.1797 281.139 62.2085 281.139 62.2085C281.07 62.2771 281.002 62.3457 280.933 62.3457Z" fill="#914924"/>
<path d="M279.904 62.3455C279.835 62.3455 279.835 62.3455 279.904 62.3455C279.767 62.3455 279.698 62.2083 279.698 62.0711C279.698 62.0711 280.247 59.602 281.07 57.6129C281.824 55.6925 282.99 53.8406 282.99 53.8406C283.059 53.7721 283.196 53.7035 283.265 53.7721C283.333 53.8406 283.402 53.9778 283.333 54.0464C283.333 54.0464 282.236 55.8297 281.413 57.7501C280.658 59.6706 280.11 62.0711 280.11 62.1397C280.041 62.2769 279.973 62.3455 279.904 62.3455Z" fill="#914924"/>
<path d="M282.237 62.757H282.168C280.865 62.2769 279.15 62.3455 279.15 62.3455C279.082 62.3455 279.013 62.3455 279.013 62.2769C278.944 62.2083 278.944 62.1397 278.944 62.1397C279.219 60.4251 279.287 59.6706 279.287 59.6706C279.287 59.5334 279.424 59.4648 279.493 59.4648C279.63 59.4648 279.699 59.602 279.699 59.6706C279.699 59.6706 279.63 60.3565 279.356 61.934C279.905 61.934 281.208 62.0026 282.305 62.4141C282.442 62.4827 282.442 62.5513 282.442 62.6884C282.442 62.757 282.305 62.757 282.237 62.757Z" fill="#914924"/>
<path d="M86.2829 89.3692L85.597 89.232C85.9399 87.7231 84.3624 85.4597 82.7849 84.4309C82.3734 85.3226 81.0703 86.6943 79.9043 86.6943C79.4928 86.6943 78.8755 86.5571 78.5325 85.5969C78.1896 84.7053 78.464 84.1566 78.7383 83.8822C79.4242 83.1278 80.7959 82.9906 81.8247 83.265C81.9619 83.3335 82.1677 83.3335 82.3048 83.4021C82.7164 81.2759 81.1388 79.3555 79.287 78.6696C79.1498 78.601 78.9441 78.5324 78.7383 78.5324C78.464 79.2869 77.9838 79.9728 77.4351 80.3843C76.5435 81.0016 74.8974 81.1388 74.0744 80.4529C73.8 80.1785 73.3885 79.5613 73.9372 78.4639C74.4859 77.4351 76.7493 77.5036 78.1896 77.778C78.3268 76.8178 78.121 75.8575 77.6409 75.1717C76.132 73.1826 73.4571 73.7999 71.9482 74.4172L71.6738 73.7999C74.4859 72.7025 76.8864 73.0455 78.1896 74.8287C78.8069 75.6518 79.0126 76.8178 78.8755 77.9152V77.9837C79.1498 78.0523 79.3556 78.1209 79.4928 78.1209C81.619 78.8754 83.4708 81.2759 82.9221 83.8137C84.8426 84.911 86.6944 87.5174 86.2829 89.3692ZM80.7959 83.8137C80.1786 83.8137 79.5613 83.9508 79.2184 84.2938C79.0126 84.5681 78.9441 84.911 79.1498 85.3226C79.3556 85.8713 79.6299 85.9399 79.8357 85.9399C80.6587 85.9399 81.7561 84.7739 82.0991 84.0194C81.9619 83.9508 81.7561 83.8822 81.619 83.8822C81.4132 83.8822 81.1389 83.8137 80.7959 83.8137ZM76.4063 78.3267C75.5833 78.3267 74.8288 78.4639 74.6231 78.8068C74.3487 79.3555 74.3487 79.6984 74.6231 79.9728C75.1032 80.3843 76.4063 80.3843 77.1608 79.9042C77.6409 79.5613 77.9838 79.0811 78.1896 78.5324C77.6409 78.3267 76.955 78.3267 76.4063 78.3267Z" fill="#EE9A04"/>
<path d="M148.834 188.752C148.834 188.752 148.697 185.666 148.834 185.391C149.177 184.431 149.52 184.225 150 184.02C150.206 183.951 150.412 183.814 150.686 183.539C151.372 182.785 151.784 182.785 152.058 182.785C152.058 182.579 152.127 182.099 152.127 181.893C152.127 181.276 151.852 180.727 151.509 180.11C151.166 179.424 150.755 178.738 150.755 177.915V177.71L150.892 177.572C152.812 176.338 156.036 176.475 157.888 177.778L157.476 178.327C155.899 177.161 153.155 177.024 151.441 177.984C151.509 178.601 151.784 179.081 152.127 179.699C152.47 180.384 152.881 181.07 152.812 181.825C152.812 182.991 152.744 183.402 152.127 183.402C151.989 183.402 151.715 183.402 151.166 183.951C150.823 184.362 150.48 184.5 150.206 184.568C149.863 184.705 149.657 184.774 149.383 185.597C149.383 185.803 149.452 188.478 149.452 188.683L148.834 188.752Z" fill="#EE9A04"/>
<path d="M264.198 189.918L263.512 189.781C263.718 188.821 263.649 188.135 263.306 187.655C262.895 187.106 262.003 186.969 260.906 186.832C260.426 186.763 259.877 186.695 259.328 186.558L259.054 186.489V186.215C259.123 185.666 259.26 185.049 259.397 184.431C259.74 182.991 260.083 181.688 259.123 180.728C257.202 178.876 253.499 180.042 251.715 181.619L251.304 181.071C253.293 179.356 257.477 178.053 259.671 180.248C260.975 181.551 260.563 183.197 260.151 184.637C260.014 185.117 259.877 185.597 259.877 186.009C260.289 186.077 260.7 186.146 261.112 186.215C262.278 186.352 263.375 186.489 263.924 187.312C264.335 187.861 264.472 188.752 264.198 189.918Z" fill="#EE9A04"/>
<path d="M357.957 162.758C356.448 162.483 356.105 161.66 356.037 161.112C355.899 160.151 356.517 158.985 357.477 158.094C356.654 157.202 356.242 155.899 356.517 154.664C356.791 153.636 358.163 151.921 359.672 150.961C359.672 150.892 359.672 150.824 359.672 150.686C359.603 148.972 360.632 147.463 362.278 146.708C364.198 145.817 366.53 146.023 367.971 147.326L367.491 147.806C366.256 146.708 364.198 146.503 362.484 147.257C361.043 147.943 360.289 149.109 360.289 150.549C360.632 150.412 360.975 150.275 361.318 150.206C362.278 150.001 363.032 150.343 363.581 151.029C363.993 151.578 363.993 152.195 363.65 152.675C363.17 153.361 362.141 153.636 361.318 153.361C360.906 153.224 360.152 152.881 359.809 151.647C358.506 152.538 357.34 153.979 357.134 154.802C356.86 155.83 357.203 156.928 357.957 157.682C358.231 157.545 358.437 157.408 358.712 157.271C359.946 156.722 361.043 156.996 361.867 157.957L362.072 158.231L361.798 158.437C360.632 159.328 359.26 159.397 358.094 158.711C358.026 158.711 358.026 158.643 357.957 158.643C357.134 159.328 356.517 160.357 356.654 161.112C356.722 161.66 357.134 162.003 357.957 162.14V162.758ZM358.643 158.162C359.466 158.643 360.358 158.643 361.181 158.094C360.495 157.477 359.672 157.614 359.123 157.888C358.986 157.957 358.78 158.094 358.643 158.162ZM360.563 151.304C360.701 152.058 361.112 152.607 361.661 152.744C362.278 152.95 362.964 152.675 363.238 152.264C363.444 151.99 363.444 151.715 363.17 151.372C362.827 150.824 362.278 150.686 361.592 150.824C361.249 150.961 360.906 151.098 360.563 151.304Z" fill="#EE9A04"/>
<path d="M366.324 86.8317L365.707 86.5574C366.53 84.4997 365.707 82.0306 364.335 80.5903C363.649 82.0992 362.003 82.8537 360.632 82.7165C359.328 82.5793 358.437 81.6191 358.3 80.2473V80.1102L358.437 79.973C360.151 78.3269 362.072 78.1211 363.855 79.2871C363.924 79.2871 363.924 79.3557 363.992 79.3557C364.13 78.6013 363.924 77.9154 363.512 77.2981C362.278 75.5834 359.26 74.9661 357.477 74.9661V74.2803C359.123 74.2803 362.552 74.829 364.061 76.8866C364.678 77.7096 364.815 78.7384 364.61 79.8358C366.256 81.4133 367.284 84.3626 366.324 86.8317ZM358.985 80.3159C359.123 81.2762 359.74 81.8934 360.7 82.0306C361.866 82.1678 363.306 81.4819 363.787 80.1102C363.649 80.0416 363.581 79.973 363.444 79.9044C362.621 79.2185 360.906 78.5327 358.985 80.3159Z" fill="#EE9A04"/>
<path d="M257.476 131.414C257.065 131.276 256.516 131.208 255.967 131.139C255.007 131.002 254.047 130.933 253.43 130.248C252.881 129.63 252.812 128.807 252.812 127.984C252.812 127.23 252.744 126.544 252.332 126.064C251.303 124.898 249.314 124.898 247.805 125.378L247.6 124.761C249.314 124.143 251.578 124.212 252.812 125.652C253.361 126.338 253.43 127.23 253.498 127.984C253.498 128.67 253.567 129.356 253.978 129.767C254.39 130.248 255.213 130.385 256.104 130.453C256.653 130.522 257.27 130.59 257.75 130.796L257.476 131.414Z" fill="#EE9A04"/>
<path d="M299.178 59.2597C298.766 59.2597 298.286 59.0539 297.737 58.711L298.149 58.1623C298.698 58.5738 299.109 58.711 299.452 58.5738C300.001 58.368 300.275 57.4078 300.481 56.5848C300.549 56.4476 300.549 56.3104 300.618 56.1733C300.138 54.9387 300.412 53.7727 301.372 52.8811L301.441 52.8125H301.51C303.087 52.3324 304.665 52.401 306.242 52.8811L306.036 53.5669C304.596 53.1554 303.156 53.0868 301.715 53.4984C300.961 54.2528 300.824 55.0759 301.235 56.1047L301.304 56.2418L301.235 56.379C301.167 56.5162 301.167 56.7219 301.098 56.8591C300.824 57.8193 300.481 58.9853 299.589 59.2597C299.521 59.1911 299.315 59.2597 299.178 59.2597Z" fill="#EE9A04"/>
<path d="M256.311 259.123C254.39 259.123 253.979 258.094 253.499 256.791C253.362 256.516 253.293 256.173 253.156 255.83C252.95 255.419 252.881 255.007 252.813 254.733C252.676 253.979 252.539 253.498 251.441 253.155C250.138 252.744 248.629 253.704 247.943 254.802L247.395 254.459C248.286 253.087 250.069 252.058 251.716 252.538C253.156 253.018 253.362 253.773 253.499 254.596C253.567 254.939 253.636 255.282 253.773 255.625C253.91 255.968 254.047 256.311 254.116 256.585C254.665 258.094 254.871 258.711 257.202 258.437L257.271 259.123C256.997 259.123 256.654 259.123 256.311 259.123Z" fill="#EE9A04"/>
<path d="M28.0525 263.581C27.7095 263.581 27.3666 263.512 26.9551 263.443L27.0923 262.757C27.9153 262.963 28.5326 262.895 28.8069 262.62C29.4242 262.072 29.2185 260.563 29.0127 259.122C28.8069 257.27 28.5326 255.35 29.6986 254.458C30.5902 253.773 32.0991 253.841 34.4997 254.801L34.2253 255.419C32.1677 254.596 30.7274 254.458 30.1101 255.007C29.287 255.624 29.4928 257.339 29.6986 258.985C29.9043 260.7 30.1101 262.346 29.2185 263.1C29.0127 263.443 28.6012 263.581 28.0525 263.581Z" fill="#EE9A04"/>
<path d="M83.5399 274.212C82.9227 274.212 82.374 273.937 81.9624 273.389C81.0022 272.086 81.1394 269.685 82.2368 267.97C82.8541 267.01 84.363 265.501 87.1751 266.05L87.0379 266.736C84.6373 266.187 83.3342 267.49 82.7855 268.313C81.7567 269.891 81.7567 272.017 82.4425 272.909C82.7855 273.389 83.2656 273.526 83.9515 273.389C84.5002 273.252 84.8431 272.977 84.9117 272.634C84.9117 272.429 84.8431 272.223 84.6373 272.086C84.2944 271.88 83.7457 271.948 83.197 272.36L82.7855 271.811C83.5399 271.263 84.363 271.125 84.9803 271.468C85.3918 271.743 85.6661 272.223 85.5976 272.703C85.529 272.977 85.3232 273.732 84.1572 274.006C84.0201 274.143 83.7457 274.212 83.5399 274.212Z" fill="#EE9A04"/>
<path d="M368.794 264.335C368.725 264.335 368.657 264.335 368.588 264.335C367.285 264.129 367.079 264.129 366.805 263.649C366.736 263.512 366.599 263.306 366.187 262.895C365.57 262.346 365.296 261.797 365.021 261.454C364.678 260.768 364.541 260.563 361.935 261.111C360.495 261.386 358.917 262.346 357.82 263.1L357.408 262.552C359.054 261.386 360.495 260.7 361.729 260.425C364.473 259.877 364.953 260.083 365.502 261.111C365.707 261.454 365.913 261.866 366.462 262.346C367.01 262.826 367.148 263.1 367.216 263.306L367.285 263.375C367.353 263.443 368.039 263.512 368.451 263.58C368.794 263.649 369.205 263.443 369.617 263.306C370.234 263.1 370.851 262.895 371.537 262.963L371.469 263.649C370.988 263.58 370.44 263.786 369.891 263.992C369.617 264.198 369.205 264.335 368.794 264.335Z" fill="#EE9A04"/>
<path d="M391.839 207.888C391.496 207.888 391.015 207.751 390.467 207.408L390.81 206.859C391.976 207.614 392.319 207.134 393.073 206.173L393.21 205.968C394.033 204.87 394.033 204.116 394.102 203.567C394.102 203.224 394.102 202.881 394.376 202.676C394.788 202.333 395.542 202.401 398.08 202.676L398.011 203.361C396.845 203.224 395.062 203.018 394.856 203.224C394.856 203.224 394.856 203.499 394.788 203.636C394.788 204.184 394.788 205.145 393.759 206.448L393.622 206.654C393.21 207.202 392.662 207.888 391.839 207.888Z" fill="#EE9A04"/>
<path d="M15.5012 147.943C15.2954 147.12 14.9525 146.708 14.6781 146.297C14.2666 145.748 13.8551 145.199 13.9237 143.69C13.9237 143.21 14.0608 142.661 14.198 142.181C14.4724 141.015 14.7467 139.918 13.7865 139.232C12.9634 138.615 11.4545 138.821 10.4943 139.369L10.1514 138.821C11.3173 138.135 13.032 137.86 14.198 138.683C15.5012 139.712 15.1582 141.152 14.8153 142.387C14.6781 142.867 14.5409 143.347 14.5409 143.759C14.5409 145.062 14.8153 145.473 15.1582 145.954C15.4326 146.365 15.8441 146.845 16.1184 147.805L15.5012 147.943Z" fill="#EE9A04"/>
<path d="M151.646 74.2117L151.097 73.8001C151.372 73.3886 151.509 73.0457 151.44 72.7713C151.303 72.2912 150.617 71.9483 149.931 71.6739C149.314 71.3996 148.628 71.0567 148.285 70.6451C147.736 69.8907 148.011 68.8619 148.216 67.9017C148.422 67.0786 148.628 66.2556 148.285 65.7755C147.462 64.8152 145.404 65.1582 144.17 65.7755L143.896 65.1582C145.267 64.5409 147.805 63.9922 148.834 65.3639C149.451 66.1184 149.177 67.0786 148.902 68.0388C148.697 68.8619 148.491 69.6849 148.834 70.165C149.04 70.508 149.657 70.7823 150.206 70.9881C151.029 71.3996 151.92 71.7425 152.126 72.5656C152.195 73.1143 152.057 73.663 151.646 74.2117Z" fill="#D2551F"/>
<path d="M252.881 100.206C252.332 98.6969 253.292 96.2277 254.527 95.0618C253.91 93.8958 254.115 92.1125 255.075 91.0151C255.624 90.3292 257.27 89.0261 260.494 90.7408L260.151 91.3581C258.162 90.2607 256.516 90.3292 255.556 91.4266C254.801 92.3183 254.664 93.69 255.075 94.5816C255.213 94.5131 255.281 94.4445 255.418 94.3759C255.83 94.2387 256.79 93.9644 257.545 95.3361L257.682 95.6104L257.407 95.7476C256.447 96.2277 255.556 96.1591 255.007 95.4733C253.978 96.5707 253.155 98.6283 253.635 99.8629L252.881 100.206ZM255.418 95.1989C255.83 95.5419 256.241 95.5419 256.653 95.4047C256.241 94.856 255.899 94.9246 255.624 95.0618C255.556 95.0618 255.487 95.1303 255.418 95.1989Z" fill="#D2551F"/>
<path d="M134.362 226.68C134.088 226.68 133.745 226.543 133.471 226.063C132.922 225.24 132.853 223.594 133.128 222.497C132.236 222.359 131.413 222.634 130.521 222.908C129.081 223.32 127.641 223.8 126.612 221.948C126.338 221.399 126.406 220.713 126.543 220.028C126.68 219.273 126.749 218.45 126.406 218.038C125.446 216.873 123.731 217.353 122.154 217.696C121.742 217.764 121.399 217.901 120.988 217.97L120.851 217.284C121.194 217.215 121.536 217.147 121.948 217.01C123.594 216.598 125.652 216.118 126.886 217.558C127.504 218.244 127.366 219.273 127.229 220.096C127.161 220.713 127.023 221.262 127.229 221.605C127.984 222.908 128.875 222.702 130.384 222.222C131.344 221.948 132.51 221.605 133.676 221.879L134.019 221.948L133.882 222.291C133.539 223.388 133.608 224.966 134.019 225.652C134.225 225.926 134.362 225.926 134.431 225.926L134.362 226.68Z" fill="#D2551F"/>
<path d="M275.377 238.272C274.417 235.665 275.789 234.5 277.435 233.128C276.955 232.305 276.886 231.413 277.298 230.453C277.915 229.013 279.561 227.915 281.276 227.709C282.647 227.572 283.813 228.052 284.499 229.15L283.95 229.561C283.196 228.464 282.099 228.327 281.344 228.464C279.904 228.601 278.464 229.561 277.915 230.796C277.709 231.345 277.503 232.168 278.189 233.059L278.395 233.334L278.052 233.608C276.406 234.98 275.308 235.871 276.132 238.066L275.377 238.272Z" fill="#D2551F"/>
<path d="M227.023 272.771C225.583 272.154 225.171 271.262 225.102 270.576C225.034 270.028 225.171 269.479 225.377 268.93C225.102 268.519 224.76 268.039 224.417 267.49C223.525 266.05 222.359 264.266 221.193 264.198C220.576 264.198 219.89 264.747 219.204 265.707L218.655 265.295C219.478 264.061 220.301 263.443 221.193 263.443C222.771 263.443 223.936 265.364 224.965 267.01C225.24 267.421 225.514 267.833 225.72 268.176C226.063 267.696 226.474 267.284 227.023 266.873C228.463 265.844 230.041 265.57 231.344 266.118L231.481 266.187L231.55 266.324C231.893 267.696 231.412 268.862 230.315 269.548C229.012 270.371 227.091 270.233 225.926 269.342C225.788 269.685 225.72 270.028 225.788 270.371C225.857 271.057 226.406 271.605 227.297 272.017L227.023 272.771ZM226.2 268.862C227.16 269.685 228.806 269.822 229.904 269.136C230.384 268.862 231.138 268.176 230.864 266.804C229.835 266.393 228.532 266.667 227.366 267.559C226.886 267.97 226.474 268.382 226.2 268.862Z" fill="#D2551F"/>
<path d="M396.845 249.451C396.159 249.04 395.679 248.423 395.199 247.874C394.856 247.462 394.513 247.051 394.033 246.708C393.759 246.502 393.622 246.571 393.279 246.708C392.867 246.914 392.25 247.188 391.564 246.365C391.221 245.954 391.29 245.405 391.358 244.856C391.427 244.033 391.496 243.484 390.878 243.21C389.987 242.799 388.958 243.759 388.066 244.445C387.792 244.65 387.586 244.856 387.38 244.993L386.969 244.445C387.175 244.307 387.38 244.102 387.586 243.896C388.546 243.073 389.781 241.975 391.084 242.524C392.181 243.004 392.044 244.033 391.976 244.856C391.907 245.268 391.907 245.748 392.044 245.885C392.387 246.296 392.524 246.228 392.936 246.022C393.279 245.885 393.827 245.611 394.445 246.091C394.925 246.502 395.336 246.914 395.679 247.394C396.159 247.943 396.571 248.423 397.188 248.766L396.845 249.451Z" fill="#D2551F"/>
<path d="M386.488 105.35C386.351 104.047 386.626 103.155 387.311 102.744C388.546 101.921 390.604 102.881 392.318 103.635C392.936 103.91 393.621 104.253 393.827 104.253C394.376 104.253 394.993 103.704 395.679 103.155C396.571 102.401 397.462 101.715 398.423 101.921C399.04 102.058 399.589 102.607 400.069 103.567L399.451 103.841C399.108 103.087 398.697 102.675 398.285 102.607C397.668 102.469 396.845 103.087 396.091 103.704C395.405 104.321 394.65 104.939 393.896 104.939C393.553 104.939 393.004 104.733 392.044 104.253C390.672 103.635 388.615 102.675 387.723 103.293C387.311 103.567 387.106 104.253 387.174 105.282L386.488 105.35Z" fill="#D2551F"/>
<path d="M354.458 193.553C353.361 193.553 352.469 193.073 351.989 192.113C351.577 191.29 351.44 190.261 351.577 189.232C351.097 189.026 350.686 188.683 350.343 188.34C349.245 187.174 348.765 185.528 349.04 183.951C349.245 182.579 350.068 181.413 351.303 180.796L351.646 181.413C350.617 181.962 349.931 182.854 349.725 184.088C349.52 185.46 349.931 186.9 350.891 187.929C351.166 188.203 351.44 188.409 351.783 188.615C351.92 188.066 352.195 187.586 352.537 187.174C353.223 186.351 354.184 186.146 355.212 186.557L355.35 186.626L355.418 186.832C355.83 188.615 355.075 189.301 354.527 189.575C353.909 189.918 353.018 189.918 352.195 189.644C352.126 190.467 352.195 191.29 352.537 191.907C352.88 192.524 353.566 193.21 354.938 193.004L355.007 193.69C354.869 193.485 354.664 193.553 354.458 193.553ZM352.332 188.752C353.018 188.958 353.703 189.026 354.184 188.752C354.801 188.409 354.869 187.655 354.732 186.969C354.046 186.763 353.498 186.9 353.018 187.449C352.743 187.86 352.469 188.272 352.332 188.752Z" fill="#D2551F"/>
<path d="M147.531 157.339C146.983 156.242 146.16 156.242 145.062 156.173C144.239 156.173 143.279 156.173 142.524 155.419C141.701 154.664 141.701 153.635 141.701 152.675C141.701 151.715 141.701 150.755 140.81 150.069C140.124 149.589 139.369 149.589 138.821 149.657C137.723 149.794 136.626 150.48 136.009 151.303L135.46 150.892C136.146 149.932 137.449 149.177 138.684 148.971C139.644 148.834 140.535 148.971 141.221 149.52C142.387 150.343 142.387 151.578 142.387 152.675C142.387 153.567 142.387 154.39 143.005 154.938C143.622 155.487 144.308 155.487 145.131 155.487C146.228 155.487 147.394 155.556 148.149 156.996L147.531 157.339Z" fill="#D2551F"/>
<path d="M109.74 184.362L109.054 184.294C109.191 182.785 109.877 181.55 111.043 180.521C111.043 180.453 110.974 180.315 110.974 180.247C110.494 178.669 109.877 176.406 110.906 175.514C111.454 175.034 112.346 175.034 113.649 175.514L113.375 176.132C112.689 175.857 111.729 175.652 111.317 175.994C110.631 176.612 111.248 178.738 111.591 180.041C111.66 180.247 111.729 180.384 111.729 180.59L111.797 180.796L111.591 180.933C110.494 181.893 109.877 183.059 109.74 184.362Z" fill="#D2551F"/>
<path d="M154.526 118.313C152.469 118.313 151.714 117.01 151.44 116.255C151.097 115.295 151.166 114.061 151.508 113.032C151.234 112.826 151.097 112.689 150.96 112.552C150.068 111.729 149.657 110.768 149.314 109.808C148.902 108.711 148.491 107.682 147.188 106.996L147.53 106.379C149.039 107.202 149.519 108.368 149.931 109.534C150.274 110.426 150.617 111.317 151.44 112.003C151.577 112.14 151.714 112.209 151.851 112.346C152.126 111.866 152.4 111.523 152.743 111.249C153.223 110.906 154.115 110.563 155.281 111.523L155.349 111.592V111.729C155.487 112.826 155.281 113.512 154.732 113.855C154.046 114.266 152.949 113.855 152.126 113.306C151.851 114.129 151.851 115.089 152.126 115.913C152.4 116.736 153.155 117.696 155.006 117.559L155.075 118.244C154.801 118.313 154.663 118.313 154.526 118.313ZM152.332 112.757C153.086 113.238 153.978 113.512 154.389 113.306C154.732 113.1 154.732 112.552 154.663 112.003C154.115 111.523 153.566 111.523 153.086 111.866C152.743 112.072 152.537 112.415 152.332 112.757Z" fill="#D2551F"/>
<path d="M30.6584 228.464C30.1783 227.709 29.7668 226.955 29.3553 226.2C28.8066 226.269 28.3265 226.406 27.7778 226.612C27.2291 226.818 26.6804 227.023 25.9945 227.092H25.6516V226.749C25.5144 224.76 24.4856 223.114 23.251 222.771C22.2222 222.497 21.0562 223.114 19.9589 224.623L19.4102 224.211C21.1248 221.879 22.6338 221.948 23.4568 222.154C24.8971 222.565 25.9945 224.211 26.2689 226.338C26.6804 226.269 27.0919 226.132 27.5034 225.926C28.1207 225.72 28.738 225.446 29.4925 225.446H29.6982L29.7668 225.652C30.2469 226.475 30.727 227.298 31.2071 228.121L30.6584 228.464Z" fill="#D2551F"/>
<path d="M135.048 262.894L134.773 262.277C135.528 261.934 136.488 260.905 137.105 260.151L137.586 260.631C136.968 261.385 135.939 262.483 135.048 262.894Z" fill="#D2551F"/>
<path d="M83.6766 245.268C82.5106 244.376 81.276 243.69 79.9043 243.142L80.1786 242.524C81.619 243.073 82.9221 243.828 84.0881 244.788L83.6766 245.268Z" fill="#D2551F"/>
<path d="M234.294 216.941L233.745 216.598C234.774 214.815 236.557 213.238 238.135 211.797C238.615 211.317 239.095 210.906 239.575 210.494L240.055 210.974C239.644 211.386 239.095 211.866 238.615 212.277C237.037 213.649 235.254 215.227 234.294 216.941Z" fill="#D2551F"/>
<path d="M107.613 56.2416C105.899 55.5558 104.321 54.5955 102.881 53.4296L103.292 52.8809C104.664 53.9783 106.242 54.8699 107.888 55.5558L107.613 56.2416Z" fill="#D2551F"/>
<path d="M39.986 93.21L39.5059 92.7299C40.8776 91.221 41.975 89.4378 43.0724 87.6545C43.3467 87.243 43.5525 86.8314 43.8268 86.4199L44.3755 86.7629C44.1012 87.1744 43.8954 87.5859 43.6211 87.9974C42.5237 89.8493 41.3577 91.6325 39.986 93.21Z" fill="#D2551F"/>
</g>
<defs>
<clipPath id="clip0_439_15771">
<rect width="400" height="307.819" fill="white"/>
</clipPath>
</defs>
</svg>
