<svg width="32" height="32" viewBox="0 0 32 32" fill="none" xmlns="http://www.w3.org/2000/svg">
<path fill-rule="evenodd" clip-rule="evenodd" d="M11.4707 5.06534C12.0333 4.41631 12.729 3.89594 13.5105 3.53958C14.292 3.18321 15.1411 2.99919 16 3C17.8093 3 19.4307 3.8 20.5293 5.06534C21.3863 5.00415 22.2463 5.12811 23.0511 5.42881C23.8559 5.72951 24.5865 6.19989 25.1933 6.808C25.8012 7.41475 26.2714 8.14517 26.5721 8.94968C26.8728 9.75419 26.9969 10.614 26.936 11.4707C27.5848 12.0334 28.1049 12.7291 28.461 13.5107C28.8172 14.2922 29.001 15.1412 29 16C29.0008 16.8589 28.8168 17.708 28.4604 18.4895C28.1041 19.271 27.5837 19.9667 26.9347 20.5293C26.9956 21.386 26.8715 22.2458 26.5708 23.0503C26.2701 23.8548 25.7999 24.5853 25.192 25.192C24.5853 25.7999 23.8548 26.2701 23.0503 26.5708C22.2458 26.8715 21.386 26.9956 20.5293 26.9347C19.9667 27.5837 19.271 28.1041 18.4895 28.4604C17.708 28.8168 16.8589 29.0008 16 29C15.1411 29.0008 14.292 28.8168 13.5105 28.4604C12.729 28.1041 12.0333 27.5837 11.4707 26.9347C10.6138 26.996 9.75384 26.8723 8.94908 26.5718C8.14431 26.2713 7.41364 25.8012 6.80667 25.1933C6.19863 24.5864 5.72829 23.8558 5.4276 23.051C5.12691 22.2463 5.00291 21.3863 5.064 20.5293C4.41522 19.9666 3.8951 19.2709 3.53897 18.4893C3.18284 17.7078 2.99902 16.8588 3 16C3 14.1907 3.8 12.5693 5.06534 11.4707C5.00435 10.614 5.12841 9.75415 5.4291 8.94963C5.72979 8.14511 6.20006 7.4147 6.808 6.808C7.4147 6.20006 8.14511 5.72979 8.94963 5.4291C9.75416 5.12841 10.614 5.00434 11.4707 5.06534ZM20.8133 13.5813C20.8933 13.4747 20.9512 13.3532 20.9836 13.2239C21.016 13.0946 21.0221 12.9602 21.0018 12.8285C20.9815 12.6968 20.935 12.5704 20.8651 12.4569C20.7953 12.3434 20.7034 12.245 20.595 12.1675C20.4866 12.09 20.3638 12.035 20.2337 12.0056C20.1037 11.9763 19.9692 11.9732 19.838 11.9966C19.7068 12.02 19.5816 12.0694 19.4697 12.1419C19.3579 12.2144 19.2616 12.3085 19.1867 12.4187L14.872 18.4587L12.7067 16.2933C12.5171 16.1167 12.2664 16.0205 12.0073 16.0251C11.7482 16.0297 11.5011 16.1346 11.3178 16.3178C11.1346 16.5011 11.0297 16.7482 11.0251 17.0073C11.0205 17.2664 11.1167 17.5171 11.2933 17.7067L14.2933 20.7067C14.396 20.8092 14.5197 20.8882 14.656 20.9382C14.7922 20.9881 14.9377 21.0078 15.0824 20.9959C15.227 20.984 15.3673 20.9407 15.4935 20.8691C15.6197 20.7975 15.7289 20.6993 15.8133 20.5813L20.8133 13.5813Z" fill="#0061F9"/>
</svg>
