<svg width="40" height="40" viewBox="0 0 40 40" fill="none" xmlns="http://www.w3.org/2000/svg">
<rect width="40" height="40" rx="20" fill="#C5DDFF"/>
<g clip-path="url(#clip0_3503_8046)">
<path d="M25.9587 16.3347C26.5688 15.815 27.0819 15.1662 27.5 14.4192V14.4185C26.9419 14.7117 26.3481 14.9067 25.7281 15.0012C26.3656 14.5445 26.8525 13.8267 27.0813 12.962C26.4869 13.3872 25.8306 13.6872 25.1312 13.8552C24.5669 13.1337 23.7625 12.6875 22.885 12.6875C21.1825 12.6875 19.8119 14.3457 19.8119 16.3782C19.8119 16.6707 19.8325 16.952 19.8831 17.2197C17.3269 17.0697 15.0644 15.5997 13.5444 13.3595C13.2794 13.9122 13.1231 14.5445 13.1231 15.2247C13.1231 16.5027 13.6713 17.6352 14.4894 18.2915C13.995 18.2802 13.5106 18.1077 13.1 17.837V17.8775C13.1 19.6707 14.1656 21.1602 15.5638 21.5037C15.3131 21.5862 15.0406 21.6252 14.7575 21.6252C14.5606 21.6252 14.3619 21.6117 14.1756 21.5622C14.5738 23.0232 15.705 24.098 17.0487 24.1332C16.0025 25.115 14.6738 25.7067 13.2356 25.7067C12.9838 25.7067 12.7419 25.6932 12.5 25.6565C13.8625 26.7102 15.4762 27.3125 17.2175 27.3125C22.6444 27.3125 26.1813 21.8795 25.9587 16.3347Z" fill="#001433"/>
</g>
<defs>
<clipPath id="clip0_3503_8046">
<rect width="15" height="18" fill="white" transform="translate(12.5 11)"/>
</clipPath>
</defs>
</svg>
