<svg width="32" height="32" viewBox="0 0 32 32" fill="none" xmlns="http://www.w3.org/2000/svg">
<path d="M24 2C27.8667 2 31 5.13333 31 9V14C31 14.2652 30.8946 14.5196 30.7071 14.7071C30.5196 14.8946 30.2652 15 30 15C29.7348 15 29.4804 14.8946 29.2929 14.7071C29.1054 14.5196 29 14.2652 29 14V9C29 7.67392 28.4732 6.40215 27.5355 5.46447C26.5979 4.52678 25.3261 4 24 4C22.6739 4 21.4021 4.52678 20.4645 5.46447C19.5268 6.40215 19 7.67392 19 9V13C20.0609 13 21.0783 13.4214 21.8284 14.1716C22.5786 14.9217 23 15.9391 23 17V26C23 27.0609 22.5786 28.0783 21.8284 28.8284C21.0783 29.5786 20.0609 30 19 30H5C3.93913 30 2.92172 29.5786 2.17157 28.8284C1.42143 28.0783 1 27.0609 1 26V17C1 15.9391 1.42143 14.9217 2.17157 14.1716C2.92172 13.4214 3.93913 13 5 13H17V9C17 5.13333 20.1333 2 24 2Z" fill="#0061F9"/>
</svg>
