<svg width="430" height="443" viewBox="0 0 430 443" fill="none" xmlns="http://www.w3.org/2000/svg">
<path d="M362.414 48.0799L353.93 54.3086L356.198 57.3984L364.682 51.1697L362.414 48.0799Z" fill="#FFA7A6"/>
<path d="M381.34 234.922L380.738 238.707L391.133 240.358L391.734 236.573L381.34 234.922Z" fill="#FFDAA6"/>
<path d="M409.969 298.296L400.547 302.986L402.255 306.418L411.677 301.728L409.969 298.296Z" fill="#8CC7FF"/>
<path d="M329.196 101.796L328.133 105.479L338.244 108.398L339.307 104.716L329.196 101.796Z" fill="#FFDAA6"/>
<path d="M382.575 161.016L378.742 161.062L378.871 171.586L382.703 171.54L382.575 161.016Z" fill="#8CC7FF"/>
<path d="M419.901 110.935L418.242 114.391L427.732 118.945L429.39 115.489L419.901 110.935Z" fill="#9C5DA3"/>
<path d="M303.27 26.836L299.438 26.8828L299.566 37.4068L303.399 37.36L303.27 26.836Z" fill="#8CC7FF"/>
<path d="M333.203 262.812L327.164 271.432L330.303 273.631L336.343 265.011L333.203 262.812Z" fill="#9C5DA3"/>
<path d="M49.5848 48.0919L47.3164 51.1816L55.8006 57.4103L58.069 54.3206L49.5848 48.0919Z" fill="#FFA7A6"/>
<path d="M15.166 214.511L4.77148 216.162L5.37288 219.948L15.7674 218.296L15.166 214.511Z" fill="#FFDAA6"/>
<path d="M2.00681 298.262L0.298828 301.693L9.72083 306.383L11.4288 302.952L2.00681 298.262Z" fill="#8CC7FF"/>
<path d="M82.7735 101.782L72.6621 104.701L73.7254 108.384L83.8368 105.464L82.7735 101.782Z" fill="#FFDAA6"/>
<path d="M57.0425 173.197L56.9141 183.721L60.7467 183.767L60.8751 173.244L57.0425 173.197Z" fill="#8CC7FF"/>
<path d="M19.7559 123.122L10.2676 127.676L11.9261 131.131L21.4144 126.577L19.7559 123.122Z" fill="#9C5DA3"/>
<path d="M108.716 26.8413L108.588 37.3652L112.421 37.412L112.549 26.888L108.716 26.8413Z" fill="#8CC7FF"/>
<path d="M59.4244 255.707L56.2852 257.906L62.3244 266.526L65.4636 264.327L59.4244 255.707Z" fill="#9C5DA3"/>
<path d="M205.355 1.48438V22.9844" stroke="#57549B" stroke-width="2" stroke-miterlimit="10" stroke-linecap="round" stroke-linejoin="round"/>
<path d="M190.379 8.48438L197.534 22.9844" stroke="#57549B" stroke-width="2" stroke-miterlimit="10" stroke-linecap="round" stroke-linejoin="round"/>
<path d="M220.331 8.48438L213.176 22.9844" stroke="#57549B" stroke-width="2" stroke-miterlimit="10" stroke-linecap="round" stroke-linejoin="round"/>
<path d="M81.7708 374.771C81.7708 374.771 72.6918 388.712 71.3468 389.193C70.0008 389.674 62.9658 390.733 61.8218 392.644C60.3518 395.099 61.1278 393.903 59.6848 396.115C58.5678 397.827 54.7168 404.544 54.7168 404.544L55.4808 405.456C55.4808 405.456 62.4508 400.653 63.0978 400.499C63.7448 400.345 64.3238 403.352 63.7358 406.819C63.1478 410.286 62.4698 413.182 63.1208 414.577C63.7718 415.972 73.6688 424.237 74.7888 425.11C75.9078 425.983 76.8548 424.026 76.2168 422.491C75.5788 420.957 73.1408 415.885 73.1408 415.885C73.1408 415.885 76.4138 398.787 76.7508 396.953C77.0878 395.119 90.7268 381.755 90.7268 381.755L81.7708 374.771Z" fill="#BE6553"/>
<path d="M74.7868 425.111C73.6679 424.238 63.7699 415.973 63.1189 414.578C62.4679 413.183 63.1458 410.287 63.7338 406.82C64.3218 403.353 63.7428 400.346 63.0958 400.5C62.4488 400.654 55.4788 405.457 55.4788 405.457L54.7148 404.545C54.7148 404.545 58.5658 397.828 59.6828 396.116C61.1258 393.904 60.3498 395.1 61.8198 392.645C62.7048 391.167 67.1009 390.201 69.6758 389.615C70.0978 390.496 70.5148 392.134 70.3948 395.162C70.1678 400.913 67.9138 408.104 69.3699 411.541C70.8258 414.978 73.1388 415.886 73.1388 415.886C73.1388 415.886 75.5758 420.958 76.2148 422.492C76.8538 424.027 75.9058 425.984 74.7868 425.111Z" fill="#F2D5CF"/>
<path d="M82.2393 319.833C82.2393 319.833 65.6112 319.306 64.5012 318.405C63.3923 317.504 58.8363 312.04 56.6083 312.053C53.7463 312.07 55.1722 312.113 52.5322 312.027C50.4892 311.961 42.7493 312.154 42.7493 312.154L42.3662 313.28C42.3662 313.28 50.0892 316.746 50.5562 317.219C51.0232 317.692 48.7533 319.747 45.4843 321.044C42.2153 322.34 39.3872 323.263 38.5332 324.543C37.6782 325.823 35.7483 338.572 35.5833 339.982C35.4173 341.392 37.5823 341.186 38.5623 339.844C39.5423 338.502 42.6132 333.787 42.6132 333.787C42.6132 333.787 58.9272 327.714 60.6702 327.05C62.4132 326.386 80.9133 331.111 80.9133 331.111L82.2393 319.833Z" fill="#BE6553"/>
<path d="M35.5831 339.984C35.7491 338.574 37.6791 325.825 38.5331 324.545C39.3881 323.265 42.2151 322.342 45.4841 321.046C48.7531 319.75 51.0231 317.694 50.5561 317.221C50.0891 316.748 42.3661 313.282 42.3661 313.282L42.7491 312.156C42.7491 312.156 50.4891 311.963 52.5321 312.029C55.1721 312.115 53.7462 312.072 56.6082 312.055C58.3302 312.045 61.4372 315.301 63.2742 317.199C62.7402 318.016 61.5551 319.223 58.9051 320.692C53.8711 323.482 46.5542 325.286 44.3722 328.314C42.1902 331.342 42.6131 333.79 42.6131 333.79C42.6131 333.79 39.5422 338.505 38.5622 339.847C37.5822 341.189 35.4181 341.394 35.5831 339.984Z" fill="#F2D5CF"/>
<path d="M145.122 318.527C148.901 296.52 153.005 255.632 152.629 248.461C152.129 238.937 148.998 213.479 148.998 213.479H109.615C109.615 213.479 97.5196 233.949 95.9266 239.805C94.3336 245.66 95.1106 256.234 99.8696 267.484C104.629 278.734 121.045 313.234 120.462 314.734C119.879 316.234 73.6286 318.734 71.8786 319.984C70.1286 321.234 66.1286 328.484 69.3786 330.484C70.8966 331.418 85.8716 334.372 101.849 337.203C92.9406 351.712 76.8076 380.182 74.8786 384.234C72.3786 389.484 78.6286 396.484 81.1286 394.234C83.0626 392.494 115.806 359.495 132.414 342.206C137.482 342.932 141.036 343.339 141.957 343.234C146.379 342.734 147.879 336.484 147.379 332.734C147.243 331.712 146.41 326.237 145.122 318.527Z" fill="#57549B"/>
<path d="M132.415 342.204C124.523 341.073 112.944 339.166 101.85 337.201" stroke="#434182" stroke-miterlimit="10" stroke-linecap="round" stroke-linejoin="round"/>
<path d="M145.121 318.526C142.291 301.587 135.744 268.598 131.035 253.509C131.035 253.509 135.778 252.484 138.078 250.734C140.378 248.984 148.997 236.234 148.997 236.234" stroke="#434182" stroke-miterlimit="10" stroke-linecap="round" stroke-linejoin="round"/>
<path d="M137.954 213.477C137.954 213.477 140.333 236.875 134.355 252.554" stroke="#434182" stroke-miterlimit="10" stroke-linecap="round" stroke-linejoin="round"/>
<path d="M112.129 213.477C112.129 213.477 101.57 235.733 101.849 244.733C102.128 253.733 125.126 316.568 125.502 318.526C125.878 320.483 127.438 324.233 126.658 324.983C125.878 325.733 122.357 321.233 121.618 321.733C120.878 322.233 122.608 326.483 121.618 326.483C120.628 326.483 69.3359 323.584 69.3359 323.584" stroke="#434182" stroke-miterlimit="10" stroke-linecap="round" stroke-linejoin="round" stroke-dasharray="4 3"/>
<path d="M121.619 318.525C121.619 318.525 125.353 327.232 131.366 330.482" stroke="#434182" stroke-miterlimit="10" stroke-linecap="round" stroke-linejoin="round"/>
<path d="M109.615 338.553L74.7852 389.517" stroke="#434182" stroke-miterlimit="10" stroke-linecap="round" stroke-linejoin="round" stroke-dasharray="4 3"/>
<path d="M191.628 209.732C191.628 209.732 147.11 199.553 99.8691 213.476C99.8691 213.476 105.152 154.732 111.223 152.232C117.295 149.732 150.597 132.781 157.279 135.59C163.961 138.399 191.628 209.732 191.628 209.732Z" fill="#E2BDB4"/>
<path d="M112.753 91.8575C112.753 91.8575 104.128 95.7805 104.878 100.82C105.628 105.858 113.253 115.813 114.253 122.086C115.253 128.358 115.33 138.983 122.729 139.608C130.128 140.233 130.253 133.532 137.128 131.008C144.003 128.483 151.003 127.48 160.628 119.167C169.465 111.535 169.253 100.233 166.503 96.8575C163.753 93.4825 158.378 97.8995 156.878 95.6495C155.378 93.3995 159.253 90.2325 159.378 81.9825C159.471 75.8165 153.378 69.9825 146.503 78.9825C146.503 78.9825 148.128 71.6075 144.628 65.3575C141.128 59.1075 141.125 63.5445 136.503 67.9825C131.295 72.9825 123.795 73.7325 117.878 80.7325C112.845 86.6875 112.753 91.8575 112.753 91.8575Z" fill="#37241E"/>
<path d="M157.514 76.3477C157.514 76.3477 156.815 87.6067 151.596 91.8567C146.377 96.1067 154.565 98.8567 151.596 102.357C148.627 105.857 141.332 107.633 140.479 107.633" stroke="#563D38" stroke-miterlimit="10" stroke-linecap="round" stroke-linejoin="round"/>
<path d="M153.759 74.3594C153.759 74.3594 155.72 85.2914 152.859 90.5924" stroke="#563D38" stroke-miterlimit="10" stroke-linecap="round" stroke-linejoin="round"/>
<path d="M128.529 91.8566C128.529 91.8566 128.752 85.6066 132.877 81.4816C137.002 77.3566 137.789 81.7856 140.946 80.1066C144.002 78.4816 146.05 74.1356 145.901 68.3086" stroke="#563D38" stroke-miterlimit="10" stroke-linecap="round" stroke-linejoin="round"/>
<path d="M160.129 76.3496C160.129 76.3496 162.629 83.8586 160.754 89.2336C158.879 94.6086 160.129 94.1086 162.754 93.4836C165.379 92.8586 170.004 93.0316 169.754 100.821C169.504 108.609 159.129 117.401 159.129 117.401" stroke="#37241E" stroke-miterlimit="10" stroke-linecap="round" stroke-linejoin="round"/>
<path d="M159.129 180.733C159.129 180.733 165.514 172.983 164.446 167.233C163.379 161.483 157.515 152.233 157.515 152.233C157.515 152.233 154.566 141.065 151.597 139.649C148.628 138.233 140.947 140.471 140.947 140.471C141.155 139.943 141.253 139.524 141.253 139.323C141.253 138.448 142.053 126.424 142.053 126.424L126.657 127.38C126.657 127.38 128.377 134.698 125.752 143.198C123.002 144.608 108.377 147.358 106.127 158.608C103.877 169.858 111.752 184.858 112.002 195.358C112.252 205.858 99.8766 225.733 98.2516 230.608C96.6266 235.483 117.46 241.733 133.544 239.233C149.627 236.733 154.467 227.233 155.172 223.983C155.877 220.733 152.344 203.483 152.86 201.233C153.379 198.983 158.879 184.233 159.129 180.733Z" fill="#BE6553"/>
<path d="M141.672 132.265C141.866 129.253 142.054 126.426 142.054 126.426L126.658 127.382C126.658 127.382 127.059 129.109 127.177 131.845C129.716 133.633 133.957 136.146 137.003 135.485C139.027 135.046 140.574 133.671 141.672 132.265Z" fill="#984233"/>
<path d="M108.004 153.919C107.138 155.292 106.481 156.845 106.129 158.607C103.879 169.857 111.754 184.857 112.004 195.357C112.254 205.857 99.8786 225.732 98.2536 230.607C96.6286 235.482 117.462 241.732 133.546 239.232C149.629 236.732 154.469 227.232 155.174 223.982C155.879 220.732 152.346 203.482 152.862 201.232C153.379 198.982 158.879 184.232 159.129 180.732C159.129 180.732 165.514 172.982 164.446 167.232C163.379 161.482 157.515 152.232 157.515 152.232C157.515 152.232 149.462 158.482 133.545 159.982C120.815 161.182 110.82 158.222 108.004 153.919Z" fill="white"/>
<path d="M148.997 176.232C148.997 176.232 142.583 183.732 134.355 185.482" stroke="#F2DED7" stroke-miterlimit="10" stroke-linecap="round" stroke-linejoin="round"/>
<path d="M153.641 176.232C153.641 176.232 151.212 178.7 145.912 180.857" stroke="#F2DED7" stroke-miterlimit="10" stroke-linecap="round" stroke-linejoin="round"/>
<path d="M147.379 203.232C146.629 203.482 136.934 206.232 128.531 209.732" stroke="#F2DED7" stroke-miterlimit="10" stroke-linecap="round" stroke-linejoin="round"/>
<path d="M125.754 143.198C125.754 143.198 132.379 150.067 138.171 148.9C143.963 147.733 140.948 140.471 140.948 140.471" stroke="#37241E" stroke-miterlimit="10" stroke-linecap="round" stroke-linejoin="round"/>
<path d="M103.269 158.25C104.554 152.853 108.934 149.401 112.461 146.9C117.162 143.567 122.729 142.733 124.015 143.872C125.301 145.011 134.647 166.733 135.721 174.233C136.795 181.733 123.989 216.95 120.628 223.9C117.267 230.85 105.961 247.233 101.628 248.4C97.295 249.567 75.961 233.233 75.461 230.233C74.961 227.233 79.128 212.233 82.128 209.733C85.128 207.233 100.461 200.066 102.128 196.733C103.795 193.4 102.436 161.75 103.269 158.25Z" fill="#F2D5CF"/>
<path d="M120.461 143.529C120.461 143.529 132.628 171.567 132.794 175.567C132.961 179.567 124.127 206.567 120.627 215.067C117.127 223.567 98.1621 247.642 98.1621 247.642" stroke="#E2BDB4" stroke-miterlimit="10" stroke-linecap="round" stroke-linejoin="round"/>
<path d="M130.722 177.39C130.722 178.029 130.204 178.546 129.566 178.546C128.928 178.546 128.41 178.028 128.41 177.39C128.41 176.751 128.928 176.234 129.566 176.234C130.204 176.234 130.722 176.751 130.722 177.39Z" fill="white"/>
<path d="M126.66 191.181C126.66 191.82 126.142 192.337 125.504 192.337C124.865 192.337 124.348 191.819 124.348 191.181C124.348 190.542 124.866 190.025 125.504 190.025C126.142 190.024 126.66 190.542 126.66 191.181Z" fill="white"/>
<path d="M116.636 217.234C116.636 217.873 116.118 218.39 115.48 218.39C114.841 218.39 114.324 217.872 114.324 217.234C114.324 216.596 114.842 216.078 115.48 216.078C116.119 216.078 116.636 216.596 116.636 217.234Z" fill="white"/>
<path d="M109.615 228.568C109.615 229.207 109.097 229.724 108.459 229.724C107.82 229.724 107.303 229.206 107.303 228.568C107.303 227.93 107.821 227.412 108.459 227.412C109.098 227.412 109.615 227.929 109.615 228.568Z" fill="white"/>
<path d="M122.775 204.172C122.775 204.811 122.257 205.328 121.619 205.328C120.98 205.328 120.463 204.81 120.463 204.172C120.463 203.534 120.981 203.016 121.619 203.016C122.257 203.016 122.775 203.533 122.775 204.172Z" fill="white"/>
<path d="M193.348 57.8666C193.348 57.8666 189.206 54.9546 188.616 50.1556C188.027 45.3576 186.07 40.5206 184.658 38.8426C183.245 37.1656 187.033 37.2606 189.041 41.1416C191.049 45.0216 192.203 44.4216 193.095 41.6256C193.988 38.8296 194.198 28.5496 196.128 28.0656C198.058 27.5816 196.485 38.4296 196.427 39.9796C196.369 41.5296 199.534 27.8876 201.336 26.9096C203.139 25.9316 200.426 38.5156 200.816 39.8516C201.206 41.1876 205.584 29.0406 206.761 29.4136C207.938 29.7876 204.148 40.3426 204.295 41.2796C204.442 42.2156 209.456 34.9996 210.224 35.4376C210.992 35.8756 206.651 42.9806 205.932 44.6306C205.213 46.2806 203.016 55.9956 201.442 57.2216C199.868 58.4476 198.949 68.9766 198.949 68.9766L190.564 67.3296L193.348 57.8666Z" fill="#BE6553"/>
<path d="M192.795 45.9004C192.795 45.9004 197.604 50.5674 197.533 56.4004" stroke="#984233" stroke-miterlimit="10" stroke-linecap="round" stroke-linejoin="round"/>
<path d="M201.628 45.9004C201.628 45.9004 200.125 50.0764 198.795 52.5674" stroke="#984233" stroke-miterlimit="10" stroke-linecap="round" stroke-linejoin="round"/>
<path d="M142.198 140.142C142.198 140.142 164.229 157.233 169.761 166.733C175.293 176.233 182.126 231.376 184.293 231.304C186.46 231.233 197.293 213.4 197.626 211.4C197.959 209.4 182.423 162.748 181.126 159.567C179.126 154.66 174.793 147.234 174.793 147.234C174.793 147.234 192.126 114.272 194.126 107.605C196.126 100.938 200.382 68.0025 200.376 65.5025C200.37 63.0025 192.537 60.9895 190.704 63.2465C188.871 65.5025 178.46 98.2725 177.293 100.856C176.126 103.439 158.4 128.068 157.513 128.401C156.626 128.734 151.032 128.645 148.996 130.19C146.96 131.733 140.645 138.916 142.198 140.142Z" fill="#F2D5CF"/>
<path d="M157.514 128.4C160.294 131.233 174.794 147.233 174.794 147.233" stroke="#E2BDB4" stroke-miterlimit="10" stroke-linecap="round" stroke-linejoin="round"/>
<path d="M151.596 131.01C151.596 131.01 158.166 134.176 162.961 136.569" stroke="#E2BDB4" stroke-miterlimit="10" stroke-linecap="round" stroke-linejoin="round"/>
<path d="M178.877 103.561C178.877 103.561 184.127 102.865 190.377 103.425" stroke="#E2BDB4" stroke-miterlimit="10" stroke-linecap="round" stroke-linejoin="round"/>
<path d="M184.627 105.279C184.627 105.279 187.627 105.446 191.627 108.215" stroke="#E2BDB4" stroke-miterlimit="10" stroke-linecap="round" stroke-linejoin="round"/>
<path d="M171.166 143.24C171.166 143.24 187.445 111.762 189.161 106.748C190.877 101.734 189.377 106.177 191.627 103.206C193.877 100.234 197.531 62.998 197.531 62.998" stroke="#E2BDB4" stroke-miterlimit="10" stroke-linecap="round" stroke-linejoin="round"/>
<path d="M142.559 137.818C142.559 137.818 168.795 156.901 172.461 162.401C176.128 167.901 180.628 193.234 182.128 201.901C183.628 210.568 186.205 229.724 186.205 229.724" stroke="#E2BDB4" stroke-miterlimit="10" stroke-linecap="round" stroke-linejoin="round"/>
<path d="M167.127 154.661L169.46 152.234" stroke="white" stroke-miterlimit="10" stroke-linecap="round" stroke-linejoin="round"/>
<path d="M175.32 164.108L177.653 161.682" stroke="white" stroke-miterlimit="10" stroke-linecap="round" stroke-linejoin="round"/>
<path d="M179.033 175.75L181.366 173.324" stroke="white" stroke-miterlimit="10" stroke-linecap="round" stroke-linejoin="round"/>
<path d="M181.367 187.911L183.7 185.484" stroke="white" stroke-miterlimit="10" stroke-linecap="round" stroke-linejoin="round"/>
<path d="M183.182 199.541L185.515 197.115" stroke="white" stroke-miterlimit="10" stroke-linecap="round" stroke-linejoin="round"/>
<path d="M120.504 87.7331C130.875 81.6331 141.379 86.7331 146.379 96.1081C150.657 104.128 157.592 120.402 141.504 128.108C126.629 135.233 118.004 122.233 114.129 116.483C110.254 110.733 107.754 95.2331 120.504 87.7331Z" fill="#BE6553"/>
<path d="M130.961 101.566C130.961 101.566 133.461 107.733 136.128 110.899C136.128 110.899 138.597 107.412 139.628 107.633C140.789 107.883 140.711 112.149 139.711 115.065" stroke="#984233" stroke-miterlimit="10" stroke-linecap="round" stroke-linejoin="round"/>
<path d="M133.545 119.233C133.545 119.233 138.295 121.733 142.795 117.4" stroke="#984233" stroke-miterlimit="10" stroke-linecap="round" stroke-linejoin="round"/>
<path d="M121.87 105.638C119.343 102.473 122.499 96.5789 126.611 97.3879C127.129 97.4899 125.711 98.3069 125.528 98.4529C124.644 99.0809 123.972 100.086 123.471 101.026C122.927 101.996 122.556 103.061 122.322 104.146C122.259 104.423 122.205 105.82 121.87 105.638Z" fill="#37241E"/>
<path d="M131.246 95.5636C131.888 93.6826 134.055 92.7936 135.887 92.7466C136.977 92.7306 138.123 93.0726 139.013 93.7066C139.411 93.9906 140.599 94.9696 140.526 95.5616C140.48 95.9366 139.362 95.3426 139.055 95.2306C138.026 94.9116 136.968 94.7216 135.887 94.7456C134.821 94.7276 133.727 94.8766 132.714 95.2126C132.442 95.2936 131.267 95.9346 131.246 95.5636Z" fill="#37241E"/>
<path d="M130.252 117.292C131.085 120.158 128.869 123.321 125.302 124.357C121.736 125.393 118.169 123.91 117.337 121.044C116.504 118.178 118.721 115.015 122.287 113.979C125.853 112.943 129.42 114.426 130.252 117.292Z" fill="#A84758"/>
<path d="M117.878 80.7329C112.845 86.6869 112.753 91.8579 112.753 91.8579C112.753 91.8579 104.128 95.7809 104.878 100.819C105.577 105.513 112.237 114.471 113.954 120.747C121.965 114.254 118.253 101.566 118.253 101.566C115.48 90.5929 129.782 72.4199 129.782 72.4199C125.82 74.4569 121.545 76.3949 117.878 80.7329Z" fill="#563D38"/>
<path d="M117.308 116.6C105.619 100.161 112.754 91.8574 112.754 91.8574" stroke="#37241E" stroke-miterlimit="10" stroke-linecap="round" stroke-linejoin="round"/>
<path d="M119.047 112.199C119.047 112.199 114.321 109.1 111.225 104.229" stroke="#37241E" stroke-miterlimit="10" stroke-linecap="round" stroke-linejoin="round"/>
<path d="M128.347 109.713C128.727 110.706 128.494 111.717 127.828 111.972C127.162 112.227 126.314 111.628 125.934 110.636C125.554 109.643 125.787 108.632 126.453 108.377C127.12 108.122 127.968 108.72 128.347 109.713Z" fill="#37241E"/>
<path d="M128.53 105.65C128.53 105.65 129.488 107.733 127.141 109.65" stroke="#37241E" stroke-width="0.75" stroke-miterlimit="10" stroke-linecap="round" stroke-linejoin="round"/>
<path d="M140.765 102.961C141.145 103.954 140.912 104.965 140.246 105.22C139.58 105.475 138.732 104.876 138.352 103.884C137.972 102.891 138.205 101.88 138.871 101.625C139.538 101.37 140.385 101.968 140.765 102.961Z" fill="#37241E"/>
<path d="M140.754 98.957C140.754 98.957 141.712 101.04 139.365 102.957" stroke="#37241E" stroke-width="0.75" stroke-miterlimit="10" stroke-linecap="round" stroke-linejoin="round"/>
<path d="M151.502 111.123C151.172 107.538 150.01 103.988 148.693 100.908C147.891 101.029 147.075 101.277 146.284 101.669C142.957 103.32 141.336 106.825 142.662 109.499C143.988 112.172 147.761 113.002 151.088 111.351C151.231 111.279 151.366 111.2 151.502 111.123Z" fill="#A84758"/>
<path d="M122.73 126.425L115.631 118.676C115.631 118.676 109.712 114.401 107.564 118.401C105.67 121.926 114.414 130.449 122.73 126.425Z" fill="#BE6553"/>
<path d="M111.032 125.035C114.031 127.233 118.435 128.503 122.729 126.425L116.081 119.168C116.079 119.168 109.001 119.857 111.032 125.035Z" fill="#984233"/>
<path d="M307.926 377.789C307.926 377.789 343.918 409.974 346.284 410.013C348.65 410.052 352.773 406.954 351.925 403.927C351.077 400.9 324.35 368.674 324.35 368.674L307.926 377.789Z" fill="#94C0DD"/>
<path d="M215.457 369.564C215.457 369.564 220.537 417.58 222.265 419.196C223.993 420.813 229.129 421.283 230.532 418.47C231.935 415.657 233.75 373.829 233.75 373.829L215.457 369.564Z" fill="#94C0DD"/>
<path d="M310.128 219.732C310.128 219.732 312.128 238.232 312.461 238.899C312.794 239.566 314.461 241.095 314.628 241.58C314.795 242.065 315.128 243.899 314.628 244.732C314.128 245.565 317.461 250.565 317.295 253.399C317.128 256.232 302.295 321.732 302.962 323.399C303.629 325.066 303.795 326.732 303.962 327.399C304.129 328.066 302.585 329.899 302.94 330.482C303.295 331.065 305.295 332.232 305.962 332.899C306.629 333.566 305.462 336.169 305.795 337.2C306.128 338.232 342.462 389.565 344.462 391.732C346.462 393.899 346.129 398.399 342.962 400.232C339.795 402.065 335.795 402.232 332.629 401.065C329.462 399.898 271.462 348.398 269.296 339.232C267.129 330.065 276.296 277.378 276.296 277.378C276.296 277.378 241.463 320.232 240.796 320.899C240.129 321.566 241.463 325.066 240.796 325.566C240.129 326.066 237.296 325.566 237.296 326.066C237.296 326.566 234.629 403.066 234.296 405.233C233.963 407.4 229.796 410.066 226.129 410.566C222.462 411.066 217.629 406.733 217.462 405.566C217.295 404.399 205.462 316.399 208.295 311.066C211.128 305.733 250.074 247.143 250.743 246.485C251.412 245.827 250.324 240.773 250.743 240.425C251.162 240.077 252.912 238.647 252.912 238.647L254.273 217.234L310.128 219.732Z" fill="#37241E"/>
<path d="M285.379 332.732C285.379 332.732 292.129 329.232 299.129 328.232" stroke="#563D38" stroke-miterlimit="10" stroke-linecap="round" stroke-linejoin="round"/>
<path d="M290.418 334.982C290.418 334.982 299.35 335.109 303.254 337.2" stroke="#563D38" stroke-miterlimit="10" stroke-linecap="round" stroke-linejoin="round"/>
<path d="M220.379 314.982C220.379 314.982 230.629 315.317 237.379 318.525" stroke="#563D38" stroke-miterlimit="10" stroke-linecap="round" stroke-linejoin="round"/>
<path d="M225.879 318.525C225.879 318.525 231.84 320.775 235.86 324.504" stroke="#563D38" stroke-miterlimit="10" stroke-linecap="round" stroke-linejoin="round"/>
<path d="M258.789 246.232C258.789 246.232 260.128 253.732 263.128 255.732C266.128 257.732 278.128 267.982 278.128 267.982L276.295 277.378" stroke="#563D38" stroke-miterlimit="10" stroke-linecap="round" stroke-linejoin="round"/>
<path d="M270.411 217.232C270.411 217.232 267.72 248.617 267.45 253.732C267.18 258.847 270.411 261.493 270.411 261.493" stroke="#563D38" stroke-miterlimit="10" stroke-linecap="round" stroke-linejoin="round"/>
<path d="M268.055 245.54C268.055 245.54 275.505 243.734 276.13 242.234C276.755 240.734 278.755 218.369 278.755 218.369" stroke="#563D38" stroke-miterlimit="10" stroke-linecap="round" stroke-linejoin="round"/>
<path d="M305.372 219.52C305.372 219.52 305.629 240.108 305.879 240.983C306.129 241.858 309.254 243.108 309.629 244.233C310.004 245.358 307.629 247.483 308.129 248.233C308.629 248.983 310.835 255.233 309.669 260.233C308.504 265.233 295.004 321.108 294.879 322.233C294.754 323.358 297.043 324.983 296.836 325.858C296.629 326.733 294.067 329.345 294.205 329.308C294.343 329.271 297.879 330.858 298.504 331.733C299.129 332.608 296.543 334.744 296.836 335.488C297.129 336.233 345.516 396.773 345.516 396.773" stroke="#563D38" stroke-miterlimit="10" stroke-linecap="round" stroke-linejoin="round" stroke-dasharray="4 3"/>
<path d="M273.252 263.861C273.252 263.861 236.215 313.107 235.86 313.92C235.504 314.733 235.69 316.688 234.909 317.523C234.129 318.358 230.666 317.719 231.844 321.515C233.022 325.311 230.119 325.233 228.879 326.233L230.095 409.298" stroke="#563D38" stroke-miterlimit="10" stroke-linecap="round" stroke-linejoin="round" stroke-dasharray="4 3"/>
<path d="M350.937 401.79C350.399 404.74 348.371 407.698 347.36 408.66C346.495 409.483 343.882 405.7 343.36 406.215C342.403 407.158 339.61 409.948 339.213 411.231C338.872 412.335 341.013 414.708 341.013 414.708L343.577 427.851C343.577 427.851 340.318 437.983 340.052 439.116C339.786 440.249 341.125 442.781 342.728 442.539C344.331 442.297 351.771 432.754 353.696 428.856C355.621 424.958 353.717 423.934 355.505 421.51C355.78 421.138 356.159 420.623 356.604 420.019L359.177 421.033L364.902 413.27L363.516 410.647C361.205 405.624 351.479 398.816 350.937 401.79Z" fill="#37241E"/>
<path d="M231.233 416.223C228.854 418.049 225.365 418.881 223.97 418.915C222.777 418.944 223.379 414.386 222.646 414.418C221.304 414.475 217.361 414.668 216.205 415.353C215.211 415.943 215.206 419.139 215.206 419.139L208.286 430.603C208.286 430.603 199.07 435.926 198.112 436.588C197.154 437.25 196.447 440.025 197.798 440.922C199.149 441.818 211.069 439.738 215.113 438.14C219.156 436.542 218.432 434.505 221.384 433.908C221.837 433.816 222.464 433.689 223.199 433.541L224.426 436.019L233.88 434.106L234.613 431.231C236.272 425.957 233.632 414.383 231.233 416.223Z" fill="#37241E"/>
<path d="M210.996 60.1426C210.996 60.1426 206.01 59.2616 203.442 55.1656C200.874 51.0696 197.051 47.5186 195.061 46.5986C193.07 45.6786 196.542 44.1586 200.005 46.8216C203.468 49.4846 204.259 48.4516 203.882 45.5406C203.505 42.6306 199.336 33.2306 200.879 31.9736C202.422 30.7176 205.597 41.2086 206.201 42.6376C206.805 44.0666 203.888 30.3686 205.106 28.7196C206.324 27.0696 209.202 39.6166 210.122 40.6616C211.042 41.7066 209.857 28.8486 211.081 28.6886C212.305 28.5286 213.348 39.6946 213.878 40.4806C214.408 41.2666 215.89 32.6046 216.771 32.6756C217.652 32.7466 216.733 41.0216 216.782 42.8216C216.831 44.6206 218.959 54.3506 218.054 56.1286C217.148 57.9056 220.78 67.8316 220.78 67.8316L212.488 69.8956L210.996 60.1426Z" fill="#FFA38C"/>
<path d="M286.268 135.66C286.268 135.66 304.003 136.606 311.378 141.231C318.753 145.856 321.878 151.356 319.253 171.106C316.628 190.856 314.628 214.356 315.378 218.356C316.128 222.356 312.503 224.981 312.503 224.981C312.503 224.981 295.628 229.481 280.628 227.856C265.628 226.231 257.753 223.606 255.628 222.731C253.503 221.856 251.378 218.731 251.128 216.231C250.878 213.731 252.753 208.481 252.753 206.481C252.753 204.481 250.821 191.66 249.378 181.935C247.753 170.981 248.449 162.892 248.449 162.892C248.449 162.892 220.253 125.991 218.128 118.674C216.003 111.357 210.003 77.1128 209.628 74.3598C209.253 71.6068 210.503 70.3568 210.503 70.3568C210.503 70.3568 208.378 63.7598 208.628 62.9958C208.878 62.2318 210.878 59.9818 213.628 59.2318C216.378 58.4818 220.253 58.8568 220.628 59.2318C221.003 59.6068 223.003 66.7318 223.003 66.7318C223.003 66.7318 224.503 66.1358 225.628 68.3088C226.753 70.4818 240.128 106.409 240.503 107.633C240.878 108.857 242.753 109.19 243.128 109.649C243.503 110.107 242.128 113.187 242.503 113.335C242.878 113.483 245.128 112.937 245.628 113.335C246.128 113.733 245.503 116.691 245.878 117.399C246.253 118.107 252.926 125.061 254.464 125.584C256.003 126.107 266.503 127.34 271.003 135.661H286.268V135.66Z" fill="#B2D8F7"/>
<path d="M212.127 65.1055C212.679 65.1055 213.127 64.6578 213.127 64.1055C213.127 63.5532 212.679 63.1055 212.127 63.1055C211.575 63.1055 211.127 63.5532 211.127 64.1055C211.127 64.6578 211.575 65.1055 212.127 65.1055Z" fill="white"/>
<path d="M248.449 162.892C249.003 157.606 251.628 149.118 253.878 145.737C256.128 142.356 263.146 128.398 263.146 128.398" stroke="#94C0DD" stroke-miterlimit="10" stroke-linecap="round" stroke-linejoin="round"/>
<path d="M241.502 117.399C241.502 117.399 233.752 115.732 224.252 118.357" stroke="#94C0DD" stroke-miterlimit="10" stroke-linecap="round" stroke-linejoin="round"/>
<path d="M238.377 110.291C238.377 110.291 231.752 111.762 227.002 115.56" stroke="#94C0DD" stroke-miterlimit="10" stroke-linecap="round" stroke-linejoin="round"/>
<path d="M248.965 159.626C248.965 159.626 224.378 124.788 223.503 123.323C222.628 121.858 223.878 120.475 223.003 119.167C222.128 117.858 220.503 118.015 219.878 115.812C219.253 113.608 211.503 74.298 211.378 72.766C211.253 71.234 212.537 68.918 212.537 68.918" stroke="#94C0DD" stroke-miterlimit="10" stroke-linecap="round" stroke-linejoin="round"/>
<path d="M277.254 141.494C277.254 141.494 268.987 167.899 269.056 182.232C269.126 196.565 269.932 207.565 269.612 210.565C269.292 213.565 266.265 223.714 269.612 226.306" stroke="#94C0DD" stroke-miterlimit="10" stroke-linecap="round" stroke-linejoin="round"/>
<path d="M210.502 70.3565C210.502 70.3565 214.627 66.2315 223.002 66.7315" stroke="#94C0DD" stroke-miterlimit="10" stroke-linecap="round" stroke-linejoin="round"/>
<path d="M283.366 162.311C284.814 161.602 301.28 161.691 301.876 162.311C302.472 162.931 302.174 174.831 301.876 175.734C301.578 176.637 293.423 179.617 292.286 179.766C291.149 179.915 283.365 175.734 283.105 174.105C282.844 172.475 282.724 162.625 283.366 162.311Z" fill="#94C0DD"/>
<path d="M277.257 150.704C277.257 150.704 273.66 161.216 264.846 172.46C256.032 183.704 247.199 198.871 244.699 205.621C244.699 205.621 240.327 207.371 239.763 207.371C239.199 207.371 237.388 201.538 237.96 200.704C238.532 199.871 246.337 183.35 252.352 176.527C258.368 169.704 269.765 159.675 274.315 150.439L277.257 150.704Z" fill="#5E1C1C"/>
<path d="M277.256 150.704C277.256 150.704 274.871 161.871 258.368 169.704C241.865 177.537 205.365 169.704 204.282 168.704C203.199 167.704 198.199 154.724 198.699 153.797C199.199 152.87 211.325 150.37 212.512 150.704C213.699 151.037 228.866 161.119 242.282 161.912C255.699 162.704 268.956 159.871 274.661 149.871L277.256 150.704Z" fill="#732525"/>
<path d="M289.469 124.725C289.469 124.725 288.945 132.873 291.74 140.873C291.74 140.873 288.41 145.001 280.66 144.876C272.91 144.751 273.521 140.123 273.521 140.123L272.965 124.893L289.469 124.725Z" fill="#FFA38C"/>
<path d="M289.431 126.722C289.421 125.473 289.468 124.725 289.468 124.725L272.965 124.893L273.165 130.369C274.678 132.182 276.604 133.866 278.502 133.748C281.568 133.558 287 128.932 289.431 126.722Z" fill="#D37562"/>
<path d="M298.496 120.622C298.496 120.622 305.203 111.378 306.953 108.812C308.703 106.247 310.578 103.319 309.953 102.095C309.328 100.871 306.21 97.6668 306.21 97.6668C306.21 97.6668 309.953 92.8708 307.578 86.9958C305.203 81.1208 300.621 79.9778 296.35 75.4868C292.078 70.9958 288.578 62.1348 288.578 62.1348C288.578 62.1348 282.215 67.7458 283.084 76.7458C283.084 76.7458 275.835 71.1208 273.706 64.3708C273.706 64.3708 271.675 69.5018 272.564 73.4988C272.564 73.4988 271.239 69.6208 271.221 66.3708C271.221 66.3708 262.409 74.9978 267.578 87.3708C267.578 87.3708 263.578 83.8708 262.453 79.9958C262.453 79.9958 258.781 89.2018 268.805 98.3488C278.828 107.497 298.496 120.622 298.496 120.622Z" fill="#9D4E3F"/>
<path d="M267.605 71.9043C267.605 71.9043 268.231 83.4973 277.256 89.1223C277.256 89.1223 269.422 86.2793 265.977 80.5133" stroke="#BE6553" stroke-miterlimit="10" stroke-linecap="round" stroke-linejoin="round"/>
<path d="M293.965 84.5163C283.594 78.4163 273.09 83.5163 268.09 92.8913C263.813 100.912 256.877 117.185 272.965 124.891C287.84 132.016 296.465 119.016 300.34 113.266C304.215 107.516 306.715 92.0163 293.965 84.5163Z" fill="#FFA38C"/>
<path d="M282.338 96.668C282.338 96.668 280.866 101.925 278.199 105.091C278.199 105.091 273.54 102.764 272.51 102.986C271.349 103.236 273.588 110.168 273.588 110.168" stroke="#D37562" stroke-miterlimit="10" stroke-linecap="round" stroke-linejoin="round"/>
<path d="M286.12 105.494C285.74 106.487 285.973 107.498 286.639 107.753C287.305 108.008 288.153 107.409 288.533 106.417C288.912 105.424 288.68 104.413 288.014 104.158C287.347 103.903 286.5 104.501 286.12 105.494Z" fill="#37241E"/>
<path d="M273.701 98.7444C273.322 99.7374 273.555 100.748 274.222 101.003C274.888 101.258 275.735 100.659 276.115 99.6674C276.494 98.6744 276.263 97.6634 275.597 97.4084C274.93 97.1534 274.081 97.7514 273.701 98.7444Z" fill="#37241E"/>
<path d="M284.214 113.073C283.381 115.939 285.598 119.102 289.164 120.138C292.73 121.174 296.297 119.691 297.129 116.825C297.962 113.959 295.745 110.796 292.179 109.76C288.613 108.724 285.047 110.207 284.214 113.073Z" fill="#EA8399"/>
<path d="M272.176 112.475H282.338C282.338 112.475 281.533 116.248 278.033 116.815C272.252 117.752 272.176 112.475 272.176 112.475Z" fill="#37241E"/>
<path d="M278.032 116.815C281.532 116.248 282.337 112.475 282.337 112.475H278.498C276.457 113.609 275.285 115.293 274.66 116.523C275.483 116.891 276.575 117.051 278.032 116.815Z" fill="#A84758"/>
<path d="M272.773 93.5556C273.15 89.1596 279.813 88.1436 281.656 92.0236C281.944 92.7206 280.898 92.1826 280.537 92.1106C279.519 91.9096 278.504 91.8647 277.477 92.0366C276.326 92.2297 275.226 92.5516 274.178 93.0706C273.906 93.1996 272.832 94.0246 272.773 93.5556Z" fill="#9D4E3F"/>
<path d="M288.21 93.1173C290.253 92.2623 292.572 93.4733 293.749 95.1663C294.403 96.1193 294.668 97.1933 294.673 98.3363C294.685 98.9313 294.267 100.881 293.535 101.09C293.089 101.217 293.096 100.016 293.019 99.5973C292.776 98.5373 292.355 97.4393 291.682 96.5723C291.084 95.6423 290.288 94.8153 289.389 94.1733C289.134 93.9793 287.842 93.3973 288.21 93.1173Z" fill="#9D4E3F"/>
<path d="M306.952 108.812C308.702 106.247 310.577 103.319 309.952 102.095C309.327 100.871 306.209 97.6671 306.209 97.6671C306.209 97.6671 309.952 92.8711 307.577 86.9961C305.202 81.1211 300.62 79.9781 296.349 75.4871C295.168 74.2451 294.05 72.6671 293.045 71.0371H293.043C293.043 71.0371 289.255 84.7321 297.769 93.6761C297.769 93.6761 300.033 101.576 296.283 105.099C292.533 108.621 303.459 111.246 298.496 120.621C298.496 120.621 305.202 111.378 306.952 108.812Z" fill="#BE6553"/>
<path d="M299.45 78.2598C299.45 78.2598 308.135 87.4638 306.208 97.6678C306.208 97.6678 304.25 85.6478 292.203 78.2598" stroke="#9D4E3F" stroke-miterlimit="10" stroke-linecap="round" stroke-linejoin="round"/>
<path d="M270.841 103.287C272.193 100.626 270.605 97.1063 267.294 95.4233C267.161 95.3553 267.025 95.2983 266.891 95.2383C265.473 98.1573 264.025 101.73 263.316 105.451C266.381 106.573 269.613 105.705 270.841 103.287Z" fill="#EA8399"/>
<path d="M291.738 123.208L298.837 115.459C298.837 115.459 304.756 111.184 306.904 115.184C308.797 118.709 300.053 127.232 291.738 123.208Z" fill="#FFA38C"/>
<path d="M303.435 121.818C300.436 124.016 296.032 125.286 291.738 123.208L298.386 115.951C298.386 115.951 305.466 116.64 303.435 121.818Z" fill="#D37562"/>
<path d="M273.865 142.377C273.408 143.424 272.393 151.013 273.295 151.513C274.197 152.013 278.299 152.68 278.831 152.346C279.364 152.013 281.895 145.94 281.546 143.935C281.198 141.93 274.448 141.039 273.865 142.377Z" fill="#933A3A"/>
<path d="M289.72 131.615C289.72 131.615 286.724 135.972 277.257 139.61C277.257 139.61 275.291 138.384 273.287 133.753C273.287 133.753 273.07 131.73 272.176 132.926C271.283 134.122 269.408 138.788 269.408 138.788C269.408 138.788 268.055 150.372 268.294 151.372L277.258 141.494L284.04 154.872C284.04 154.872 290.193 149.497 291.738 146.372C293.283 143.247 293.783 140.598 293.408 139.61C293.033 138.622 289.72 131.615 289.72 131.615Z" fill="#94C0DD"/>
<path d="M186.079 252.215C164.185 254.416 155.504 241.785 153.973 234.769C153.166 231.071 153.97 228.027 155.929 227.369C163.835 224.713 173.931 234.601 174.033 234.701L176.838 231.879C176.355 231.398 164.895 220.154 154.661 223.598C150.65 224.947 148.811 229.777 150.086 235.617C152.581 247.055 165.029 258.331 186.488 256.173C186.58 256.164 186.676 256.153 186.769 256.144L186.351 252.187C186.258 252.197 186.17 252.206 186.079 252.215Z" fill="#ECB57C"/>
<path d="M238.503 215.171C227.8 213.833 218.797 227.133 218.419 227.7L221.729 229.907C221.808 229.789 229.722 218.086 238.011 219.119C240.061 219.375 241.455 222.197 241.4 225.982C241.297 233.162 235.305 247.267 213.409 249.468C213.319 249.477 213.228 249.486 213.137 249.495L213.516 253.456C213.61 253.447 213.703 253.438 213.796 253.429C235.251 251.272 245.209 237.745 245.378 226.04C245.466 220.062 242.703 215.694 238.503 215.171Z" fill="#ECB57C"/>
<path d="M196.084 214.427L168.721 217.177C168.721 217.177 173.542 243.454 176.258 250.846C178.974 258.238 185.014 261.963 190.359 263.758C195.705 265.553 197.519 268.683 199.23 274.103C200.941 279.523 201.554 283.96 201.109 284.505C200.664 285.05 191.498 288.47 190.976 289.022C190.455 289.574 190.361 292.083 191.308 292.321C192.255 292.559 203.788 291.067 203.788 291.067C203.788 291.067 215.387 290.234 216.268 289.813C217.148 289.391 216.557 286.951 215.936 286.514C215.315 286.076 205.652 284.549 205.107 284.103C204.562 283.658 204.28 279.187 204.878 273.535C205.476 267.883 206.631 264.455 211.513 261.631C216.395 258.808 221.572 253.955 222.763 246.171C223.954 238.387 223.449 211.676 223.449 211.676L196.084 214.427Z" fill="#FFDAA6"/>
<path d="M223.447 211.677C223.704 214.238 211.662 217.546 196.55 219.065C181.438 220.584 168.978 219.739 168.721 217.178C168.463 214.617 180.506 211.309 195.618 209.79C210.73 208.271 223.189 209.116 223.447 211.677Z" fill="#FFE5C5"/>
<path d="M220.312 211.992C220.491 213.774 209.789 216.309 196.407 217.654C183.025 218.999 172.033 218.645 171.854 216.863C171.675 215.081 182.377 212.546 195.759 211.201C209.14 209.856 220.133 210.21 220.312 211.992Z" fill="#ECB57C"/>
<path d="M177.127 239.803C175.962 241.901 179.96 255.4 188.794 259.4C197.627 263.4 213.294 260.042 217.294 252.554C221.294 245.066 220.794 222.822 219.294 221.028C217.794 219.233 179.796 234.997 177.127 239.803Z" fill="#ECB57C"/>
<path d="M175.319 222.943C173.292 224.235 177.773 249.199 180.199 250.8C182.625 252.401 183.909 249.234 182.532 242.901C181.155 236.568 180.439 228.55 180.199 226.309C179.959 224.068 177.345 221.652 175.319 222.943Z" fill="white"/>
<path d="M133.575 227.33C133.575 227.33 137.511 230.436 139.046 229.913C140.581 229.39 142.225 222.871 143.796 222.131C145.367 221.391 150.062 221.283 150.657 221.048C151.253 220.813 155.622 222.655 157.699 222.89C159.776 223.125 159.192 224.905 157.988 225.165C156.783 225.425 155.424 225.851 154.052 225.399C154.052 225.399 161.332 227.149 161.583 228.315C161.834 229.481 160.371 229.571 159.902 230.383C159.433 231.195 161.203 232.27 160.869 233.105C160.534 233.94 158.837 234.77 158.656 235.185C158.475 235.6 159.645 237.252 159.098 237.94C158.551 238.628 157.482 238.886 157.409 239.319C157.337 239.752 158.312 241.251 157.481 241.558C156.65 241.865 141.851 238.617 139.419 238.1C136.988 237.583 128.412 233.592 128.412 233.592L133.575 227.33Z" fill="#BE6553"/>
<path d="M135.721 226.234C136.205 226.848 132.56 237.059 130.428 237.897C128.295 238.734 93.7952 216.734 92.1292 209.734C90.4632 202.734 99.4622 161.067 103.462 156.401C107.462 151.734 117.129 152.901 118.129 162.734C119.129 172.567 111.962 201.567 112.462 203.234C112.962 204.901 131.647 221.068 135.721 226.234Z" fill="#F2D5CF"/>
<path d="M105.68 154.66C105.68 154.66 95.2468 199.248 95.9608 207.4C96.6758 215.552 131.364 236.233 131.364 236.233" stroke="#E2BDB4" stroke-miterlimit="10" stroke-linecap="round" stroke-linejoin="round"/>
<path d="M116.805 230.556C106.193 223.718 93.1374 213.975 92.1274 209.735C91.8554 208.592 91.8674 206.526 92.0954 203.848" stroke="#E2BDB4" stroke-miterlimit="10" stroke-linecap="round" stroke-linejoin="round"/>
<path d="M103.461 156.401C107.461 151.734 117.128 152.901 118.128 162.734C119.128 172.567 111.961 201.567 112.461 203.234C112.736 204.15 118.503 209.445 124.319 214.887" stroke="#E2BDB4" stroke-miterlimit="10" stroke-linecap="round" stroke-linejoin="round"/>
<path d="M263.894 219.779C263.894 219.779 259.958 222.885 258.423 222.362C256.888 221.839 255.244 215.32 253.673 214.58C252.102 213.84 247.407 213.732 246.812 213.497C246.216 213.262 241.847 215.105 239.77 215.34C237.694 215.575 238.277 217.355 239.481 217.615C240.686 217.875 242.045 218.301 243.417 217.849C243.417 217.849 236.137 219.599 235.886 220.765C235.635 221.931 237.098 222.021 237.567 222.833C238.037 223.646 236.266 224.72 236.601 225.555C236.936 226.39 238.633 227.22 238.814 227.636C238.995 228.051 237.825 229.703 238.372 230.391C238.919 231.079 239.988 231.337 240.061 231.77C240.133 232.203 239.159 233.702 239.989 234.009C240.82 234.316 255.619 231.068 258.051 230.551C260.482 230.034 269.058 226.043 269.058 226.043L263.894 219.779Z" fill="#FFA38C"/>
<path d="M258.795 220.65C258.566 219.849 265.451 216.073 265.451 216.073C265.451 216.073 264.89 213.394 265.879 212.233C266.868 211.073 288.462 194.316 289.712 193.4C290.962 192.483 292.295 191.65 293.045 191.4C293.795 191.15 292.545 188.4 293.045 187.983C293.545 187.566 295.045 187.65 295.462 187.4C295.879 187.15 294.379 184.567 294.795 183.9C295.212 183.233 297.045 181.567 297.128 181.067C297.211 180.567 298.545 154.4 301.711 150.234C304.878 146.067 313.211 139.984 319.461 148.401C325.711 156.818 318.794 188.901 317.711 193.651C316.628 198.401 311.961 208.151 306.044 210.901C300.127 213.651 276.086 227.682 275.002 228.099C273.919 228.516 272.252 227.661 272.252 227.661C272.252 227.661 264.627 231.151 263.96 230.985C263.295 230.817 259.128 221.817 258.795 220.65Z" fill="#B2D8F7"/>
<path d="M259.468 222.323C259.115 221.514 258.867 220.902 258.795 220.652C258.566 219.851 265.451 216.075 265.451 216.075C265.451 216.075 264.89 213.396 265.879 212.235C266.868 211.075 288.462 194.318 289.712 193.402C290.962 192.485 292.295 191.652 293.045 191.402C293.795 191.152 292.545 188.402 293.045 187.985C293.545 187.568 295.045 187.652 295.462 187.402C295.879 187.152 294.379 184.569 294.795 183.902C295.212 183.235 297.045 181.569 297.128 181.069C297.211 180.569 298.545 154.402 301.711 150.236C304.878 146.069 313.211 139.986 319.461 148.403" stroke="#94C0DD" stroke-miterlimit="10" stroke-linecap="round" stroke-linejoin="round"/>
<path d="M316.282 197.914C314.24 202.798 310.495 208.832 306.042 210.902C300.865 213.308 281.81 224.352 276.402 227.354" stroke="#94C0DD" stroke-miterlimit="10" stroke-linecap="round" stroke-linejoin="round"/>
<path d="M265.449 216.074C265.449 216.074 268.002 222.587 272.252 227.661" stroke="#94C0DD" stroke-miterlimit="10" stroke-linecap="round" stroke-linejoin="round"/>
<path d="M295.004 192.984C295.004 192.984 304.821 194.938 308.129 200.609" stroke="#94C0DD" stroke-miterlimit="10" stroke-linecap="round" stroke-linejoin="round"/>
<path d="M299.129 186.697C299.129 186.697 304.754 191.359 307.379 196.796" stroke="#94C0DD" stroke-miterlimit="10" stroke-linecap="round" stroke-linejoin="round"/>
<path d="M319.107 147.951C319.46 148.401 321.442 167.507 318.097 180.371C314.752 193.235 313.752 199.096 312.877 199.54C312.002 199.984 310.627 199.346 310.127 199.54C309.627 199.734 310.627 202.359 310.127 203.234C309.627 204.109 308.002 204.109 307.377 204.484C306.752 204.859 274.752 224.609 273.627 225.234C272.502 225.859 270.41 225.234 270.41 225.234" stroke="#94C0DD" stroke-miterlimit="10" stroke-linecap="round" stroke-linejoin="round"/>
<path d="M266.449 227.512C267.002 227.512 267.449 227.064 267.449 226.512C267.449 225.959 267.002 225.512 266.449 225.512C265.897 225.512 265.449 225.959 265.449 226.512C265.449 227.064 265.897 227.512 266.449 227.512Z" fill="white"/>
</svg>
