<svg width="70" height="70" viewBox="0 0 70 70" fill="none" xmlns="http://www.w3.org/2000/svg">
<rect width="70" height="70" rx="10" fill="#E5EFFF"/>
<path d="M49.4376 38.7625V46.2C49.4376 48.1145 48.0603 49.763 46.1616 50.015C42.5093 50.4997 38.7836 50.75 35.0001 50.75C31.2166 50.75 27.4908 50.4997 23.8386 50.015C21.9398 49.763 20.5626 48.1145 20.5626 46.2V38.7625M49.4376 38.7625C49.8531 38.4014 50.1856 37.9546 50.4122 37.4529C50.6387 36.9511 50.754 36.4063 50.7501 35.8558V29.2355C50.7501 27.3438 49.4061 25.7093 47.5353 25.4293C45.5531 25.1325 43.5609 24.9066 41.5626 24.752M49.4376 38.7625C49.0981 39.0512 48.7026 39.2787 48.2598 39.4275C43.9832 40.8465 39.506 41.5674 35.0001 41.5625C30.3661 41.5625 25.9088 40.8117 21.7403 39.4275C21.3085 39.2839 20.9086 39.058 20.5626 38.7625M20.5626 38.7625C20.147 38.4014 19.8146 37.9546 19.588 37.4529C19.3615 36.9511 19.2462 36.4063 19.2501 35.8558V29.2355C19.2501 27.3438 20.5941 25.7093 22.4648 25.4293C24.4471 25.1325 26.4393 24.9066 28.4376 24.752M41.5626 24.752V23.1875C41.5626 22.1432 41.1478 21.1417 40.4093 20.4033C39.6709 19.6648 38.6694 19.25 37.6251 19.25H32.3751C31.3308 19.25 30.3293 19.6648 29.5909 20.4033C28.8524 21.1417 28.4376 22.1432 28.4376 23.1875V24.752M41.5626 24.752C37.1941 24.4144 32.8061 24.4144 28.4376 24.752M35.0001 36.3125H35.0141V36.3265H35.0001V36.3125Z" stroke="#0061F9" stroke-width="2.1" stroke-linecap="round" stroke-linejoin="round"/>
</svg>
