<svg width="51" height="50" viewBox="0 0 51 50" fill="none" xmlns="http://www.w3.org/2000/svg">
<rect x="0.667969" width="50" height="50" rx="25" fill="#0061F9"/>
<path d="M18.1435 13.6074L16.5947 15.1591L15.043 16.7108H18.1435V13.6074Z" fill="white"/>
<path d="M29.8572 31.9453V14.5234C29.8565 14.1196 29.6957 13.7326 29.4102 13.447C29.1246 13.1615 28.7376 13.0007 28.3338 13H19.0067V17.1407C19.0067 17.2546 18.9614 17.3639 18.8809 17.4444C18.8003 17.525 18.691 17.5703 18.5771 17.5703H14.4336V31.9453C14.4325 32.1462 14.4711 32.3453 14.5471 32.5313C14.6231 32.7173 14.7351 32.8864 14.8766 33.029C15.0182 33.1716 15.1865 33.2848 15.3719 33.3622C15.5573 33.4396 15.7561 33.4796 15.957 33.48H28.3338C28.5347 33.4796 28.7335 33.4396 28.9189 33.3622C29.1043 33.2848 29.2726 33.1716 29.4142 33.029C29.5557 32.8864 29.6677 32.7173 29.7437 32.5313C29.8198 32.3453 29.8583 32.1462 29.8572 31.9453ZM26.2338 30.484H18.0966C18.0351 30.4941 17.9722 30.4907 17.9122 30.474C17.8522 30.4573 17.7965 30.4278 17.749 30.3875C17.7015 30.3472 17.6634 30.297 17.6372 30.2404C17.6111 30.1839 17.5975 30.1224 17.5975 30.0601C17.5975 29.9978 17.6111 29.9362 17.6372 29.8797C17.6634 29.8231 17.7015 29.773 17.749 29.7326C17.7965 29.6923 17.8522 29.6628 17.9122 29.6461C17.9722 29.6294 18.0351 29.626 18.0966 29.6361H26.2338C26.2952 29.626 26.3582 29.6294 26.4182 29.6461C26.4782 29.6628 26.5339 29.6923 26.5814 29.7326C26.6289 29.773 26.667 29.8231 26.6931 29.8797C26.7193 29.9362 26.7328 29.9978 26.7328 30.0601C26.7328 30.1224 26.7193 30.1839 26.6931 30.2404C26.667 30.297 26.6289 30.3472 26.5814 30.3875C26.5339 30.4278 26.4782 30.4573 26.4182 30.474C26.3582 30.4907 26.2952 30.4941 26.2338 30.484ZM26.2338 27.2619H18.0966C17.9961 27.2455 17.9046 27.1938 17.8387 27.1161C17.7727 27.0385 17.7365 26.9399 17.7365 26.838C17.7365 26.7361 17.7727 26.6375 17.8387 26.5598C17.9046 26.4822 17.9961 26.4305 18.0966 26.414H26.2338C26.3343 26.4305 26.4258 26.4822 26.4917 26.5598C26.5577 26.6375 26.5939 26.7361 26.5939 26.838C26.5939 26.9399 26.5577 27.0385 26.4917 27.1161C26.4258 27.1938 26.3343 27.2455 26.2338 27.2619ZM26.2338 24.0342H18.0966C17.9961 24.0177 17.9046 23.9661 17.8387 23.8884C17.7727 23.8107 17.7365 23.7121 17.7365 23.6103C17.7365 23.5084 17.7727 23.4098 17.8387 23.3321C17.9046 23.2545 17.9961 23.2028 18.0966 23.1863H26.2338C26.3343 23.2028 26.4258 23.2545 26.4917 23.3321C26.5577 23.4098 26.5939 23.5084 26.5939 23.6103C26.5939 23.7121 26.5577 23.8107 26.4917 23.8884C26.4258 23.9661 26.3343 24.0177 26.2338 24.0342ZM26.2338 20.8065H18.0966C18.0351 20.8165 17.9722 20.8131 17.9122 20.7965C17.8522 20.7798 17.7965 20.7503 17.749 20.7099C17.7015 20.6696 17.6634 20.6194 17.6372 20.5629C17.6111 20.5064 17.5975 20.4448 17.5975 20.3825C17.5975 20.3202 17.6111 20.2587 17.6372 20.2021C17.6634 20.1456 17.7015 20.0954 17.749 20.0551C17.7965 20.0148 17.8522 19.9852 17.9122 19.9686C17.9722 19.9519 18.0351 19.9485 18.0966 19.9586H26.2338C26.3343 19.975 26.4258 20.0267 26.4917 20.1044C26.5577 20.182 26.5939 20.2806 26.5939 20.3825C26.5939 20.4844 26.5577 20.583 26.4917 20.6607C26.4258 20.7383 26.3343 20.79 26.2338 20.8065ZM26.2338 17.5787H21.8387C21.7382 17.5623 21.6468 17.5106 21.5808 17.4329C21.5148 17.3553 21.4786 17.2567 21.4786 17.1548C21.4786 17.0529 21.5148 16.9543 21.5808 16.8766C21.6468 16.799 21.7382 16.7473 21.8387 16.7308H26.2338C26.3343 16.7473 26.4258 16.799 26.4917 16.8766C26.5577 16.9543 26.5939 17.0529 26.5939 17.1548C26.5939 17.2567 26.5577 17.3553 26.4917 17.4329C26.4258 17.5106 26.3343 17.5623 26.2338 17.5787Z" fill="white"/>
<path d="M35.7617 17.1322L30.7166 15.832V19.6561L32.8053 20.196C32.9088 20.2201 32.9997 20.2817 33.0605 20.369C33.1212 20.4562 33.1474 20.5629 33.134 20.6684C33.1207 20.7738 33.0687 20.8706 32.9881 20.94C32.9076 21.0093 32.8041 21.0464 32.6979 21.0439C32.6623 21.0492 32.6261 21.0492 32.5904 21.0439L30.7166 20.5577V23.0139L31.9969 23.3389C32.1002 23.363 32.1908 23.4244 32.2515 23.5114C32.3122 23.5983 32.3386 23.7046 32.3256 23.8099C32.3126 23.9151 32.2612 24.0118 32.1812 24.0814C32.1012 24.151 31.9983 24.1885 31.8923 24.1868C31.8567 24.1923 31.8205 24.1923 31.7849 24.1868L30.7166 23.9042V26.3292L31.1942 26.4536C31.2981 26.4777 31.3893 26.5395 31.4501 26.6271C31.5109 26.7147 31.5369 26.8217 31.5232 26.9275C31.5095 27.0332 31.4569 27.13 31.3757 27.1992C31.2945 27.2683 31.1906 27.3048 31.084 27.3015C31.0477 27.3022 31.0115 27.2974 30.9766 27.2874L30.7166 27.2195V31.9453C30.7158 32.5769 30.4645 33.1825 30.0179 33.6292C29.5712 34.0759 28.9656 34.3271 28.3339 34.3279H20.4766L30.6515 36.9508C30.8451 37.0013 31.0468 37.0131 31.2449 36.9854C31.4431 36.9577 31.6338 36.8911 31.8061 36.7895C31.9784 36.6878 32.1289 36.5531 32.249 36.3931C32.369 36.233 32.4563 36.0508 32.5057 35.857L36.8583 18.9891C36.958 18.5975 36.8986 18.1823 36.6931 17.8344C36.4876 17.4864 36.1527 17.234 35.7617 17.1322Z" fill="white"/>
</svg>
