<svg width="23" height="26" viewBox="0 0 23 26" fill="none" xmlns="http://www.w3.org/2000/svg">
<path d="M16.9259 14.9512C16.0939 14.1712 15.0019 13.7812 13.8839 13.7812C13.8059 13.7812 13.7279 13.7812 13.6239 13.7812C12.4019 13.8593 11.2839 14.3792 10.4779 15.2892C8.78785 17.1612 8.94386 20.0732 10.8159 21.7372C12.6879 23.4272 15.5999 23.2713 17.2639 21.3993C18.0699 20.4893 18.4859 19.3192 18.4339 18.0972C18.3819 16.8752 17.8359 15.7572 16.9259 14.9512ZM16.6139 20.8012C15.9639 21.5292 15.0539 21.9712 14.0659 22.0232C13.9879 22.0232 13.9359 22.0232 13.8579 22.0232C12.9479 22.0232 12.0899 21.6852 11.3879 21.0872C9.87985 19.7352 9.74986 17.3952 11.1019 15.8872C11.7519 15.1592 12.6619 14.7173 13.6499 14.6653C14.6379 14.6133 15.5739 14.9512 16.3019 15.6012C17.8619 16.9532 17.9919 19.2932 16.6139 20.8012Z" fill="#8AB7FF"/>
<path d="M22.0186 24.8293L18.3266 21.5273C18.1966 21.6833 18.0926 21.8393 17.9366 21.9953C17.7546 22.1773 17.5726 22.3593 17.3906 22.5153L21.1086 25.8433C21.2126 25.9473 21.3686 25.9993 21.5246 25.9993C21.6806 25.9993 21.8106 25.9213 21.9146 25.8173L22.0446 25.6613C22.1486 25.5573 22.2006 25.4013 22.2006 25.2453C22.2006 25.0893 22.1226 24.9333 22.0186 24.8293Z" fill="#8AB7FF"/>
<path d="M15.7571 16.2514C15.2371 15.7834 14.5871 15.5234 13.8851 15.5234C13.8331 15.5234 13.7811 15.5234 13.7291 15.5234C12.9751 15.5754 12.2991 15.8874 11.8051 16.4594C10.7651 17.6034 10.8691 19.3714 12.0131 20.4114C12.5591 20.9054 13.2871 21.1654 14.0411 21.1134C14.7951 21.0614 15.4711 20.7494 15.9651 20.1774C17.0051 19.0594 16.9011 17.2914 15.7571 16.2514Z" fill="#8AB7FF"/>
<path d="M13.8876 23.788C12.5876 23.788 11.2876 23.32 10.2476 22.384C8.01162 20.382 7.82962 16.898 9.83162 14.662C10.8196 13.57 12.1456 12.946 13.6016 12.868C15.0576 12.79 16.4616 13.284 17.5536 14.246C18.6456 15.234 19.2696 16.56 19.3476 18.016C19.3996 18.952 19.2176 19.888 18.8016 20.694L20.0496 21.812V2H2.26562V24.516H18.3076L16.6436 23.034C15.8116 23.554 14.8496 23.788 13.8876 23.788ZM5.30763 5.302H17.0076C17.2416 5.302 17.4496 5.51 17.4496 5.744C17.4496 5.978 17.2416 6.186 17.0076 6.186H5.30763C5.07363 6.186 4.86562 5.978 4.86562 5.744C4.86562 5.51 5.07363 5.302 5.30763 5.302ZM5.30763 10.294H17.0076C17.2416 10.294 17.4496 10.502 17.4496 10.736C17.4496 10.97 17.2416 11.178 17.0076 11.178H5.30763C5.07363 11.178 4.86562 10.97 4.86562 10.736C4.86562 10.502 5.07363 10.294 5.30763 10.294ZM5.30763 15.286H7.56963C7.80363 15.286 8.01162 15.494 8.01162 15.728C8.01162 15.962 7.80363 16.17 7.56963 16.17H5.30763C5.07363 16.17 4.86562 15.962 4.86562 15.728C4.86562 15.494 5.07363 15.286 5.30763 15.286ZM7.75162 21.162H5.30763C5.07363 21.162 4.86562 20.954 4.86562 20.72C4.86562 20.486 5.07363 20.278 5.30763 20.278H7.75162C7.98562 20.278 8.19362 20.486 8.19362 20.72C8.19362 20.954 8.01162 21.162 7.75162 21.162Z" fill="#0051D0"/>
<path d="M1.82 1.118H17.758V0H0V22.516H1.378V1.56C1.378 1.326 1.586 1.118 1.82 1.118Z" fill="#0051D0"/>
</svg>
