<svg width="23" height="27" viewBox="0 0 23 27" fill="none" xmlns="http://www.w3.org/2000/svg">
<path d="M16.9259 15.5723C16.0939 14.7923 15.0019 14.4023 13.8839 14.4023C13.8059 14.4023 13.7279 14.4023 13.6239 14.4023C12.4019 14.4803 11.2839 15.0003 10.4779 15.9103C8.78785 17.7823 8.94386 20.6943 10.8159 22.3583C12.6879 24.0483 15.5999 23.8923 17.2639 22.0203C18.0699 21.1103 18.4859 19.9403 18.4339 18.7183C18.3819 17.4963 17.8359 16.3783 16.9259 15.5723ZM16.6139 21.4223C15.9639 22.1503 15.0539 22.5923 14.0659 22.6443C13.9879 22.6443 13.9359 22.6443 13.8579 22.6443C12.9479 22.6443 12.0899 22.3063 11.3879 21.7083C9.87985 20.3563 9.74986 18.0163 11.1019 16.5083C11.7519 15.7803 12.6619 15.3383 13.6499 15.2863C14.6379 15.2343 15.5739 15.5723 16.3019 16.2223C17.8619 17.5743 17.9919 19.9143 16.6139 21.4223Z" fill="white"/>
<path d="M22.0186 25.4504L18.3266 22.1484C18.1966 22.3044 18.0926 22.4604 17.9366 22.6164C17.7546 22.7984 17.5726 22.9804 17.3906 23.1364L21.1086 26.4644C21.2126 26.5684 21.3686 26.6204 21.5246 26.6204C21.6806 26.6204 21.8106 26.5424 21.9146 26.4384L22.0446 26.2824C22.1486 26.1784 22.2006 26.0224 22.2006 25.8664C22.2006 25.7104 22.1226 25.5544 22.0186 25.4504Z" fill="white"/>
<path d="M15.7571 16.8725C15.2371 16.4045 14.5871 16.1445 13.8851 16.1445C13.8331 16.1445 13.7811 16.1445 13.7291 16.1445C12.9751 16.1965 12.2991 16.5085 11.8051 17.0805C10.7651 18.2245 10.8691 19.9925 12.0131 21.0325C12.5591 21.5265 13.2871 21.7865 14.0411 21.7345C14.7951 21.6825 15.4711 21.3705 15.9651 20.7985C17.0051 19.6805 16.9011 17.9125 15.7571 16.8725Z" fill="white"/>
<path d="M13.8876 24.4091C12.5876 24.4091 11.2876 23.9411 10.2476 23.0051C8.01162 21.0031 7.82962 17.5191 9.83162 15.2831C10.8196 14.1911 12.1456 13.5671 13.6016 13.4891C15.0576 13.4111 16.4616 13.9051 17.5536 14.8671C18.6456 15.8551 19.2696 17.1811 19.3476 18.6371C19.3996 19.5731 19.2176 20.5091 18.8016 21.3151L20.0496 22.4331V2.62109H2.26562V25.1371H18.3076L16.6436 23.6551C15.8116 24.1751 14.8496 24.4091 13.8876 24.4091ZM5.30763 5.92309H17.0076C17.2416 5.92309 17.4496 6.13109 17.4496 6.36509C17.4496 6.59909 17.2416 6.80709 17.0076 6.80709H5.30763C5.07363 6.80709 4.86562 6.59909 4.86562 6.36509C4.86562 6.13109 5.07363 5.92309 5.30763 5.92309ZM5.30763 10.9151H17.0076C17.2416 10.9151 17.4496 11.1231 17.4496 11.3571C17.4496 11.5911 17.2416 11.7991 17.0076 11.7991H5.30763C5.07363 11.7991 4.86562 11.5911 4.86562 11.3571C4.86562 11.1231 5.07363 10.9151 5.30763 10.9151ZM5.30763 15.9071H7.56963C7.80363 15.9071 8.01162 16.1151 8.01162 16.3491C8.01162 16.5831 7.80363 16.7911 7.56963 16.7911H5.30763C5.07363 16.7911 4.86562 16.5831 4.86562 16.3491C4.86562 16.1151 5.07363 15.9071 5.30763 15.9071ZM7.75162 21.7831H5.30763C5.07363 21.7831 4.86562 21.5751 4.86562 21.3411C4.86562 21.1071 5.07363 20.8991 5.30763 20.8991H7.75162C7.98562 20.8991 8.19362 21.1071 8.19362 21.3411C8.19362 21.5751 8.01162 21.7831 7.75162 21.7831Z" fill="white"/>
<path d="M1.82 1.73909H17.758V0.621094H0V23.1371H1.378V2.18109C1.378 1.94709 1.586 1.73909 1.82 1.73909Z" fill="white"/>
</svg>
