<svg width="51" height="50" viewBox="0 0 51 50" fill="none" xmlns="http://www.w3.org/2000/svg">
<rect x="0.332031" width="50" height="50" rx="25" fill="#FF5722"/>
<path d="M27.4943 23.5449H26.9072C26.2467 24.1565 25.1947 24.5479 23.996 24.5479C22.7973 24.5479 21.7453 24.1565 21.0848 23.5449H20.6689C18.5406 23.5449 16.8281 24.8415 16.8281 26.4561H31.1884C31.1639 24.8415 29.5248 23.5449 27.4943 23.5449Z" fill="white"/>
<path d="M23.9941 15.1543C21.6212 15.1543 19.6641 17.0869 19.6641 19.4844C19.6641 21.8574 21.5967 23.8145 23.9941 23.8145C26.3671 23.8145 28.3242 21.8818 28.3242 19.4844C28.2998 17.1114 26.3671 15.1543 23.9941 15.1543ZM23.9941 22.8359C22.1349 22.8359 20.6426 21.3436 20.6426 19.4844C20.6426 19.1908 20.6915 18.9217 20.7405 18.6771C21.1319 18.8728 21.8413 19.1419 22.6486 19.1419C23.2358 19.1419 23.8718 18.9951 24.459 18.5792C24.5324 18.5303 26.0002 17.4784 27.1744 18.5303C27.2723 18.8239 27.3212 19.1664 27.3212 19.4844C27.3457 21.3192 25.8289 22.8359 23.9941 22.8359Z" fill="white"/>
<path d="M34.1233 36.5342H31.7504C31.8971 36.3385 31.995 36.0938 31.995 35.8247V28.0942C31.995 27.4581 31.4568 26.9199 30.8207 26.9199H17.1455C16.5094 26.9199 15.9712 27.4581 15.9712 28.0942V35.8247C15.9712 36.0938 16.0691 36.3385 16.2159 36.5342H13.5249C13.4025 36.5342 13.3047 36.632 13.3047 36.7544V36.7788C13.3047 36.9011 13.4025 36.999 13.5249 36.999H34.1233C34.2457 36.999 34.3435 36.9011 34.3435 36.7788V36.7544C34.368 36.632 34.2457 36.5342 34.1233 36.5342ZM23.9954 33.2071C23.2614 33.2071 22.6743 32.62 22.6743 31.8861C22.6743 31.1522 23.2614 30.565 23.9954 30.565C24.7293 30.565 25.3164 31.1522 25.3164 31.8861C25.3164 32.62 24.7293 33.2071 23.9954 33.2071Z" fill="white"/>
<path d="M37.2307 15.9856C36.6925 13.8573 34.5397 12.5851 32.4114 13.1233C30.283 13.6615 29.0109 15.8144 29.5491 17.9427C29.7938 18.9457 30.4298 19.753 31.2371 20.2912L30.1852 21.8814L34.3685 20.805C36.4968 20.2423 37.7934 18.0895 37.2307 15.9856ZM35.347 18.2118C35.347 18.3341 35.2492 18.432 35.1269 18.432H31.7019C31.5796 18.432 31.4818 18.3341 31.4818 18.2118V15.7899C31.4818 15.6676 31.5796 15.5697 31.7019 15.5697H32.5582V15.4474C32.5582 15.2272 32.7539 15.0315 32.974 15.0315H33.8547C34.0749 15.0315 34.2706 15.2272 34.2706 15.4474V15.5697H35.1269C35.2492 15.5697 35.347 15.6676 35.347 15.7899V18.2118Z" fill="white"/>
</svg>
