<svg width="26" height="27" viewBox="0 0 26 27" fill="none" xmlns="http://www.w3.org/2000/svg">
<path fill-rule="evenodd" clip-rule="evenodd" d="M8.125 6.30859C8.125 5.44664 8.46741 4.61999 9.0769 4.0105C9.6864 3.401 10.513 3.05859 11.375 3.05859H14.625C15.487 3.05859 16.3136 3.401 16.9231 4.0105C17.5326 4.61999 17.875 5.44664 17.875 6.30859V6.53068C18.8858 6.62276 19.8868 6.74409 20.8802 6.89251C22.4553 7.12868 23.5625 8.49909 23.5625 10.0526V13.3383C23.5625 14.6503 22.7673 15.8863 21.4652 16.3197C18.735 17.2259 15.8767 17.6865 13 17.6836C10.0425 17.6836 7.19658 17.2048 4.53483 16.3197C3.23267 15.8863 2.4375 14.6503 2.4375 13.3383V10.0526C2.4375 8.49909 3.54467 7.12759 5.11983 6.89251C6.1179 6.74325 7.12003 6.62259 8.125 6.53068V6.30859ZM16.25 6.30859V6.40609C14.0853 6.27463 11.9147 6.27463 9.75 6.40609V6.30859C9.75 5.87762 9.92121 5.46429 10.226 5.15955C10.5307 4.8548 10.944 4.68359 11.375 4.68359H14.625C15.056 4.68359 15.4693 4.8548 15.774 5.15955C16.0788 5.46429 16.25 5.87762 16.25 6.30859ZM13 15.2461C13.2155 15.2461 13.4222 15.1605 13.5745 15.0081C13.7269 14.8557 13.8125 14.6491 13.8125 14.4336C13.8125 14.2181 13.7269 14.0114 13.5745 13.8591C13.4222 13.7067 13.2155 13.6211 13 13.6211C12.7845 13.6211 12.5778 13.7067 12.4255 13.8591C12.2731 14.0114 12.1875 14.2181 12.1875 14.4336C12.1875 14.6491 12.2731 14.8557 12.4255 15.0081C12.5778 15.1605 12.7845 15.2461 13 15.2461Z" fill="#0051D0"/>
<path d="M3.25 20.5544V17.5254C3.4968 17.6604 3.75533 17.7728 4.02242 17.8612C6.91783 18.8225 9.94917 19.3112 13 19.3086C16.133 19.3086 19.1533 18.8016 21.9776 17.8623C22.2506 17.7713 22.5084 17.6576 22.75 17.5254V20.5544C22.75 22.1274 21.6157 23.5097 20.0168 23.721C17.7201 24.0265 15.3779 24.1836 13 24.1836C10.6534 24.184 8.30943 24.0295 5.98325 23.721C4.38425 23.5097 3.25 22.1274 3.25 20.5544Z" fill="#8AB7FF"/>
</svg>
