<svg width="50" height="50" viewBox="0 0 50 50" fill="none" xmlns="http://www.w3.org/2000/svg">
<rect width="50" height="50" rx="25" fill="#F85E9F"/>
<path fill-rule="evenodd" clip-rule="evenodd" d="M32.5 34C33.2956 34 34.0587 33.6839 34.6213 33.1213C35.1839 32.5587 35.5 31.7956 35.5 31V22C35.5 21.2044 35.1839 20.4413 34.6213 19.8787C34.0587 19.3161 33.2956 19 32.5 19H27.121C26.9222 18.9998 26.7315 18.9207 26.591 18.78L24.47 16.66C24.2611 16.4509 24.0131 16.285 23.7402 16.1717C23.4672 16.0585 23.1745 16.0001 22.879 16H17.5C16.7044 16 15.9413 16.3161 15.3787 16.8787C14.8161 17.4413 14.5 18.2044 14.5 19V31C14.5 31.7956 14.8161 32.5587 15.3787 33.1213C15.9413 33.6839 16.7044 34 17.5 34H32.5ZM25.75 23.5C25.75 23.3011 25.671 23.1103 25.5303 22.9697C25.3897 22.829 25.1989 22.75 25 22.75C24.8011 22.75 24.6103 22.829 24.4697 22.9697C24.329 23.1103 24.25 23.3011 24.25 23.5V25.75H22C21.8011 25.75 21.6103 25.829 21.4697 25.9697C21.329 26.1103 21.25 26.3011 21.25 26.5C21.25 26.6989 21.329 26.8897 21.4697 27.0303C21.6103 27.171 21.8011 27.25 22 27.25H24.25V29.5C24.25 29.6989 24.329 29.8897 24.4697 30.0303C24.6103 30.171 24.8011 30.25 25 30.25C25.1989 30.25 25.3897 30.171 25.5303 30.0303C25.671 29.8897 25.75 29.6989 25.75 29.5V27.25H28C28.1989 27.25 28.3897 27.171 28.5303 27.0303C28.671 26.8897 28.75 26.6989 28.75 26.5C28.75 26.3011 28.671 26.1103 28.5303 25.9697C28.3897 25.829 28.1989 25.75 28 25.75H25.75V23.5Z" fill="white"/>
</svg>
