<svg width="16" height="23" viewBox="0 0 16 23" fill="none" xmlns="http://www.w3.org/2000/svg">
<path d="M15.7202 11.2822L13.7813 9.34338C13.5943 9.15637 13.2918 9.15637 13.1076 9.34338C12.9233 9.53039 12.9206 9.8329 13.1076 10.0172L14.2324 11.1419H9.9367C9.67269 11.1419 9.46094 11.3565 9.46094 11.6177C9.46094 11.879 9.67545 12.0935 9.9367 12.0935H14.2296L13.1048 13.2183C12.9178 13.4053 12.9178 13.7078 13.1048 13.892C13.1983 13.9855 13.3193 14.0323 13.4431 14.0323C13.5641 14.0323 13.6878 13.9855 13.7813 13.892L15.7202 11.9532C15.7642 11.9092 15.7999 11.857 15.8219 11.7992C15.8467 11.7415 15.8577 11.6782 15.8577 11.615C15.8577 11.5517 15.8439 11.4885 15.8219 11.4307C15.7999 11.3785 15.7642 11.3262 15.7202 11.2822Z" fill="#F98080"/>
<path d="M11.3222 13.0783C11.0581 13.0783 10.8464 13.2928 10.8464 13.554V19.2797H8.85532V3.95617H10.8464V9.68188C10.8464 9.94589 11.0609 10.1576 11.3222 10.1576C11.5862 10.1576 11.7979 9.94314 11.7979 9.68188V3.48041C11.7979 3.2164 11.5834 3.00464 11.3222 3.00464H8.85532V1.09607C8.85532 0.947566 8.78381 0.804561 8.66556 0.713808C8.54731 0.623055 8.3878 0.598304 8.24479 0.642305L0.379513 3.01289L0.332762 3.02664C0.308011 3.03489 0.28601 3.04039 0.261259 3.05414C0.236508 3.06239 0.217258 3.07889 0.195257 3.09264C0.176006 3.10639 0.156756 3.12014 0.137505 3.1394C0.118254 3.15315 0.104504 3.1724 0.0907532 3.19715C0.0825029 3.2054 0.0715024 3.2219 0.0632521 3.24115C0.0550018 3.2549 0.0440013 3.27415 0.035751 3.2934C0.0220006 3.3209 0.0110001 3.35115 0.00824996 3.38415C0.00274976 3.41165 0 3.44741 0 3.48041V19.7582C0 19.7912 0.00549986 19.8242 0.00824996 19.8545C0.0137502 19.8875 0.0220006 19.9177 0.035751 19.9452C0.0825027 20.0608 0.173256 20.1515 0.28876 20.1983C0.302511 20.2065 0.316261 20.212 0.335512 20.2175L8.24479 22.6018C8.2833 22.6156 8.3328 22.6211 8.37405 22.6211C8.47855 22.6211 8.58031 22.5881 8.66006 22.5248C8.77831 22.4341 8.84982 22.2966 8.84982 22.1426V20.234H11.3194C11.5834 20.234 11.7952 20.0195 11.7952 19.7582V13.5568C11.7979 13.2928 11.5862 13.0783 11.3222 13.0783Z" fill="#C81E1E"/>
</svg>
