<svg width="72" height="72" viewBox="0 0 72 72" fill="none" xmlns="http://www.w3.org/2000/svg">
<path d="M50.1354 57.8611C38.0619 65.6698 21.9441 62.2124 14.1354 50.1389C6.32675 38.0653 9.7841 21.9476 21.8576 14.1389C33.9312 6.3302 50.0489 9.78755 57.8576 21.8611C65.6663 33.9347 62.209 50.0524 50.1354 57.8611ZM24.3174 17.942C14.3442 24.3923 11.4884 37.706 17.9386 47.6792C24.3888 57.6523 37.7026 60.5082 47.6757 54.058C57.6489 47.6077 60.5047 34.294 54.0545 24.3208C47.6043 14.3477 34.2905 11.4918 24.3174 17.942Z" fill="#E5EFFF"/>
<path d="M40.1318 12.5911C40.349 11.3594 41.5274 10.5272 42.7356 10.8506C48.6273 12.4273 53.805 16.0321 57.3307 21.0672C61.2912 26.7234 62.8426 33.7212 61.6435 40.5212C60.4445 47.3212 56.5933 53.3663 50.9372 57.3268C45.902 60.8525 39.8036 62.469 33.728 61.9355C32.482 61.8261 31.6593 60.6411 31.8765 59.4094C32.0937 58.1777 33.269 57.3679 34.5167 57.4545C39.4048 57.7935 44.2886 56.453 48.3393 53.6166C53.0115 50.3452 56.1927 45.3517 57.1831 39.7347C58.1735 34.1177 56.892 28.3373 53.6206 23.6651C50.7842 19.6144 46.6534 16.6844 41.9442 15.3311C40.7421 14.9857 39.9146 13.8228 40.1318 12.5911Z" fill="#2E7FFF"/>
<path d="M25.8064 41.1831C25.048 41.1831 24.4048 41.0535 23.8768 40.7943C23.3584 40.5255 22.96 40.1799 22.6816 39.7575C22.4128 39.3351 22.2688 38.8887 22.2496 38.4183C22.24 38.3319 22.264 38.2647 22.3216 38.2167C22.3792 38.1687 22.4512 38.1447 22.5376 38.1447H23.3152C23.4016 38.1447 23.4784 38.1639 23.5456 38.2023C23.6128 38.2407 23.6656 38.3223 23.704 38.4471C23.8 38.8023 23.9536 39.0951 24.1648 39.3255C24.3856 39.5463 24.6352 39.7095 24.9136 39.8151C25.2016 39.9111 25.4992 39.9591 25.8064 39.9591C26.2192 39.9591 26.5936 39.8775 26.9296 39.7143C27.2752 39.5415 27.5488 39.2919 27.7504 38.9655C27.952 38.6295 28.0528 38.2263 28.0528 37.7559C28.0528 37.3239 27.952 36.9543 27.7504 36.6471C27.5584 36.3303 27.2896 36.0903 26.944 35.9271C26.608 35.7543 26.2288 35.6679 25.8064 35.6679C25.4896 35.6679 25.2304 35.7063 25.0288 35.7831C24.8272 35.8599 24.6544 35.9511 24.5104 36.0567C24.376 36.1623 24.2512 36.2535 24.136 36.3303C24.0304 36.4071 23.9104 36.4455 23.776 36.4455H23.0272C22.9408 36.4455 22.864 36.4167 22.7968 36.3591C22.7296 36.2919 22.7008 36.2151 22.7104 36.1287L23.1712 31.3191C23.1808 31.2039 23.2144 31.1175 23.272 31.0599C23.3392 30.9927 23.4256 30.9591 23.5312 30.9591H28.5568C28.6528 30.9591 28.7296 30.9927 28.7872 31.0599C28.8544 31.1175 28.888 31.1943 28.888 31.2903V31.8519C28.888 31.9575 28.8544 32.0391 28.7872 32.0967C28.7296 32.1543 28.6528 32.1831 28.5568 32.1831H24.4096L24.136 35.0199C24.2704 34.9335 24.4864 34.8327 24.784 34.7175C25.0816 34.5927 25.4896 34.5303 26.008 34.5303C26.4784 34.5303 26.92 34.6023 27.3328 34.7463C27.7552 34.8903 28.1296 35.1015 28.456 35.3799C28.7824 35.6583 29.0368 35.9991 29.2192 36.4023C29.4016 36.7959 29.4928 37.2519 29.4928 37.7703C29.4928 38.4999 29.3296 39.1191 29.0032 39.6279C28.6864 40.1367 28.2496 40.5255 27.6928 40.7943C27.1456 41.0535 26.5168 41.1831 25.8064 41.1831ZM34.7164 41.1831C34.054 41.1831 33.4924 41.0823 33.0316 40.8807C32.5804 40.6695 32.2108 40.3815 31.9228 40.0167C31.6348 39.6519 31.4236 39.2343 31.2892 38.7639C31.1644 38.2935 31.0924 37.7943 31.0732 37.2663C31.0636 37.0071 31.054 36.7335 31.0444 36.4455C31.0444 36.1575 31.0444 35.8695 31.0444 35.5815C31.054 35.2839 31.0636 35.0007 31.0732 34.7319C31.0828 34.2039 31.1548 33.7047 31.2892 33.2343C31.4332 32.7543 31.6444 32.3367 31.9228 31.9815C32.2108 31.6167 32.5852 31.3335 33.046 31.1319C33.5068 30.9207 34.0636 30.8151 34.7164 30.8151C35.3788 30.8151 35.9356 30.9207 36.3868 31.1319C36.8476 31.3335 37.222 31.6167 37.51 31.9815C37.798 32.3367 38.0092 32.7543 38.1436 33.2343C38.2876 33.7047 38.3644 34.2039 38.374 34.7319C38.3836 35.0007 38.3884 35.2839 38.3884 35.5815C38.398 35.8695 38.398 36.1575 38.3884 36.4455C38.3884 36.7335 38.3836 37.0071 38.374 37.2663C38.3644 37.7943 38.2876 38.2935 38.1436 38.7639C38.0092 39.2343 37.798 39.6519 37.51 40.0167C37.2316 40.3815 36.862 40.6695 36.4012 40.8807C35.95 41.0823 35.3884 41.1831 34.7164 41.1831ZM34.7164 39.9591C35.4652 39.9591 36.0172 39.7143 36.3724 39.2247C36.7372 38.7255 36.9244 38.0487 36.934 37.1943C36.9532 36.9159 36.9628 36.6471 36.9628 36.3879C36.9628 36.1191 36.9628 35.8551 36.9628 35.5959C36.9628 35.3271 36.9532 35.0631 36.934 34.8039C36.9244 33.9687 36.7372 33.3015 36.3724 32.8023C36.0172 32.2935 35.4652 32.0391 34.7164 32.0391C33.9772 32.0391 33.4252 32.2935 33.0604 32.8023C32.7052 33.3015 32.518 33.9687 32.4988 34.8039C32.4988 35.0631 32.494 35.3271 32.4844 35.5959C32.4844 35.8551 32.4844 36.1191 32.4844 36.3879C32.494 36.6471 32.4988 36.9159 32.4988 37.1943C32.518 38.0487 32.71 38.7255 33.0748 39.2247C33.4396 39.7143 33.9868 39.9591 34.7164 39.9591ZM40.8618 41.0391C40.6602 41.0391 40.5594 40.9431 40.5594 40.7511C40.5594 40.6935 40.5786 40.6407 40.617 40.5927L47.7306 31.2327C47.7978 31.1463 47.8602 31.0791 47.9178 31.0311C47.985 30.9831 48.081 30.9591 48.2058 30.9591H48.681C48.8826 30.9591 48.9834 31.0551 48.9834 31.2471C48.9834 31.3047 48.9642 31.3575 48.9258 31.4055L41.8266 40.7655C41.7594 40.8519 41.6922 40.9191 41.625 40.9671C41.5674 41.0151 41.4714 41.0391 41.337 41.0391H40.8618ZM47.457 41.1255C46.8234 41.1255 46.329 40.9479 45.9738 40.5927C45.6186 40.2375 45.4218 39.7719 45.3834 39.1959C45.3738 38.9463 45.369 38.7351 45.369 38.5623C45.369 38.3799 45.3738 38.1543 45.3834 37.8855C45.4122 37.3095 45.5994 36.8439 45.945 36.4887C46.2906 36.1239 46.7946 35.9415 47.457 35.9415C48.129 35.9415 48.633 36.1239 48.969 36.4887C49.3146 36.8439 49.5066 37.3095 49.545 37.8855C49.5642 38.1543 49.5738 38.3799 49.5738 38.5623C49.5738 38.7351 49.5642 38.9463 49.545 39.1959C49.5066 39.7719 49.305 40.2375 48.9402 40.5927C48.585 40.9479 48.0906 41.1255 47.457 41.1255ZM47.457 40.1751C47.7066 40.1751 47.9034 40.1223 48.0474 40.0167C48.201 39.9111 48.3114 39.7815 48.3786 39.6279C48.4458 39.4647 48.4842 39.3015 48.4938 39.1383C48.513 38.8791 48.5226 38.6775 48.5226 38.5335C48.5226 38.3799 48.513 38.1831 48.4938 37.9431C48.4842 37.6839 48.4026 37.4439 48.249 37.2231C48.0954 37.0023 47.8314 36.8919 47.457 36.8919C47.0922 36.8919 46.833 37.0023 46.6794 37.2231C46.5354 37.4439 46.4538 37.6839 46.4346 37.9431C46.425 38.1831 46.4202 38.3799 46.4202 38.5335C46.4202 38.6775 46.425 38.8791 46.4346 39.1383C46.4538 39.3015 46.4922 39.4647 46.5498 39.6279C46.617 39.7815 46.7226 39.9111 46.8666 40.0167C47.0202 40.1223 47.217 40.1751 47.457 40.1751ZM42.0714 36.0135C41.4378 36.0135 40.9434 35.8455 40.5882 35.5095C40.233 35.1735 40.0362 34.7175 39.9978 34.1415C39.9882 33.8919 39.9834 33.6807 39.9834 33.5079C39.9834 33.3255 39.9882 33.0999 39.9978 32.8311C40.0266 32.2551 40.2138 31.7895 40.5594 31.4343C40.905 31.0695 41.409 30.8871 42.0714 30.8871C42.7434 30.8871 43.2474 31.0695 43.5834 31.4343C43.929 31.7895 44.1162 32.2551 44.145 32.8311C44.1642 33.0999 44.1738 33.3255 44.1738 33.5079C44.1738 33.6807 44.1642 33.8919 44.145 34.1415C44.1162 34.7175 43.9194 35.1735 43.5546 35.5095C43.1994 35.8455 42.705 36.0135 42.0714 36.0135ZM42.0714 35.1207C42.321 35.1207 42.5178 35.0679 42.6618 34.9623C42.8154 34.8567 42.9258 34.7271 42.993 34.5735C43.0602 34.4103 43.0986 34.2471 43.1082 34.0839C43.1274 33.8247 43.137 33.6231 43.137 33.4791C43.137 33.3255 43.1274 33.1287 43.1082 32.8887C43.0986 32.6295 43.0122 32.3895 42.849 32.1687C42.6954 31.9479 42.4362 31.8375 42.0714 31.8375C41.7066 31.8375 41.4474 31.9479 41.2938 32.1687C41.1498 32.3895 41.0682 32.6295 41.049 32.8887C41.0394 33.1287 41.0346 33.3255 41.0346 33.4791C41.0346 33.6231 41.0394 33.8247 41.049 34.0839C41.0682 34.2471 41.1066 34.4103 41.1642 34.5735C41.2314 34.7271 41.337 34.8567 41.481 34.9623C41.625 35.0679 41.8218 35.1207 42.0714 35.1207Z" fill="#E5EFFF"/>
</svg>
