<svg width="50" height="50" viewBox="0 0 50 50" fill="none" xmlns="http://www.w3.org/2000/svg">
<rect width="50" height="50" rx="25" fill="#E5EFFF"/>
<path fill-rule="evenodd" clip-rule="evenodd" d="M20.4991 19C20.4991 17.8065 20.9732 16.6619 21.8171 15.818C22.6611 14.9741 23.8056 14.5 24.9991 14.5C26.1926 14.5 27.3372 14.9741 28.1811 15.818C29.025 16.6619 29.4991 17.8065 29.4991 19C29.4991 20.1935 29.025 21.3381 28.1811 22.182C27.3372 23.0259 26.1926 23.5 24.9991 23.5C23.8056 23.5 22.6611 23.0259 21.8171 22.182C20.9732 21.3381 20.4991 20.1935 20.4991 19ZM16.7501 33.105C16.7838 30.9395 17.6678 28.8741 19.2111 27.3546C20.7544 25.8351 22.8333 24.9834 24.9991 24.9834C27.1649 24.9834 29.2438 25.8351 30.7872 27.3546C32.3305 28.8741 33.2144 30.9395 33.2481 33.105C33.2507 33.2508 33.2108 33.3942 33.1332 33.5176C33.0555 33.641 32.9436 33.7392 32.8111 33.8C30.3603 34.9237 27.6953 35.5037 24.9991 35.5C22.2131 35.5 19.5661 34.892 17.1871 33.8C17.0546 33.7392 16.9427 33.641 16.8651 33.5176C16.7875 33.3942 16.7475 33.2508 16.7501 33.105Z" fill="#0051D0"/>
</svg>
