<svg width="26" height="27" viewBox="0 0 26 27" fill="none" xmlns="http://www.w3.org/2000/svg">
<path d="M12.9997 12.558C14.117 12.558 15.0228 11.6522 15.0228 10.5348C15.0228 9.4175 14.117 8.51172 12.9997 8.51172C11.8823 8.51172 10.9766 9.4175 10.9766 10.5348C10.9766 11.6522 11.8823 12.558 12.9997 12.558Z" fill="#E5EFFF"/>
<path d="M15.2426 12.5625H14.4447L13.7256 13.8926L12.9968 12.8916L12.2696 13.8926L11.5489 12.5625H10.7527C10.1084 12.5625 9.58594 13.0833 9.58594 13.7276L9.90038 17.5651C9.90038 18.2078 10.2652 18.7302 10.9079 18.7302H11.0176H14.9769H15.0849C15.7293 18.7302 16.0941 18.2078 16.0941 17.5651L16.4085 13.7276C16.4085 13.0833 15.8869 12.5625 15.2426 12.5625Z" fill="#E5EFFF"/>
<path d="M8.60581 12.7194C9.55308 12.7194 10.321 11.9515 10.321 11.0043C10.321 10.057 9.55308 9.28906 8.60581 9.28906C7.65854 9.28906 6.89062 10.057 6.89062 11.0043C6.89062 11.9515 7.65854 12.7194 8.60581 12.7194Z" fill="#E5EFFF"/>
<path d="M9.13369 13.9284L7.58669 12.7227H6.91069C6.36469 12.7227 5.92188 13.1655 5.92188 13.7115L6.18838 16.9647C6.18838 17.5107 6.49794 17.9535 7.04394 17.9535H7.13575H9.46194C9.45869 17.9153 9.45219 17.8788 9.45219 17.839L9.13369 13.9284Z" fill="#E5EFFF"/>
<path d="M17.3871 12.7194C18.3343 12.7194 19.1023 11.9515 19.1023 11.0043C19.1023 10.057 18.3343 9.28906 17.3871 9.28906C16.4398 9.28906 15.6719 10.057 15.6719 11.0043C15.6719 11.9515 16.4398 12.7194 17.3871 12.7194Z" fill="#E5EFFF"/>
<path d="M19.0833 12.7227H18.4057L16.8587 13.9284L16.5394 17.839C16.5394 17.8788 16.5329 17.9153 16.5312 17.9535H18.8558H18.9492C19.4952 17.9535 19.8048 17.5107 19.8048 16.9647L20.0713 13.7115C20.0721 13.1655 19.6293 12.7227 19.0833 12.7227Z" fill="#E5EFFF"/>
<path d="M24.7943 12.4137H23.972C23.4122 7.28766 19.3318 3.20809 14.2057 2.64747V1.82684C14.2057 1.16059 13.6663 0.621094 13 0.621094C12.3321 0.621094 11.7926 1.16059 11.7926 1.82684V2.64747C6.66656 3.20728 2.587 7.28766 2.02638 12.4137H1.20575C0.5395 12.4137 0 12.9548 0 13.6211C0 14.2873 0.5395 14.8268 1.20575 14.8268H2.02638C2.58619 19.9529 6.66656 24.0325 11.7926 24.5931V25.4153C11.7926 26.08 12.3321 26.6211 13 26.6211C13.6663 26.6211 14.2057 26.08 14.2057 25.4153V24.5931C19.3318 24.0333 23.4114 19.9529 23.972 14.8268H24.7943C25.4589 14.8268 26 14.2873 26 13.6211C26 12.9548 25.4589 12.4137 24.7943 12.4137ZM14.2057 22.5667V21.4975H11.7918V22.5667C7.77562 22.0272 4.59387 18.8438 4.05275 14.8277H5.122V12.4137H4.05275C4.59387 8.39753 7.77562 5.21578 11.7918 4.67628V5.74391H14.2057V4.67547C18.2219 5.21497 21.4053 8.39672 21.9448 12.4129H20.8756V14.8268H21.9448C21.4061 18.8438 18.2227 22.0272 14.2057 22.5667Z" fill="#E5EFFF"/>
</svg>
