<svg width="26" height="27" viewBox="0 0 26 27" fill="none" xmlns="http://www.w3.org/2000/svg">
<path d="M12.9997 12.5599C14.117 12.5599 15.0228 11.6541 15.0228 10.5368C15.0228 9.41946 14.117 8.51367 12.9997 8.51367C11.8823 8.51367 10.9766 9.41946 10.9766 10.5368C10.9766 11.6541 11.8823 12.5599 12.9997 12.5599Z" fill="#0051D0"/>
<path d="M15.2465 12.5605H14.4486L13.7295 13.8906L13.0007 12.8896L12.2735 13.8906L11.5528 12.5605H10.7566C10.1123 12.5605 9.58984 13.0814 9.58984 13.7257L9.90428 17.5631C9.90428 18.2058 10.2691 18.7282 10.9118 18.7282H11.0215H14.9808H15.0888C15.7332 18.7282 16.098 18.2058 16.098 17.5631L16.4124 13.7257C16.4124 13.0814 15.8908 12.5605 15.2465 12.5605Z" fill="#0051D0"/>
<path d="M8.60972 12.7194C9.55699 12.7194 10.3249 11.9515 10.3249 11.0043C10.3249 10.057 9.55699 9.28906 8.60972 9.28906C7.66245 9.28906 6.89453 10.057 6.89453 11.0043C6.89453 11.9515 7.66245 12.7194 8.60972 12.7194Z" fill="#0051D0"/>
<path d="M9.13759 13.9284L7.59059 12.7227H6.91459C6.36859 12.7227 5.92578 13.1655 5.92578 13.7115L6.19228 16.9647C6.19228 17.5107 6.50184 17.9535 7.04784 17.9535H7.13966H9.46584C9.46259 17.9153 9.45609 17.8788 9.45609 17.839L9.13759 13.9284Z" fill="#0051D0"/>
<path d="M17.391 12.7194C18.3382 12.7194 19.1062 11.9515 19.1062 11.0043C19.1062 10.057 18.3382 9.28906 17.391 9.28906C16.4437 9.28906 15.6758 10.057 15.6758 11.0043C15.6758 11.9515 16.4437 12.7194 17.391 12.7194Z" fill="#0051D0"/>
<path d="M19.0872 12.7227H18.4096L16.8626 13.9284L16.5433 17.839C16.5433 17.8788 16.5368 17.9153 16.5352 17.9535H18.8597H18.9532C19.4992 17.9535 19.8087 17.5107 19.8087 16.9647L20.0752 13.7115C20.076 13.1655 19.6332 12.7227 19.0872 12.7227Z" fill="#0051D0"/>
<path d="M24.7943 12.4137H23.972C23.4122 7.28766 19.3318 3.20809 14.2057 2.64747V1.82684C14.2057 1.16059 13.6663 0.621094 13 0.621094C12.3321 0.621094 11.7926 1.16059 11.7926 1.82684V2.64747C6.66656 3.20728 2.587 7.28766 2.02638 12.4137H1.20575C0.5395 12.4137 0 12.9548 0 13.6211C0 14.2873 0.5395 14.8268 1.20575 14.8268H2.02638C2.58619 19.9529 6.66656 24.0325 11.7926 24.5931V25.4153C11.7926 26.08 12.3321 26.6211 13 26.6211C13.6663 26.6211 14.2057 26.08 14.2057 25.4153V24.5931C19.3318 24.0333 23.4114 19.9529 23.972 14.8268H24.7943C25.4589 14.8268 26 14.2873 26 13.6211C26 12.9548 25.4589 12.4137 24.7943 12.4137ZM14.2057 22.5667V21.4975H11.7918V22.5667C7.77562 22.0272 4.59387 18.8438 4.05275 14.8277H5.122V12.4137H4.05275C4.59387 8.39753 7.77562 5.21578 11.7918 4.67628V5.74391H14.2057V4.67547C18.2219 5.21497 21.4053 8.39672 21.9448 12.4129H20.8756V14.8268H21.9448C21.4061 18.8438 18.2227 22.0272 14.2057 22.5667Z" fill="#8AB7FF"/>
</svg>
