<svg width="26" height="27" viewBox="0 0 26 27" fill="none" xmlns="http://www.w3.org/2000/svg">
<path d="M19.9945 13.877H6.17408C6.04649 13.877 5.92768 13.9298 5.84408 14.0266C5.7605 14.1189 5.72089 14.2466 5.73848 14.3698L6.5261 20.9522H19.6425L20.4345 14.3698C20.4477 14.2466 20.4081 14.1189 20.3245 14.0266C20.2409 13.9298 20.1221 13.877 19.9945 13.877Z" fill="#8AB7FF"/>
<path d="M19.0444 21.832H7.12479C6.35919 21.832 5.73438 22.4568 5.73438 23.2268C5.73438 23.9968 6.35919 24.6216 7.12479 24.6216H19.0444C19.81 24.6216 20.4348 23.9968 20.4348 23.2268C20.4348 22.4568 19.81 21.832 19.0444 21.832Z" fill="#8AB7FF"/>
<path d="M18.6878 11.1456L16.7567 11.0137C15.7875 11.9449 14.4746 12.521 13.0275 12.521C11.5805 12.521 10.2678 11.945 9.29858 11.0139L7.37068 11.1456C5.4807 11.2747 4 12.8599 4 14.7543V19.7669C4 20.7188 4.45861 21.5617 5.16287 22.0986C5.30244 21.8562 5.4836 21.6444 5.69915 21.4688L4.86088 14.4738C4.81576 14.0993 4.93371 13.7224 5.18422 13.4404C5.43473 13.1585 5.79459 12.9967 6.17143 12.9967H19.9949C20.3717 12.9967 20.7316 13.1585 20.9821 13.4404C21.2326 13.7224 21.3506 14.0993 21.3055 14.4742L20.4671 21.4698C20.6646 21.631 20.8352 21.8206 20.9696 22.0386C21.6314 21.5001 22.0585 20.6847 22.0585 19.7669V14.7543C22.0585 12.8599 20.5778 11.2747 18.6878 11.1456Z" fill="#0051D0"/>
<path d="M13.0256 11.6411C15.5164 11.6411 17.5356 9.6219 17.5356 7.13109C17.5356 4.64029 15.5164 2.62109 13.0256 2.62109C10.5348 2.62109 8.51562 4.64029 8.51562 7.13109C8.51562 9.6219 10.5348 11.6411 13.0256 11.6411Z" fill="#0051D0"/>
</svg>
