<svg width="19" height="23" viewBox="0 0 19 23" fill="none" xmlns="http://www.w3.org/2000/svg">
<path d="M15.9945 11.875H2.17408C2.04649 11.875 1.92768 11.9278 1.84408 12.0246C1.7605 12.117 1.72089 12.2446 1.73848 12.3678L2.5261 18.9502H15.6425L16.4345 12.3678C16.4477 12.2446 16.4081 12.117 16.3245 12.0246C16.2409 11.9278 16.1221 11.875 15.9945 11.875Z" fill="#E5EFFF"/>
<path d="M15.0444 19.832H3.12479C2.35919 19.832 1.73438 20.4568 1.73438 21.2268C1.73438 21.9968 2.35919 22.6216 3.12479 22.6216H15.0444C15.81 22.6216 16.4348 21.9968 16.4348 21.2268C16.4348 20.4568 15.81 19.832 15.0444 19.832Z" fill="#E5EFFF"/>
<path d="M14.6878 9.14757L12.7567 9.01562C11.7875 9.94687 10.4746 10.523 9.02752 10.523C7.58055 10.523 6.26777 9.94695 5.29858 9.01584L3.37068 9.14757C1.4807 9.27669 0 10.8618 0 12.7563V17.7688C0 18.7208 0.458611 19.5637 1.16287 20.1006C1.30244 19.8582 1.4836 19.6464 1.69915 19.4707L0.860879 12.4757C0.815762 12.1012 0.933711 11.7244 1.18422 11.4423C1.43473 11.1604 1.79459 10.9987 2.17143 10.9987H15.9949C16.3717 10.9987 16.7316 11.1604 16.9821 11.4423C17.2326 11.7244 17.3506 12.1012 17.3055 12.4761L16.4671 19.4717C16.6646 19.6329 16.8352 19.8226 16.9696 20.0405C17.6314 19.502 18.0585 18.6867 18.0585 17.7688V12.7563C18.0585 10.8618 16.5778 9.27669 14.6878 9.14757Z" fill="#E5EFFF"/>
<path d="M9.02563 9.64109C11.5164 9.64109 13.5356 7.6219 13.5356 5.13109C13.5356 2.64029 11.5164 0.621094 9.02563 0.621094C6.53482 0.621094 4.51562 2.64029 4.51562 5.13109C4.51562 7.6219 6.53482 9.64109 9.02563 9.64109Z" fill="#E5EFFF"/>
</svg>
