<svg width="24" height="24" viewBox="0 0 24 24" fill="none" xmlns="http://www.w3.org/2000/svg">
<g clip-path="url(#clip0_7128_65063)">
<path d="M23.2536 16.1725C23.736 14.8725 24 13.4665 24 11.9986C24 10.5308 23.736 9.12472 23.2536 7.82473L12 6.78125L0.746391 7.82473C0.264047 9.12472 0 10.5308 0 11.9986C0 13.4665 0.264047 14.8725 0.746391 16.1725L12 17.216L23.2536 16.1725Z" fill="#F0F0F0"/>
<path d="M12.0037 24.0019C17.1632 24.0019 21.5617 20.7454 23.2572 16.1758H0.75C2.44556 20.7454 6.84403 24.0019 12.0037 24.0019Z" fill="black"/>
<path d="M12.0037 0C6.84403 0 2.44556 3.2565 0.75 7.82611H23.2573C21.5618 3.2565 17.1632 0 12.0037 0Z" fill="#6DA544"/>
<path d="M-0.0292353 11.8748C-0.0292353 17.0343 3.22726 21.4328 7.79688 23.1283L7.79688 0.621094C3.22726 2.31666 -0.0292353 6.71513 -0.0292353 11.8748Z" fill="#D80027"/>
</g>
<defs>
<clipPath id="clip0_7128_65063">
<rect width="24" height="24" fill="white"/>
</clipPath>
</defs>
</svg>
