<svg width="24" height="24" viewBox="0 0 24 24" fill="none" xmlns="http://www.w3.org/2000/svg">
<g clip-path="url(#clip0_7128_64986)">
<path d="M12 24C18.6274 24 24 18.6274 24 12C24 5.37258 18.6274 0 12 0C5.37258 0 0 5.37258 0 12C0 18.6274 5.37258 24 12 24Z" fill="#0052B4"/>
<path d="M11.9973 4.69531L12.3859 5.89104H13.6431L12.6259 6.63003L13.0145 7.82576L11.9973 7.08673L10.9802 7.82576L11.3687 6.63003L10.3516 5.89104H11.6088L11.9973 4.69531Z" fill="#FFDA44"/>
<path d="M6.83377 6.83381L7.95408 7.40455L8.84307 6.51562L8.64633 7.75735L9.76659 8.32813L8.52483 8.52483L8.32815 9.76663L7.75735 8.64637L6.51562 8.84311L7.40461 7.95412L6.83377 6.83381Z" fill="#FFDA44"/>
<path d="M4.69531 12.0013L5.89104 11.6128V10.3555L6.62998 11.3727L7.82576 10.9842L7.08668 12.0013L7.82576 13.0184L6.62998 12.6299L5.89104 13.6471V12.3898L4.69531 12.0013Z" fill="#FFDA44"/>
<path d="M6.83377 17.1633L7.40457 16.043L6.51562 15.154L7.7574 15.3508L8.3281 14.2305L8.52483 15.4723L9.76655 15.669L8.64643 16.2398L8.84307 17.4815L7.95408 16.5925L6.83377 17.1633Z" fill="#FFDA44"/>
<path d="M11.9973 19.3062L11.6087 18.1104H10.3516L11.3687 17.3715L10.9802 16.1758L11.9973 16.9147L13.0145 16.1758L12.6259 17.3715L13.6431 18.1104H12.3858L11.9973 19.3062Z" fill="#FFDA44"/>
<path d="M17.1671 17.1633L16.0468 16.5925L15.1578 17.4815L15.3545 16.2397L14.2344 15.669L15.4761 15.4723L15.6728 14.2305L16.2435 15.3508L17.4852 15.154L16.5963 16.0431L17.1671 17.1633Z" fill="#FFDA44"/>
<path d="M19.3023 12.0013L18.1066 12.3898V13.6471L17.3676 12.6299L16.1719 13.0184L16.9109 12.0013L16.1719 10.9842L17.3676 11.3727L18.1066 10.3555V11.6128L19.3023 12.0013Z" fill="#FFDA44"/>
<path d="M17.1671 6.83377L16.5963 7.95407L17.4853 8.84306L16.2435 8.64628L15.6728 9.76654L15.4761 8.52478L14.2344 8.32805L15.3545 7.7573L15.1578 6.51562L16.0469 7.40455L17.1671 6.83377Z" fill="#FFDA44"/>
</g>
<defs>
<clipPath id="clip0_7128_64986">
<rect width="24" height="24" fill="white"/>
</clipPath>
</defs>
</svg>
