<svg width="24" height="24" viewBox="0 0 24 24" fill="none" xmlns="http://www.w3.org/2000/svg">
<g clip-path="url(#clip0_7128_65054)">
<mask id="mask0_7128_65054" style="mask-type:luminance" maskUnits="userSpaceOnUse" x="0" y="0" width="24" height="24">
<path d="M23.0947 0.863281H0.0546875V23.9033H23.0947V0.863281Z" fill="white"/>
</mask>
<g mask="url(#mask0_7128_65054)">
<path d="M11.5746 23.9033C17.937 23.9033 23.0946 18.7456 23.0946 12.3833C23.0946 6.02096 17.937 0.863281 11.5746 0.863281C5.21236 0.863281 0.0546875 6.02096 0.0546875 12.3833C0.0546875 18.7456 5.21236 23.9033 11.5746 23.9033Z" fill="#F0F0F0"/>
<path d="M0.0546875 12.3854C0.0546875 17.3387 3.18093 21.5612 7.56775 23.189V1.58203C3.18093 3.20968 0.0546875 7.4323 0.0546875 12.3854Z" fill="#49B467"/>
<path d="M23.0912 12.3815C23.0912 7.42839 19.9649 3.20578 15.5781 1.57812V23.1851C19.9649 21.5573 23.0912 17.3347 23.0912 12.3815Z" fill="#49B467"/>
</g>
</g>
<defs>
<clipPath id="clip0_7128_65054">
<rect width="24" height="24" fill="white"/>
</clipPath>
</defs>
</svg>
