<svg width="120" height="41" viewBox="0 0 120 41" fill="none" xmlns="http://www.w3.org/2000/svg">
<path d="M40.8456 32.9264C39.4429 32.951 38.0531 32.6534 36.7834 32.0565C35.6431 31.5192 34.6583 30.7005 33.9216 29.6775C33.2176 28.7102 32.8426 27.5424 32.8517 26.346C32.8517 24.3163 33.6708 22.7216 35.3091 21.5618C36.9473 20.402 39.1059 19.6047 41.7851 19.1697L47.3826 18.3543V17.5823C47.3826 16.471 47.1259 15.6251 46.6149 15.0184C46.1039 14.4117 45.2058 14.1224 43.9227 14.1224C42.9804 14.1224 42.2258 14.3073 41.6589 14.677C41.0964 15.0367 40.6388 15.5385 40.3324 16.1318C40.2354 16.3036 40.0935 16.4457 39.9219 16.543C39.7503 16.6403 39.5554 16.6891 39.3582 16.6841H35.2873C35.1555 16.6911 35.0236 16.6699 34.9006 16.6219C34.7776 16.5739 34.6663 16.5002 34.574 16.4058C34.4909 16.3205 34.4282 16.2175 34.3905 16.1045C34.3529 15.9915 34.3413 15.8715 34.3566 15.7534C34.3931 15.1451 34.5839 14.5561 34.9111 14.042C35.3602 13.2971 35.9391 12.6386 36.6203 12.0979C37.5043 11.3931 38.5044 10.8478 39.5757 10.4865C40.7702 10.0602 42.2374 9.84713 43.9771 9.84713C45.5395 9.81361 47.0972 10.0294 48.5916 10.4865C49.7435 10.8393 50.7976 11.455 51.6709 12.2849C52.4257 13.0421 53.0047 13.956 53.3671 14.9618C53.7446 16.0077 53.9345 17.1119 53.9282 18.2238V31.4281C53.935 31.5704 53.912 31.7126 53.8606 31.8455C53.8093 31.9784 53.7307 32.0991 53.63 32.1998C53.5292 32.3006 53.4085 32.3791 53.2756 32.4305C53.1427 32.4818 53.0006 32.5048 52.8582 32.498H48.6678C48.5328 32.5004 48.3987 32.4752 48.2739 32.424C48.149 32.3727 48.0358 32.2966 47.9414 32.2001C47.8413 32.0988 47.763 31.978 47.7114 31.8452C47.6597 31.7124 47.6359 31.5704 47.6413 31.4281V29.8471C47.2304 30.4332 46.7257 30.9476 46.1474 31.3694C45.4657 31.868 44.7068 32.2515 43.901 32.5045C42.9108 32.8039 41.8799 32.9462 40.8456 32.9264ZM42.5549 28.4815C43.4325 28.4961 44.2998 28.2905 45.0775 27.8834C45.8322 27.464 46.4396 26.8225 46.8172 26.0459C47.2434 25.2195 47.4608 24.1793 47.4695 22.9253V22.199L43.4943 22.8514C41.9561 23.108 40.8311 23.4929 40.1193 24.0061C39.406 24.5171 39.0516 25.1456 39.0516 25.885C39.041 26.3987 39.2146 26.8993 39.5409 27.2963C39.8868 27.7075 40.3377 28.0171 40.8456 28.1922C41.3936 28.3898 41.9725 28.4878 42.5549 28.4815Z" fill="white"/>
<path d="M60.1266 32.4995C59.9916 32.5016 59.8577 32.4763 59.7328 32.4251C59.608 32.3739 59.4948 32.2979 59.4002 32.2016C59.3008 32.0999 59.2231 31.979 59.1719 31.8462C59.1207 31.7135 59.097 31.5718 59.1023 31.4296V11.3426C59.0969 11.2008 59.1205 11.0593 59.1718 10.9269C59.223 10.7945 59.3008 10.674 59.4002 10.5728C59.4945 10.4761 59.6076 10.3998 59.7325 10.3485C59.8575 10.2973 59.9916 10.2722 60.1266 10.2749H64.1018C64.3798 10.2726 64.6477 10.3796 64.8477 10.5728C64.9535 10.6705 65.037 10.7898 65.0925 10.9226C65.148 11.0555 65.1743 11.1987 65.1695 11.3426V12.7866C65.8001 11.937 66.6102 11.2369 67.542 10.7359C68.6522 10.1417 69.8927 9.83305 71.1519 9.83777C74.4602 9.78123 76.7262 11.0345 77.9498 13.5977C78.6379 12.4555 79.6193 11.5184 80.792 10.8838C82.0325 10.2046 83.4227 9.84516 84.837 9.83795C86.2513 9.83074 87.6451 10.176 88.8925 10.8424C90.1294 11.5573 91.1198 12.6312 91.7325 13.9217C92.4284 15.3019 92.7778 17.0749 92.7807 19.2408V31.4187C92.7857 31.5612 92.7615 31.7032 92.7095 31.836C92.6575 31.9688 92.5789 32.0895 92.4784 32.1907C92.3843 32.2869 92.2715 32.363 92.147 32.4142C92.0225 32.4654 91.8889 32.4907 91.7543 32.4886H87.5246C87.3894 32.4908 87.2551 32.4655 87.1299 32.4143C87.0046 32.3631 86.8911 32.287 86.7961 32.1907C86.6964 32.0891 86.6184 31.9683 86.5668 31.8355C86.5152 31.7028 86.4911 31.561 86.496 31.4187V19.5909C86.496 18.4225 86.325 17.504 85.9828 16.8357C85.6999 16.2247 85.229 15.7203 84.6389 15.3961C84.0626 15.1052 83.4252 14.9561 82.7796 14.9612C82.1733 14.9652 81.5768 15.1143 81.0399 15.3961C80.4464 15.7204 79.9684 16.2212 79.6721 16.8292C79.3154 17.4961 79.1371 18.4145 79.1371 19.5844V31.4231C79.1439 31.565 79.121 31.7068 79.0699 31.8394C79.0188 31.972 78.9407 32.0924 78.8404 32.1931C78.7401 32.2938 78.62 32.3725 78.4876 32.4241C78.3552 32.4757 78.2135 32.4992 78.0716 32.493H73.8876C73.7462 32.4975 73.6053 32.4734 73.4734 32.4222C73.3415 32.371 73.2213 32.2938 73.1199 32.1951C73.0202 32.0936 72.9423 31.9727 72.891 31.8399C72.8398 31.7071 72.8163 31.5653 72.822 31.4231V19.5909C72.822 18.4232 72.648 17.5033 72.3088 16.8357C72.025 16.2239 71.5524 15.7193 70.9605 15.3961C70.3988 15.108 69.7761 14.9588 69.1447 14.9612C68.5323 14.9647 67.9303 15.1193 67.392 15.4113C66.7946 15.7376 66.3102 16.2373 66.0024 16.8444C65.6458 17.4997 65.4682 18.3964 65.4696 19.5344V31.4165C65.4745 31.5588 65.4505 31.7007 65.3989 31.8334C65.3473 31.9661 65.2693 32.0869 65.1695 32.1885C65.0745 32.2849 64.961 32.3609 64.8358 32.4122C64.7106 32.4634 64.5763 32.4886 64.441 32.4865L60.1266 32.4995Z" fill="white"/>
<path d="M99.0141 40.6226C98.8722 40.6291 98.7304 40.6059 98.598 40.5546C98.4655 40.5032 98.3451 40.4248 98.2447 40.3243C98.1442 40.2238 98.0658 40.1035 98.0144 39.971C97.9631 39.8386 97.9399 39.6968 97.9464 39.5549V11.3435C97.9399 11.2016 97.9631 11.0598 98.0144 10.9273C98.0658 10.7948 98.1442 10.6745 98.2447 10.574C98.3451 10.4736 98.4655 10.3951 98.598 10.3438C98.7304 10.2924 98.8722 10.2693 99.0141 10.2758H103.076C103.218 10.2692 103.36 10.2924 103.492 10.3438C103.625 10.3952 103.745 10.4736 103.845 10.5741C103.945 10.6746 104.024 10.795 104.075 10.9275C104.126 11.06 104.149 11.2017 104.142 11.3435V12.9658C104.852 12.0342 105.758 11.269 106.795 10.7237C107.875 10.1438 109.228 9.85388 110.853 9.85388C112.177 9.8251 113.493 10.0648 114.721 10.5585C115.789 11.0083 116.74 11.6964 117.501 12.57C118.281 13.4914 118.872 14.5578 119.24 15.708C119.675 17.0496 119.912 18.4473 119.945 19.8571C119.974 20.3964 119.988 20.9089 119.988 21.3946C119.988 21.8803 119.974 22.4072 119.945 22.9755C119.935 24.3407 119.715 25.6962 119.292 26.9943C118.917 28.154 118.315 29.228 117.522 30.154C116.752 31.0379 115.796 31.7398 114.721 32.209C113.496 32.7159 112.179 32.9625 110.853 32.9331C109.548 32.9645 108.254 32.6936 107.071 32.1416C106.036 31.6412 105.135 30.9009 104.444 29.9822V39.5505C104.448 39.6926 104.424 39.8341 104.372 39.9664C104.32 40.0988 104.242 40.2192 104.142 40.3203C104.048 40.417 103.935 40.4934 103.81 40.5446C103.685 40.5958 103.551 40.6209 103.416 40.6183L99.0141 40.6226ZM108.93 27.7923C110.018 27.7923 110.866 27.5597 111.494 27.0878C112.12 26.6179 112.589 25.9709 112.843 25.2306C113.12 24.4153 113.285 23.5659 113.332 22.7059C113.388 21.8239 113.388 20.9392 113.332 20.0572C113.285 19.1987 113.12 18.3506 112.843 17.5368C112.59 16.7957 112.12 16.1478 111.494 15.6775C110.865 15.2078 110.01 14.9722 108.93 14.9708C107.875 14.9708 107.02 15.2129 106.364 15.6971C105.726 16.1607 105.237 16.7999 104.955 17.5368C104.663 18.3031 104.49 19.11 104.444 19.9289C104.412 20.4421 104.398 20.9705 104.398 21.512C104.398 22.0535 104.412 22.5993 104.444 23.1365C104.466 23.9122 104.647 24.6752 104.975 25.3785C105.299 26.0759 105.801 26.6758 106.43 27.1182C107.071 27.5749 107.904 27.7923 108.93 27.7923Z" fill="white"/>
<path d="M15.9844 33.2939L26.0464 33.2309L33.688 0.609375L16.5585 7.76606L15.9844 33.2939Z" fill="white"/>
<path d="M15.9095 33.2939H15.4811L0 0.609375L15.4811 8.03354L15.9095 33.2939Z" fill="white"/>
</svg>
