<svg width="120" height="41" viewBox="0 0 120 41" fill="none" xmlns="http://www.w3.org/2000/svg">
<path d="M40.8495 32.6158C39.4468 32.6405 38.057 32.3429 36.7873 31.746C35.647 31.2087 34.6622 30.3899 33.9255 29.367C33.2215 28.3996 32.8465 27.2318 32.8556 26.0354C32.8556 24.0058 33.6747 22.4111 35.313 21.2513C36.9512 20.0915 39.1098 19.2941 41.789 18.8592L47.3865 18.0437V17.2717C47.3865 16.1605 47.1299 15.3146 46.6188 14.7078C46.1078 14.1011 45.2097 13.8119 43.9266 13.8119C42.9843 13.8119 42.2297 13.9967 41.6629 14.3664C41.1003 14.7261 40.6427 15.228 40.3363 15.8212C40.2393 15.993 40.0974 16.1352 39.9258 16.2325C39.7542 16.3298 39.5593 16.3786 39.3621 16.3736H35.2912C35.1594 16.3806 35.0275 16.3594 34.9045 16.3114C34.7815 16.2634 34.6702 16.1897 34.5779 16.0952C34.4948 16.01 34.4321 15.907 34.3944 15.794C34.3568 15.681 34.3452 15.561 34.3605 15.4429C34.397 14.8345 34.5878 14.2456 34.915 13.7314C35.3641 12.9865 35.943 12.3281 36.6243 11.7873C37.5083 11.0826 38.5083 10.5373 39.5796 10.1759C40.7742 9.7497 42.2413 9.53659 43.981 9.53659C45.5434 9.50307 47.1011 9.71889 48.5955 10.1759C49.7474 10.5288 50.8015 11.1444 51.6748 11.9743C52.4296 12.7316 53.0086 13.6454 53.371 14.6513C53.7485 15.6971 53.9384 16.8014 53.9321 17.9132V31.1175C53.9389 31.2598 53.9159 31.402 53.8646 31.5349C53.8132 31.6678 53.7346 31.7885 53.6339 31.8893C53.5331 31.99 53.4124 32.0686 53.2795 32.1199C53.1466 32.1713 53.0045 32.1943 52.8622 32.1874H48.6717C48.5367 32.1898 48.4027 32.1647 48.2778 32.1134C48.1529 32.0622 48.0397 31.986 47.9453 31.8895C47.8452 31.7882 47.7669 31.6674 47.7153 31.5346C47.6636 31.4019 47.6398 31.2599 47.6452 31.1175V29.5366C47.2343 30.1227 46.7296 30.637 46.1513 31.0588C45.4696 31.5575 44.7107 31.9409 43.9049 32.194C42.9147 32.4933 41.8838 32.6357 40.8495 32.6158ZM42.5588 28.1709C43.4364 28.1855 44.3037 27.9799 45.0814 27.5729C45.8361 27.1535 46.4435 26.5119 46.8211 25.7353C47.2473 24.909 47.4647 23.8688 47.4734 22.6148V21.8884L43.4982 22.5408C41.9601 22.7974 40.835 23.1823 40.1232 23.6955C39.4099 24.2066 39.0555 24.835 39.0555 25.5744C39.0449 26.0882 39.2185 26.5888 39.5448 26.9858C39.8907 27.3969 40.3416 27.7065 40.8495 27.8817C41.3975 28.0793 41.9764 28.1772 42.5588 28.1709Z" fill="#0061F9"/>
<path d="M60.1227 32.1899C59.9877 32.1921 59.8538 32.1668 59.7289 32.1156C59.6041 32.0643 59.4909 31.9883 59.3963 31.892C59.2969 31.7903 59.2192 31.6694 59.168 31.5367C59.1168 31.4039 59.0931 31.2622 59.0984 31.12V11.033C59.093 10.8912 59.1166 10.7497 59.1679 10.6174C59.2191 10.485 59.2969 10.3645 59.3963 10.2632C59.4906 10.1665 59.6037 10.0902 59.7286 10.039C59.8535 9.98772 59.9877 9.96265 60.1227 9.9653H64.0979C64.3759 9.96305 64.6438 10.07 64.8438 10.2632C64.9495 10.3609 65.033 10.4802 65.0886 10.6131C65.1441 10.7459 65.1704 10.8891 65.1656 11.033V12.477C65.7962 11.6275 66.6063 10.9273 67.5381 10.4263C68.6483 9.83212 69.8888 9.52348 71.148 9.5282C74.4563 9.47166 76.7223 10.725 77.9459 13.2881C78.634 12.1459 79.6154 11.2089 80.7881 10.5742C82.0286 9.89502 83.4188 9.53559 84.8331 9.52838C86.2474 9.52117 87.6412 9.86639 88.8886 10.5329C90.1255 11.2477 91.1159 12.3216 91.7286 13.6121C92.4245 14.9923 92.7739 16.7653 92.7768 18.9313V31.1091C92.7818 31.2516 92.7576 31.3937 92.7056 31.5264C92.6536 31.6592 92.575 31.7799 92.4745 31.8811C92.3804 31.9774 92.2676 32.0534 92.1431 32.1046C92.0186 32.1558 91.885 32.1812 91.7504 32.1791H87.5207C87.3855 32.1812 87.2512 32.156 87.1259 32.1048C87.0007 32.0536 86.8872 31.9775 86.7922 31.8811C86.6925 31.7795 86.6145 31.6587 86.5629 31.526C86.5113 31.3933 86.4872 31.2514 86.4921 31.1091V19.2814C86.4921 18.1129 86.3211 17.1945 85.9789 16.5261C85.696 15.9152 85.2251 15.4107 84.635 15.0865C84.0587 14.7956 83.4213 14.6465 82.7757 14.6516C82.1694 14.6556 81.5729 14.8047 81.036 15.0865C80.4425 15.4109 79.9645 15.9117 79.6682 16.5196C79.3115 17.1865 79.1332 18.1049 79.1332 19.2749V31.1135C79.14 31.2554 79.1171 31.3972 79.066 31.5298C79.0149 31.6624 78.9368 31.7829 78.8365 31.8836C78.7362 31.9842 78.6161 32.0629 78.4837 32.1145C78.3513 32.1662 78.2096 32.1896 78.0676 32.1834H73.8837C73.7423 32.1879 73.6014 32.1638 73.4695 32.1126C73.3376 32.0614 73.2174 31.9842 73.116 31.8855C73.0163 31.784 72.9384 31.6631 72.8871 31.5303C72.8359 31.3976 72.8124 31.2557 72.8181 31.1135V19.2814C72.8181 18.1136 72.6441 17.1937 72.3049 16.5261C72.0211 15.9143 71.5485 15.4098 70.9566 15.0865C70.3949 14.7984 69.7722 14.6493 69.1408 14.6516C68.5284 14.6551 67.9264 14.8098 67.3881 15.1018C66.7907 15.4281 66.3063 15.9277 65.9985 16.5348C65.6419 17.1901 65.4643 18.0868 65.4657 19.2248V31.107C65.4706 31.2493 65.4466 31.3911 65.395 31.5238C65.3434 31.6565 65.2654 31.7773 65.1656 31.879C65.0706 31.9753 64.9571 32.0514 64.8319 32.1026C64.7067 32.1538 64.5724 32.1791 64.4371 32.1769L60.1227 32.1899Z" fill="#0061F9"/>
<path d="M99.0141 40.3121C98.8722 40.3186 98.7304 40.2954 98.598 40.244C98.4655 40.1927 98.3451 40.1142 98.2447 40.0138C98.1442 39.9133 98.0658 39.793 98.0144 39.6605C97.9631 39.528 97.9399 39.3863 97.9464 39.2443V11.0329C97.9399 10.891 97.9631 10.7493 98.0144 10.6168C98.0658 10.4843 98.1442 10.364 98.2447 10.2635C98.3451 10.163 98.4655 10.0846 98.598 10.0332C98.7304 9.98188 98.8722 9.95871 99.0141 9.96521H103.076C103.218 9.95869 103.36 9.98186 103.492 10.0332C103.625 10.0846 103.745 10.1631 103.845 10.2636C103.945 10.3641 104.024 10.4845 104.075 10.6169C104.126 10.7494 104.149 10.8911 104.142 11.0329V12.6552C104.852 11.7236 105.758 10.9584 106.795 10.4132C107.875 9.83328 109.228 9.54333 110.853 9.54333C112.177 9.51455 113.493 9.75423 114.721 10.2479C115.789 10.6978 116.74 11.3858 117.501 12.2594C118.281 13.1809 118.872 14.2472 119.24 15.3974C119.675 16.7391 119.912 18.1367 119.945 19.5466C119.974 20.0859 119.988 20.5984 119.988 21.0841C119.988 21.5697 119.974 22.0967 119.945 22.665C119.935 24.0302 119.715 25.3857 119.292 26.6837C118.917 27.8435 118.315 28.9174 117.522 29.8434C116.752 30.7273 115.796 31.4292 114.721 31.8984C113.496 32.4053 112.179 32.6519 110.853 32.6226C109.548 32.654 108.254 32.3831 107.071 31.831C106.036 31.3307 105.135 30.5903 104.444 29.6716V39.24C104.448 39.3821 104.424 39.5236 104.372 39.6559C104.32 39.7882 104.242 39.9086 104.142 40.0098C104.048 40.1065 103.935 40.1828 103.81 40.234C103.685 40.2853 103.551 40.3104 103.416 40.3077L99.0141 40.3121ZM108.93 27.4818C110.018 27.4818 110.866 27.2491 111.494 26.7772C112.12 26.3073 112.589 25.6603 112.843 24.9201C113.12 24.1048 113.285 23.2553 113.332 22.3953C113.388 21.5134 113.388 20.6287 113.332 19.7467C113.285 18.8881 113.12 18.0401 112.843 17.2263C112.59 16.4851 112.12 15.8372 111.494 15.367C110.865 14.8973 110.01 14.6617 108.93 14.6602C107.875 14.6602 107.02 14.9023 106.364 15.3865C105.726 15.8501 105.237 16.4893 104.955 17.2263C104.663 17.9926 104.49 18.7994 104.444 19.6184C104.412 20.1316 104.398 20.66 104.398 21.2015C104.398 21.743 104.412 22.2888 104.444 22.8259C104.466 23.6017 104.647 24.3647 104.975 25.068C105.299 25.7653 105.801 26.3652 106.43 26.8077C107.071 27.2643 107.904 27.4818 108.93 27.4818Z" fill="#0061F9"/>
<path d="M15.9844 32.9834L26.0464 32.9203L33.688 0.298828L16.5585 7.45551L15.9844 32.9834Z" fill="#0061F9"/>
<path d="M15.9095 32.9834H15.4811L0 0.298828L15.4811 7.72299L15.9095 32.9834Z" fill="#0061F9"/>
</svg>
