<svg width="24" height="24" viewBox="0 0 24 24" fill="none" xmlns="http://www.w3.org/2000/svg">
<path d="M12 8L18 5L12 2V12" stroke="black" stroke-width="2" stroke-linecap="round" stroke-linejoin="round"/>
<path d="M7.99914 11.9883L2.49914 15.1283C2.34524 15.2155 2.21723 15.342 2.12817 15.4948C2.03911 15.6477 1.99219 15.8214 1.99219 15.9983C1.99219 16.1752 2.03911 16.3489 2.12817 16.5017C2.21723 16.6546 2.34524 16.7811 2.49914 16.8683L10.9991 21.7283C11.3032 21.9038 11.6481 21.9962 11.9991 21.9962C12.3502 21.9962 12.6951 21.9038 12.9991 21.7283L21.4991 16.8683C21.653 16.7811 21.781 16.6546 21.8701 16.5017C21.9592 16.3489 22.0061 16.1752 22.0061 15.9983C22.0061 15.8214 21.9592 15.6477 21.8701 15.4948C21.781 15.342 21.653 15.2155 21.4991 15.1283L15.9991 11.9983" stroke="black" stroke-width="2" stroke-linecap="round" stroke-linejoin="round"/>
<path d="M6.49219 12.8516L17.5122 19.1516" stroke="black" stroke-width="2" stroke-linecap="round" stroke-linejoin="round"/>
<path d="M17.51 12.8516L6.5 19.1516" stroke="black" stroke-width="2" stroke-linecap="round" stroke-linejoin="round"/>
</svg>
