<svg width="33" height="32" viewBox="0 0 33 32" fill="none" xmlns="http://www.w3.org/2000/svg">
<path d="M11.1996 0.964924C7.21201 2.41627 3.96432 5.39223 2.17096 9.23811C0.377591 13.084 0.185449 17.4848 1.6368 21.4723C3.08815 25.4599 6.0641 28.7076 9.90999 30.5009C13.7559 32.2943 18.1567 32.4864 22.1442 31.0351C26.1318 29.5837 29.3794 26.6078 31.1728 22.7619C32.9662 18.916 33.1583 14.5152 31.707 10.5277C30.2556 6.54013 27.2797 3.29245 23.4338 1.49908C19.5879 -0.294284 15.1871 -0.486426 11.1996 0.964924ZM24.2004 13.2939C24.2618 13.4547 24.2901 13.6263 24.2837 13.7983C24.2772 13.9703 24.2362 14.1393 24.1629 14.2951L21.0094 21.0311C20.938 21.1845 20.8371 21.3224 20.7124 21.4368C20.5878 21.5513 20.4418 21.64 20.2828 21.6981C20.1239 21.7561 19.955 21.7822 19.7859 21.775C19.6169 21.7677 19.4509 21.7273 19.2975 21.6559C19.144 21.5845 19.0061 21.4836 18.8917 21.3589C18.7773 21.2343 18.6885 21.0883 18.6305 20.9293C18.5725 20.7704 18.5463 20.6015 18.5536 20.4324C18.5608 20.2634 18.6013 20.0974 18.6726 19.944L20.5153 15.9871L10.8026 19.5222C10.4836 19.6383 10.1315 19.623 9.82386 19.4795C9.51619 19.336 9.27811 19.0762 9.162 18.7572C9.04589 18.4382 9.06126 18.0861 9.20473 17.7785C9.3482 17.4708 9.60802 17.2327 9.92702 17.1166L19.6667 13.5717L15.676 11.7107C15.366 11.5662 15.1261 11.3044 15.0091 10.9829C14.9512 10.8238 14.9252 10.6548 14.9325 10.4856C14.9399 10.3163 14.9806 10.1502 15.0522 9.99674C15.1237 9.84324 15.2249 9.70533 15.3497 9.59091C15.4746 9.47648 15.6208 9.38777 15.78 9.32984C16.1014 9.21284 16.4561 9.22833 16.7662 9.3729L23.5117 12.5059C23.6655 12.5771 23.8036 12.678 23.9181 12.803C24.0325 12.9279 24.121 13.0744 24.1785 13.2338L24.2004 13.2939Z" fill="#2E7FFF"/>
</svg>
