<svg width="227" height="173" viewBox="0 0 227 173" fill="none" xmlns="http://www.w3.org/2000/svg">
<mask id="mask0_4607_36360" style="mask-type:luminance" maskUnits="userSpaceOnUse" x="0" y="0" width="227" height="173">
<path d="M226.324 0H0.671875V172.35H226.324V0Z" fill="white"/>
</mask>
<g mask="url(#mask0_4607_36360)">
<path d="M115.199 36.331L120.102 54.8107L222.682 55.3135C225.573 55.3135 227.082 57.5763 225.951 60.3419L180.443 168.706C179.564 170.717 176.798 172.351 174.284 172.351L5.95577 171.597C3.44154 171.597 1.68159 169.962 2.05872 167.826L19.0297 63.6104L20.5383 54.3078L23.1783 38.3425C23.6812 35.4511 26.4468 33.0625 29.4639 33.0625L111.051 33.4396C113.188 33.5654 114.696 34.5711 115.199 36.331Z" fill="#5C9BFF"/>
<path d="M29.5859 33.1875L111.173 33.5646C113.184 33.5646 114.818 34.6961 115.196 36.456L120.098 54.8099L220.793 55.3127" stroke="#8AB7FF" stroke-width="1.12826" stroke-miterlimit="10"/>
<path d="M162.651 75.9939H15.3125V1.19141H162.651V75.9939Z" fill="#E5EFFF" stroke="#B7D3FF" stroke-width="1.50435"/>
<path d="M27.9531 0.503906H134.054" stroke="#B7D3FF" stroke-width="1.12826" stroke-miterlimit="10"/>
<path d="M76.9787 32.0564L85.5272 48.3989H173.022C175.537 48.3989 177.549 50.4104 177.549 52.9246V167.825C177.549 170.338 175.537 172.35 173.022 172.35H5.19749C2.68326 172.35 0.671875 170.338 0.671875 167.825V56.9474V48.3989V34.1935C0.671875 31.6793 2.68326 29.668 5.19749 29.668H72.9559C74.716 29.668 76.2244 30.5479 76.9787 32.0564Z" fill="#B7D3FF"/>
<path d="M5.19531 29.668H72.9538C74.588 29.668 76.2223 30.6736 76.9766 32.0564L85.5249 48.3989H173.02" stroke="#8AB7FF" stroke-width="1.12826" stroke-miterlimit="10"/>
<path d="M69.6875 133.508C84.3958 113.52 103.001 121.691 107.778 133.508" stroke="#2E7FFF" stroke-width="1.12826" stroke-miterlimit="10"/>
<path d="M66.5506 91.7682C66.5506 96.9222 64.1621 101.197 61.3964 101.197C58.505 101.197 56.2422 96.9222 56.2422 91.7682C56.2422 86.614 58.6308 82.3398 61.3964 82.3398C64.2877 82.3398 66.5506 86.4882 66.5506 91.7682Z" fill="#2E7FFF"/>
<path d="M121.23 91.7682C121.23 96.9222 118.842 101.197 116.076 101.197C113.185 101.197 110.922 96.9222 110.922 91.7682C110.922 86.614 113.31 82.3398 116.076 82.3398C118.967 82.3398 121.23 86.4882 121.23 91.7682Z" fill="#2E7FFF"/>
</g>
</svg>
