<svg width="32" height="32" viewBox="0 0 32 32" fill="none" xmlns="http://www.w3.org/2000/svg">
<g clip-path="url(#clip0_5156_41965)">
<path d="M18.1016 15.971L21.221 20.2973L25.4161 23.5497L26.1458 15.9983L25.4161 8.61719L21.1407 11.4743L18.1016 15.971Z" fill="#00832D"/>
<path d="M0 22.8481V29.283C0 30.7523 0.982949 31.9452 2.19414 31.9452H7.49761L8.5958 27.0832L7.49761 22.8481L3.85905 21.5156L0 22.8481Z" fill="#0066DA"/>
<path d="M7.49761 0L0 9.0971L3.8593 10.4264L7.49761 9.0971L8.5758 4.91966L7.49761 0Z" fill="#E94235"/>
<path d="M0 22.8525H7.49748V9.09766H0V22.8525Z" fill="#2684FC"/>
<path d="M30.2037 3.85215L25.4141 8.6197V23.552L30.2234 28.3381C30.9434 29.0224 31.9966 28.3987 31.9966 27.2883V4.8807C31.9966 3.75797 30.9183 3.13739 30.2036 3.85231" fill="#00AC47"/>
<path d="M18.1042 15.9727V22.8486H7.5V31.9457H23.2247C24.4359 31.9457 25.4187 30.7527 25.4187 29.2834V23.5513L18.1042 15.9727Z" fill="#00AC47"/>
<path d="M23.2247 0H7.5V9.0971H18.1042V15.973L25.4188 8.61907V2.66237C25.4188 1.1928 24.4359 0.000151659 23.2247 0.000151659" fill="#FFBA00"/>
</g>
<defs>
<clipPath id="clip0_5156_41965">
<rect width="32" height="32" fill="white"/>
</clipPath>
</defs>
</svg>
