<svg width="232" height="162" viewBox="0 0 232 162" fill="none" xmlns="http://www.w3.org/2000/svg">
<g clip-path="url(#clip0_4607_36750)">
<path d="M160.818 167.915H7.76364C4.05455 167.915 1 164.861 1 161.152V31.2246C1 27.5155 4.05455 24.4609 7.76364 24.4609H160.709C164.418 24.4609 167.473 27.5155 167.473 31.2246V161.152C167.473 164.861 164.527 167.915 160.818 167.915Z" fill="white" stroke="#263238" stroke-width="1.5" stroke-miterlimit="10" stroke-linecap="round" stroke-linejoin="round"/>
<path d="M1.76562 44.207H159.184" stroke="#263238" stroke-width="1.5" stroke-miterlimit="10" stroke-linecap="round" stroke-linejoin="round"/>
<path d="M18.0159 34.4962C18.0159 36.1326 16.7068 37.4417 15.0705 37.4417C13.4341 37.4417 12.125 36.1326 12.125 34.4962C12.125 32.8599 13.4341 31.5508 15.0705 31.5508C16.7068 31.5508 18.0159 32.8599 18.0159 34.4962Z" fill="#5C9BFF"/>
<path d="M30.8909 34.4962C30.8909 36.1326 29.5818 37.4417 27.9455 37.4417C26.3091 37.4417 25 36.1326 25 34.4962C25 32.8599 26.3091 31.5508 27.9455 31.5508C29.5818 31.5508 30.8909 32.8599 30.8909 34.4962Z" fill="#9ABAE3"/>
<path d="M43.7581 34.4962C43.7581 36.1326 42.449 37.4417 40.8126 37.4417C39.1763 37.4417 37.8672 36.1326 37.8672 34.4962C37.8672 32.8599 39.1763 31.5508 40.8126 31.5508C42.449 31.5508 43.7581 32.8599 43.7581 34.4962Z" fill="#263238"/>
<path d="M96.2391 34.5695C84.6755 27.4786 79.33 35.9877 74.6391 40.8968C70.6027 45.2604 58.2755 39.0423 50.8573 49.6241C41.6937 62.715 56.0937 85.9513 82.6027 82.0241C104.203 78.7513 111.185 57.0423 110.312 49.1877C108.457 31.9513 96.2391 34.5695 96.2391 34.5695Z" fill="#263238"/>
<path d="M222.895 61.2969C230.967 61.2969 232.058 65.2241 226.822 66.9696C220.604 69.0423 213.731 71.1151 209.477 71.9878" fill="#FCD8C3"/>
<path d="M222.895 61.2969C230.967 61.2969 232.058 65.2241 226.822 66.9696C220.604 69.0423 213.731 71.1151 209.477 71.9878" stroke="#263238" stroke-width="1.5" stroke-miterlimit="10" stroke-linecap="round" stroke-linejoin="round"/>
<path d="M182.971 92.7139C182.971 92.7139 198.025 78.2048 202.934 75.3684C207.952 72.6411 213.625 69.5866 219.407 66.3139C225.189 63.1502 223.552 58.4593 217.225 59.4411C212.316 60.0957 207.734 61.0775 200.207 60.8593C190.934 60.6411 185.043 59.8775 181.662 60.8593C177.298 62.1684 176.534 63.0411 174.352 65.0048C170.207 68.6048 162.68 74.3866 162.68 74.3866L180.789 91.9502" fill="#FCD8C3"/>
<path d="M182.971 92.7139C182.971 92.7139 198.025 78.2048 202.934 75.3684C207.952 72.6411 213.625 69.5866 219.407 66.3139C225.189 63.1502 223.552 58.4593 217.225 59.4411C212.316 60.0957 207.734 61.0775 200.207 60.8593C190.934 60.6411 185.043 59.8775 181.662 60.8593C177.298 62.1684 176.534 63.0411 174.352 65.0048C170.207 68.6048 162.68 74.3866 162.68 74.3866L180.789 91.9502" stroke="#263238" stroke-width="1.5" stroke-miterlimit="10" stroke-linecap="round" stroke-linejoin="round"/>
<path d="M214.277 68.3878C214.277 68.3878 213.841 63.0423 222.35 61.2969" stroke="#263238" stroke-width="1.5" stroke-miterlimit="10" stroke-linecap="round" stroke-linejoin="round"/>
<path d="M126.46 113.988C126.46 113.988 138.787 134.061 143.369 135.479C146.205 136.352 154.932 139.297 164.641 135.043C173.696 131.115 194.86 91.4063 194.86 91.4063C194.86 91.4063 188.423 95.4427 173.369 78.8609C166.714 71.4427 161.696 67.1881 161.696 67.1881L147.951 88.7881C147.951 88.7881 132.678 65.1154 120.132 64.1336C111.732 63.479 104.969 65.4427 104.969 65.4427" fill="#9ABAE3"/>
<path d="M147.623 88.5705L144.787 93.0432C144.787 93.0432 129.078 68.6069 116.423 67.6251C112.387 67.2978 108.678 67.6251 105.95 68.0614L104.859 65.6614C104.859 65.6614 111.623 63.6978 120.023 64.3523C131.041 65.116 144.459 83.8796 147.623 88.5705Z" fill="white"/>
<path d="M194.86 91.5153C194.533 92.0608 175.66 127.406 166.06 134.279C176.096 123.152 191.042 95.4426 191.26 94.8972C191.042 95.0062 184.496 98.6062 169.769 82.3517C164.751 76.8972 160.714 73.079 159.078 71.5517L161.696 67.4062C161.696 67.4062 166.714 71.6608 173.369 79.079C188.096 95.2244 194.533 91.6244 194.86 91.5153Z" fill="white"/>
<path d="M126.46 113.988C126.46 113.988 138.787 134.061 143.369 135.479C146.205 136.352 154.932 139.297 164.641 135.043C173.696 131.115 194.86 91.4063 194.86 91.4063C194.86 91.4063 188.423 95.4427 173.369 78.8609C166.714 71.4427 161.696 67.1881 161.696 67.1881L147.951 88.7881C147.951 88.7881 132.678 65.1154 120.132 64.1336C111.732 63.479 104.969 65.4427 104.969 65.4427" stroke="#263238" stroke-width="1.5" stroke-miterlimit="10" stroke-linecap="round" stroke-linejoin="round"/>
<path d="M195.51 92.0611C197.037 90.3157 190.492 87.043 190.492 87.043L187.438 90.7521C187.438 90.7521 194.201 93.4793 195.51 92.0611Z" fill="#263238"/>
<path d="M144.133 95.6594C144.133 95.6594 145.987 91.514 149.478 86.3867" stroke="#263238" stroke-width="1.5" stroke-miterlimit="10" stroke-linecap="round" stroke-linejoin="round"/>
<path d="M147.621 159.149H38.2031C38.4213 158.276 38.7486 157.404 38.9668 156.422C39.6213 154.022 48.6759 136.24 48.7849 122.822C48.894 109.513 52.494 82.2401 63.4031 73.4037C74.2031 64.5673 79.2213 68.3855 88.6031 67.9491C92.5304 67.8401 100.385 66.531 105.185 68.6037C129.294 79.0764 137.367 123.04 139.112 130.022C140.967 136.895 147.949 152.386 147.621 159.149Z" fill="#9ABAE3"/>
<path d="M38.2031 159.149C38.7486 157.076 39.7304 154.894 40.7122 152.167C47.3668 134.712 47.4759 128.821 51.7304 100.676" stroke="#263238" stroke-width="1.5" stroke-miterlimit="10" stroke-linecap="round" stroke-linejoin="round"/>
<path d="M147.842 159.147C148.278 152.493 140.86 137.002 139.114 130.02C138.351 127.075 134.969 109.293 132.023 97.1836" stroke="#263238" stroke-width="1.5" stroke-miterlimit="10" stroke-linecap="round" stroke-linejoin="round"/>
<path d="M110.966 137.441C110.966 137.441 106.385 145.187 98.0938 149.769" stroke="#263238" stroke-width="1.5" stroke-miterlimit="10" stroke-linecap="round" stroke-linejoin="round"/>
<path d="M115.768 141.477C115.768 141.477 112.822 146.386 107.586 149.331" stroke="#263238" stroke-width="1.5" stroke-miterlimit="10" stroke-linecap="round" stroke-linejoin="round"/>
<path d="M110.969 100.785L116.751 161.112" stroke="#263238" stroke-width="1.5" stroke-miterlimit="10" stroke-linecap="round" stroke-linejoin="round"/>
<path d="M108.562 132.863C115.326 134.609 129.726 133.3 131.253 137.336C133.762 143.554 114.017 143.881 114.017 143.881L108.562 132.863Z" fill="#FCD8C3" stroke="#263238" stroke-width="1.5" stroke-miterlimit="10" stroke-linecap="round" stroke-linejoin="round"/>
<path d="M89.7978 129.371C91.7614 129.807 100.052 129.917 107.907 132.207C134.416 140.062 134.743 155.553 129.834 154.135C129.834 154.135 131.471 155.989 129.834 158.935C129.507 159.589 126.452 162.207 122.416 157.407C122.416 157.407 125.361 162.535 121.543 163.407C118.489 164.171 116.198 160.026 107.907 157.735C104.089 159.371 96.2342 160.353 89.4705 158.935C86.9614 158.389 80.8523 156.535 81.5069 156.753C79.9796 156.426 79.7614 134.826 89.7978 129.371Z" fill="#FCD8C3" stroke="#263238" stroke-width="1.5" stroke-miterlimit="10" stroke-linecap="round" stroke-linejoin="round"/>
<path d="M122.198 157.408C119.907 154.462 114.344 150.535 114.344 150.535" stroke="#263238" stroke-width="1.5" stroke-miterlimit="10" stroke-linecap="round" stroke-linejoin="round"/>
<path d="M129.726 154.027C127.653 150.755 120.453 145.082 120.453 145.082" stroke="#263238" stroke-width="1.5" stroke-miterlimit="10" stroke-linecap="round" stroke-linejoin="round"/>
<path d="M90.4549 67.6254C58.7095 62.4981 50.0913 75.8072 41.1459 95.0072C32.2004 114.207 19.2186 137.007 25.9822 149.334C26.8549 150.971 32.5277 159.589 43.764 161.007C59.2549 162.971 89.5822 163.844 89.5822 163.844C89.5822 163.844 84.0186 161.007 87.9459 145.407C92.3095 128.498 91.8731 125.553 91.8731 125.553C91.8731 125.553 69.1822 121.734 59.8004 121.844" fill="#9ABAE3"/>
<path d="M90.4549 67.6254C58.7095 62.4981 50.0913 75.8072 41.1459 95.0072C32.2004 114.207 19.2186 137.007 25.9822 149.334C26.8549 150.971 32.5277 159.589 43.764 161.007C59.2549 162.971 89.5822 163.844 89.5822 163.844C89.5822 163.844 84.0186 161.007 87.9459 145.407C92.3095 128.498 91.8731 125.553 91.8731 125.553C91.8731 125.553 69.1822 121.734 59.8004 121.844" stroke="#263238" stroke-width="1.5" stroke-miterlimit="10" stroke-linecap="round" stroke-linejoin="round"/>
<path d="M67.4375 121.843C67.4375 121.843 70.383 113.334 72.6739 106.68" stroke="#263238" stroke-width="1.5" stroke-miterlimit="10" stroke-linecap="round" stroke-linejoin="round"/>
<path d="M89.5785 164.608C91.8695 165.153 91.4331 158.39 91.4331 158.39L86.7422 158.062C86.7422 158.062 87.724 164.172 89.5785 164.608Z" fill="#263238"/>
<path d="M79.5469 66.3164C79.5469 66.3164 98.7469 88.4618 110.201 98.9346C114.456 83.1164 112.711 64.4618 112.711 64.4618C112.711 64.4618 109.983 64.1346 100.929 65.88C88.8196 68.1709 89.1469 65.3346 79.5469 66.3164Z" fill="white" stroke="#263238" stroke-width="1.5" stroke-miterlimit="10" stroke-linecap="round" stroke-linejoin="round"/>
<path d="M78.3473 66.3155C78.3473 66.3155 67.4382 79.4064 70.4928 81.4791C73.5473 83.5518 81.9473 82.7882 81.9473 82.7882C81.9473 82.7882 78.8928 87.37 81.4019 89.6609C83.911 91.9518 110.965 100.679 110.965 100.679C110.965 100.679 123.402 86.0609 121.984 83.2246C120.675 80.3882 117.511 78.3155 117.511 78.3155C117.511 78.3155 123.402 73.2973 122.965 70.7882C122.529 68.2791 112.165 64.4609 112.165 64.4609" stroke="#263238" stroke-width="1.5" stroke-miterlimit="10" stroke-linecap="round" stroke-linejoin="round"/>
<path d="M100.277 65.8789C100.277 65.8789 104.859 70.4607 102.022 71.6607C97.5496 73.6244 89.5859 67.4062 89.5859 67.4062L100.277 65.8789Z" fill="#263238"/>
<path d="M84.461 59.117C81.1883 51.5897 83.5883 43.0806 89.9156 40.3533C96.2429 37.517 104.097 41.4442 107.37 48.9715C110.643 56.4988 108.243 65.0079 101.916 67.7351C95.5883 70.5715 87.7338 66.6442 84.461 59.117Z" fill="#FCD8C3"/>
<path d="M101.914 67.7351C100.169 68.4988 98.3145 68.826 96.3509 68.6079C97.2236 68.4988 98.0963 68.2806 98.969 67.8442C104.969 65.226 107.26 57.1533 104.096 50.0624C100.933 42.8624 93.5145 39.1533 87.5145 41.8806C87.4054 41.9897 87.1872 41.9897 87.0781 42.0988C87.8418 41.4442 88.8236 40.7897 89.8054 40.3533C96.1327 37.517 103.987 41.4442 107.26 48.9715C110.642 56.4988 108.242 64.8988 101.914 67.7351Z" fill="white"/>
<path d="M84.461 59.117C81.1883 51.5897 83.5883 43.0806 89.9156 40.3533C96.2429 37.517 104.097 41.4442 107.37 48.9715C110.643 56.4988 108.243 65.0079 101.916 67.7351C95.5883 70.5715 87.7338 66.6442 84.461 59.117Z" stroke="#263238" stroke-width="1.5" stroke-miterlimit="10" stroke-linecap="round" stroke-linejoin="round"/>
<path d="M85.0031 60.3164C85.0031 60.3164 97.7667 55.1891 96.3486 42.9709C96.3486 42.9709 100.821 46.68 105.73 46.1345C105.73 46.1345 99.8395 35.7709 89.8031 40.3527C77.1486 46.0254 85.0031 60.3164 85.0031 60.3164Z" fill="#263238"/>
<path d="M44.743 57.3692C47.2521 57.6965 46.1612 52.351 47.0339 50.3874C47.9066 48.4238 50.743 46.4601 50.3066 44.4965C49.8703 42.5329 44.4157 44.4965 42.9975 49.0783C42.0157 52.4601 42.7793 57.151 44.743 57.3692Z" fill="#263238"/>
</g>
<g clip-path="url(#clip1_4607_36750)">
<path d="M208.846 35.6354C208.26 36.8073 208.326 39.8672 208.326 39.8672H196.151C196.151 39.8672 196.216 36.8073 195.63 35.6354C193.938 32.0547 190.031 28.8646 190.031 22.6797C190.031 15.3229 195.956 11.3516 202.271 11.3516C208.586 11.3516 214.51 15.3229 214.51 22.6797C214.445 28.7995 210.539 32.0547 208.846 35.6354Z" fill="#5C9BFF"/>
<path d="M208.846 35.6341C208.26 36.806 208.326 39.8659 208.326 39.8659H205.135C205.135 38.8893 205.266 37.3919 205.656 36.6107C207.349 33.0299 211.255 29.8398 211.255 23.6549C211.255 16.2982 205.331 12.3268 199.016 12.3268C198.169 12.3268 197.258 12.3919 196.477 12.5221C198.234 11.7409 200.253 11.2852 202.271 11.2852C208.586 11.2852 214.51 15.2565 214.51 22.6133C214.445 28.7982 210.539 32.0534 208.846 35.6341Z" fill="white"/>
<path d="M208.846 35.6354C208.26 36.8073 208.326 39.8672 208.326 39.8672H196.151C196.151 39.8672 196.216 36.8073 195.63 35.6354C193.938 32.0547 190.031 28.8646 190.031 22.6797C190.031 15.3229 195.956 11.3516 202.271 11.3516C208.586 11.3516 214.51 15.3229 214.51 22.6797C214.445 28.7995 210.539 32.0547 208.846 35.6354Z" stroke="#263238" stroke-width="2.5" stroke-miterlimit="10" stroke-linecap="round" stroke-linejoin="round"/>
<path d="M209.047 39.8672H195.375V43.3828H209.047V39.8672Z" fill="#9ABAE3" stroke="#263238" stroke-width="2.5" stroke-miterlimit="10" stroke-linecap="round" stroke-linejoin="round"/>
<path d="M207.094 46.8984H197.328V49.3724H207.094V46.8984Z" fill="#9ABAE3" stroke="#263238" stroke-width="2.5" stroke-miterlimit="10" stroke-linecap="round" stroke-linejoin="round"/>
<path d="M209.047 43.3828H195.375V46.8984H209.047V43.3828Z" fill="#9ABAE3" stroke="#263238" stroke-width="2.5" stroke-miterlimit="10" stroke-linecap="round" stroke-linejoin="round"/>
<path d="M200.581 39.8672L198.367 27.1719" stroke="#263238" stroke-width="2.5" stroke-miterlimit="10" stroke-linecap="round" stroke-linejoin="round"/>
<path d="M203.898 39.8672L206.112 27.1719" stroke="#263238" stroke-width="2.5" stroke-miterlimit="10" stroke-linecap="round" stroke-linejoin="round"/>
<path d="M202.141 1V5.36198" stroke="#263238" stroke-width="2.5" stroke-miterlimit="10" stroke-linecap="round" stroke-linejoin="round"/>
<path d="M186.32 7.64062L189.38 10.7005" stroke="#263238" stroke-width="2.5" stroke-miterlimit="10" stroke-linecap="round" stroke-linejoin="round"/>
<path d="M179.812 23.5273H184.174" stroke="#263238" stroke-width="2.5" stroke-miterlimit="10" stroke-linecap="round" stroke-linejoin="round"/>
<path d="M186.453 39.2826L189.513 36.2227" stroke="#263238" stroke-width="2.5" stroke-miterlimit="10" stroke-linecap="round" stroke-linejoin="round"/>
<path d="M218.091 39.2161L215.031 36.1562" stroke="#263238" stroke-width="2.5" stroke-miterlimit="10" stroke-linecap="round" stroke-linejoin="round"/>
<path d="M224.602 23.332H220.305" stroke="#263238" stroke-width="2.5" stroke-miterlimit="10" stroke-linecap="round" stroke-linejoin="round"/>
<path d="M218.029 7.51172L214.969 10.5716" stroke="#263238" stroke-width="2.5" stroke-miterlimit="10" stroke-linecap="round" stroke-linejoin="round"/>
</g>
<defs>
<clipPath id="clip0_4607_36750">
<rect width="231.709" height="145.455" fill="white" transform="translate(0 23.4609)"/>
</clipPath>
<clipPath id="clip1_4607_36750">
<rect width="46.7917" height="50.3724" fill="white" transform="translate(178.812)"/>
</clipPath>
</defs>
</svg>
