<svg width="40" height="40" viewBox="0 0 40 40" fill="none" xmlns="http://www.w3.org/2000/svg">
<path d="M30.12 2.58984L37.075 9.83984V37.4098H11.0938V37.4998H37.1638V9.93109L30.12 2.58984Z" fill="#909090"/>
<path d="M30.0444 2.5H11.0156V37.41H37.0856V9.84125L30.0444 2.5Z" fill="#F4F4F4"/>
<path d="M10.8156 4.375H2.82812V12.9087H27.9531V4.375H10.8156Z" fill="#7A7B7C"/>
<path d="M28.0806 18.54H2.98438V10H28.0806V18.54Z" fill="#DD2025"/>
<path d="M11.3213 5.66734H9.6875V11.6673H10.9725V9.64359L11.2563 9.65984C11.5321 9.65604 11.8053 9.60662 12.065 9.51359C12.2933 9.43608 12.5031 9.31224 12.6813 9.14984C12.864 8.99664 13.0075 8.8021 13.1 8.58234C13.2266 8.21823 13.2714 7.83072 13.2312 7.44734C13.2241 7.1734 13.1761 6.90207 13.0887 6.64234C13.01 6.4546 12.893 6.28536 12.7451 6.14545C12.5973 6.00554 12.4218 5.89804 12.23 5.82984C12.0646 5.7686 11.8933 5.72502 11.7187 5.69984C11.5869 5.67837 11.4536 5.6675 11.32 5.66734M11.0838 8.53484H10.9725V6.68484H11.2137C11.3202 6.67716 11.4271 6.69351 11.5264 6.73267C11.6257 6.77183 11.7149 6.8328 11.7875 6.91109C11.9379 7.11236 12.0182 7.35734 12.0162 7.60859C12.0162 7.91609 12.0162 8.19484 11.7387 8.39109C11.5389 8.50118 11.3113 8.55195 11.0838 8.53484ZM15.6725 5.65109C15.5337 5.65109 15.3987 5.66109 15.3037 5.66484L15.0062 5.67234H14.0312V11.6723H15.1787C15.6172 11.6836 16.0537 11.6093 16.4637 11.4536C16.7939 11.3232 17.0861 11.1122 17.3137 10.8398C17.5368 10.5663 17.6961 10.2464 17.78 9.90359C17.8786 9.516 17.9265 9.11725 17.9225 8.71734C17.947 8.24503 17.9104 7.77154 17.8137 7.30859C17.7212 6.9682 17.5499 6.65434 17.3137 6.39234C17.1285 6.18048 16.9006 6.0101 16.645 5.89234C16.426 5.79084 16.1956 5.71613 15.9587 5.66984C15.8646 5.6544 15.7692 5.64729 15.6737 5.64859M15.4462 10.5698H15.3212V6.73984H15.3375C15.5952 6.71004 15.856 6.75655 16.0875 6.87359C16.2571 7.009 16.3953 7.17959 16.4925 7.37359C16.5974 7.57776 16.6579 7.80184 16.67 8.03109C16.6813 8.30609 16.67 8.53109 16.67 8.71734C16.6746 8.93187 16.6608 9.14641 16.6287 9.35859C16.5894 9.57617 16.5182 9.78677 16.4175 9.98359C16.3037 10.1671 16.1482 10.3213 15.9637 10.4336C15.8096 10.5336 15.6269 10.5802 15.4437 10.5661M21.7937 5.67234H18.7562V11.6723H20.0412V9.29234H21.6662V8.17734H20.0412V6.78734H21.7912V5.67234" fill="#464648"/>
<path d="M27.221 25.3189C27.221 25.3189 31.206 24.5964 31.206 25.9576C31.206 27.3189 28.7372 26.7651 27.221 25.3189ZM24.2747 25.4226C23.6415 25.5622 23.0244 25.767 22.4335 26.0339L22.9335 24.9089C23.4335 23.7839 23.9522 22.2501 23.9522 22.2501C24.5474 23.2553 25.2417 24.1983 26.0247 25.0651C25.4352 25.153 24.851 25.2731 24.2747 25.4251V25.4226ZM22.6972 17.2976C22.6972 16.1114 23.081 15.7876 23.3797 15.7876C23.6785 15.7876 24.0147 15.9314 24.026 16.9614C23.9285 17.9971 23.7117 19.018 23.3797 20.0039C22.9235 19.1767 22.688 18.246 22.696 17.3014L22.6972 17.2976ZM16.886 30.4426C15.6635 29.7114 19.4497 27.4601 20.136 27.3876C20.1322 27.3889 18.166 31.2076 16.886 30.4426ZM32.3697 26.1189C32.3572 25.9939 32.2447 24.6101 29.7822 24.6689C28.7558 24.6509 27.7297 24.7233 26.716 24.8851C25.7333 23.896 24.8875 22.7799 24.201 21.5664C24.6332 20.3155 24.8952 19.0121 24.9797 17.6914C24.9435 16.1914 24.5847 15.3314 23.4347 15.3439C22.2847 15.3564 22.1172 16.3626 22.2685 17.8601C22.4165 18.8665 22.696 19.849 23.0997 20.7826C23.0997 20.7826 22.5685 22.4364 21.866 24.0814C21.1635 25.7264 20.6835 26.5889 20.6835 26.5889C19.4617 26.9861 18.3117 27.577 17.2772 28.3389C16.2472 29.2976 15.8285 30.0339 16.371 30.7701C16.8385 31.4051 18.4747 31.5489 19.9372 29.6326C20.713 28.6419 21.4228 27.6014 22.0622 26.5176C22.0622 26.5176 24.2922 25.9064 24.986 25.7389C25.6797 25.5714 26.5185 25.4389 26.5185 25.4389C26.5185 25.4389 28.5547 27.4876 30.5185 27.4151C32.4822 27.3426 32.3872 26.2414 32.3747 26.1214" fill="#DD2025"/>
<path d="M29.9375 2.59766V9.93891H36.9787L29.9375 2.59766Z" fill="#909090"/>
<path d="M30.0391 2.5V9.84125H37.0803L30.0391 2.5Z" fill="#F4F4F4"/>
<path d="M11.2275 5.56968H9.59375V11.5697H10.8837V9.54718L11.1688 9.56343C11.4446 9.55963 11.7178 9.51021 11.9775 9.41718C12.2058 9.33967 12.4156 9.21583 12.5937 9.05343C12.7751 8.89981 12.9173 8.7053 13.0087 8.48593C13.1353 8.12182 13.1801 7.73431 13.14 7.35093C13.1329 7.077 13.0848 6.80567 12.9975 6.54593C12.9188 6.35819 12.8018 6.18895 12.6539 6.04905C12.506 5.90914 12.3306 5.80164 12.1388 5.73343C11.9726 5.67159 11.8004 5.6276 11.625 5.60218C11.4932 5.58071 11.3598 5.56985 11.2262 5.56968M10.99 8.43718H10.8787V6.58718H11.1213C11.2277 6.5795 11.3346 6.59585 11.4339 6.63501C11.5332 6.67417 11.6224 6.73515 11.695 6.81343C11.8454 7.0147 11.9257 7.25969 11.9237 7.51093C11.9237 7.81843 11.9237 8.09718 11.6463 8.29343C11.4464 8.40352 11.2188 8.45304 10.9912 8.43593M15.5787 5.55343C15.44 5.55343 15.305 5.56343 15.21 5.56718L14.9162 5.57468H13.9412V11.5747H15.0887C15.5272 11.586 15.9637 11.5117 16.3737 11.3559C16.7039 11.2256 16.9961 11.0145 17.2237 10.7422C17.4468 10.4686 17.6061 10.1488 17.69 9.80593C17.7886 9.41834 17.8365 9.0196 17.8325 8.61968C17.857 8.14738 17.8204 7.67389 17.7237 7.21093C17.6312 6.87054 17.4599 6.55668 17.2237 6.29468C17.0385 6.08282 16.8106 5.91244 16.555 5.79468C16.336 5.69318 16.1056 5.61847 15.8687 5.57218C15.7746 5.55674 15.6792 5.54963 15.5837 5.55093M15.3562 10.4722H15.2312V6.64218H15.2475C15.5052 6.61238 15.766 6.65889 15.9975 6.77593C16.1671 6.91134 16.3053 7.08193 16.4025 7.27593C16.5074 7.4801 16.5679 7.70419 16.58 7.93343C16.5912 8.20843 16.58 8.43343 16.58 8.61968C16.5846 8.83422 16.5708 9.04876 16.5387 9.26093C16.4994 9.47851 16.4282 9.68911 16.3275 9.88593C16.2137 10.0695 16.0582 10.2236 15.8737 10.3359C15.7196 10.4359 15.5369 10.4825 15.3537 10.4684M21.7 5.57468H18.6625V11.5747H19.9475V9.19468H21.5725V8.07968H19.9475V6.68968H21.6975V5.57468" fill="white"/>
</svg>
