<svg width="50" height="50" viewBox="0 0 50 50" fill="none" xmlns="http://www.w3.org/2000/svg">
<path d="M34.8154 40.1813C26.431 45.604 15.2381 43.2031 9.81541 34.8187C4.3927 26.4343 6.79364 15.2414 15.1781 9.81868C23.5625 4.39597 34.7553 6.79691 40.1781 15.1813C45.6008 23.5657 43.1998 34.7586 34.8154 40.1813ZM16.8862 12.4598C9.96041 16.9391 7.97716 26.1848 12.4565 33.1105C16.9358 40.0363 26.1815 42.0196 33.1073 37.5402C40.0331 33.0609 42.0163 23.8153 37.537 16.8895C33.0577 9.96368 23.812 7.98043 16.8862 12.4598Z" fill="#0061F9"/>
<path d="M27.8648 8.74198C28.0156 7.88661 28.8338 7.30871 29.6729 7.53327C32.3291 8.2442 34.7888 9.55202 36.8635 11.3566C37.5189 11.9266 37.4974 12.9282 36.8726 13.5315C36.2478 14.1349 35.257 14.1101 34.5913 13.5522C32.9919 12.2117 31.1289 11.2212 29.1233 10.6448C28.2885 10.4049 27.7139 9.59733 27.8648 8.74198Z" fill="#B7D3FF"/>
<path d="M16.93 28C16.87 28 16.82 27.98 16.78 27.94C16.7467 27.8933 16.73 27.84 16.73 27.78C16.73 27.7467 16.7333 27.72 16.74 27.7C16.7533 27.68 16.7633 27.6633 16.77 27.65L18.3 25.52C18.1333 25.56 17.9533 25.58 17.76 25.58C17.3867 25.5733 17.0533 25.5067 16.76 25.38C16.4667 25.2533 16.2167 25.0833 16.01 24.87C15.8033 24.65 15.6467 24.4033 15.54 24.13C15.4333 23.8567 15.38 23.57 15.38 23.27C15.38 22.9767 15.43 22.69 15.53 22.41C15.6367 22.13 15.7933 21.8767 16 21.65C16.2133 21.4233 16.4767 21.2433 16.79 21.11C17.1033 20.97 17.4733 20.9 17.9 20.9C18.32 20.9 18.6867 20.9667 19 21.1C19.32 21.2267 19.5867 21.4033 19.8 21.63C20.02 21.85 20.18 22.1 20.28 22.38C20.3867 22.66 20.44 22.95 20.44 23.25C20.44 23.5233 20.4 23.7733 20.32 24C20.24 24.2267 20.1433 24.43 20.03 24.61C19.9233 24.79 19.8167 24.9567 19.71 25.11L17.79 27.8C17.7633 27.8333 17.7267 27.8767 17.68 27.93C17.6333 27.9767 17.5633 28 17.47 28H16.93ZM17.9 24.77C18.18 24.77 18.4367 24.71 18.67 24.59C18.91 24.4633 19.1 24.29 19.24 24.07C19.38 23.8433 19.45 23.5733 19.45 23.26C19.45 22.9467 19.38 22.68 19.24 22.46C19.1 22.2333 18.91 22.06 18.67 21.94C18.4367 21.8133 18.18 21.75 17.9 21.75C17.6267 21.75 17.3733 21.8133 17.14 21.94C16.9067 22.06 16.72 22.2333 16.58 22.46C16.44 22.68 16.37 22.9467 16.37 23.26C16.37 23.5733 16.44 23.8433 16.58 24.07C16.72 24.29 16.9067 24.4633 17.14 24.59C17.3733 24.71 17.6267 24.77 17.9 24.77ZM24.0977 28.1C23.6377 28.1 23.2477 28.03 22.9277 27.89C22.6144 27.7433 22.3577 27.5433 22.1577 27.29C21.9577 27.0367 21.8111 26.7467 21.7177 26.42C21.6311 26.0933 21.5811 25.7467 21.5677 25.38C21.5611 25.2 21.5544 25.01 21.5477 24.81C21.5477 24.61 21.5477 24.41 21.5477 24.21C21.5544 24.0033 21.5611 23.8067 21.5677 23.62C21.5744 23.2533 21.6244 22.9067 21.7177 22.58C21.8177 22.2467 21.9644 21.9567 22.1577 21.71C22.3577 21.4567 22.6177 21.26 22.9377 21.12C23.2577 20.9733 23.6444 20.9 24.0977 20.9C24.5577 20.9 24.9444 20.9733 25.2577 21.12C25.5777 21.26 25.8377 21.4567 26.0377 21.71C26.2377 21.9567 26.3844 22.2467 26.4777 22.58C26.5777 22.9067 26.6311 23.2533 26.6377 23.62C26.6444 23.8067 26.6477 24.0033 26.6477 24.21C26.6544 24.41 26.6544 24.61 26.6477 24.81C26.6477 25.01 26.6444 25.2 26.6377 25.38C26.6311 25.7467 26.5777 26.0933 26.4777 26.42C26.3844 26.7467 26.2377 27.0367 26.0377 27.29C25.8444 27.5433 25.5877 27.7433 25.2677 27.89C24.9544 28.03 24.5644 28.1 24.0977 28.1ZM24.0977 27.25C24.6177 27.25 25.0011 27.08 25.2477 26.74C25.5011 26.3933 25.6311 25.9233 25.6377 25.33C25.6511 25.1367 25.6577 24.95 25.6577 24.77C25.6577 24.5833 25.6577 24.4 25.6577 24.22C25.6577 24.0333 25.6511 23.85 25.6377 23.67C25.6311 23.09 25.5011 22.6267 25.2477 22.28C25.0011 21.9267 24.6177 21.75 24.0977 21.75C23.5844 21.75 23.2011 21.9267 22.9477 22.28C22.7011 22.6267 22.5711 23.09 22.5577 23.67C22.5577 23.85 22.5544 24.0333 22.5477 24.22C22.5477 24.4 22.5477 24.5833 22.5477 24.77C22.5544 24.95 22.5577 25.1367 22.5577 25.33C22.5711 25.9233 22.7044 26.3933 22.9577 26.74C23.2111 27.08 23.5911 27.25 24.0977 27.25ZM28.3654 28C28.2254 28 28.1554 27.9333 28.1554 27.8C28.1554 27.76 28.1687 27.7233 28.1954 27.69L33.1354 21.19C33.1821 21.13 33.2254 21.0833 33.2654 21.05C33.3121 21.0167 33.3787 21 33.4654 21H33.7954C33.9354 21 34.0054 21.0667 34.0054 21.2C34.0054 21.24 33.9921 21.2767 33.9654 21.31L29.0354 27.81C28.9887 27.87 28.9421 27.9167 28.8954 27.95C28.8554 27.9833 28.7887 28 28.6954 28H28.3654ZM32.9454 28.06C32.5054 28.06 32.1621 27.9367 31.9154 27.69C31.6687 27.4433 31.5321 27.12 31.5054 26.72C31.4987 26.5467 31.4954 26.4 31.4954 26.28C31.4954 26.1533 31.4987 25.9967 31.5054 25.81C31.5254 25.41 31.6554 25.0867 31.8954 24.84C32.1354 24.5867 32.4854 24.46 32.9454 24.46C33.4121 24.46 33.7621 24.5867 33.9954 24.84C34.2354 25.0867 34.3687 25.41 34.3954 25.81C34.4087 25.9967 34.4154 26.1533 34.4154 26.28C34.4154 26.4 34.4087 26.5467 34.3954 26.72C34.3687 27.12 34.2287 27.4433 33.9754 27.69C33.7287 27.9367 33.3854 28.06 32.9454 28.06ZM32.9454 27.4C33.1187 27.4 33.2554 27.3633 33.3554 27.29C33.4621 27.2167 33.5387 27.1267 33.5854 27.02C33.6321 26.9067 33.6587 26.7933 33.6654 26.68C33.6787 26.5 33.6854 26.36 33.6854 26.26C33.6854 26.1533 33.6787 26.0167 33.6654 25.85C33.6587 25.67 33.6021 25.5033 33.4954 25.35C33.3887 25.1967 33.2054 25.12 32.9454 25.12C32.6921 25.12 32.5121 25.1967 32.4054 25.35C32.3054 25.5033 32.2487 25.67 32.2354 25.85C32.2287 26.0167 32.2254 26.1533 32.2254 26.26C32.2254 26.36 32.2287 26.5 32.2354 26.68C32.2487 26.7933 32.2754 26.9067 32.3154 27.02C32.3621 27.1267 32.4354 27.2167 32.5354 27.29C32.6421 27.3633 32.7787 27.4 32.9454 27.4ZM29.2054 24.51C28.7654 24.51 28.4221 24.3933 28.1754 24.16C27.9287 23.9267 27.7921 23.61 27.7654 23.21C27.7587 23.0367 27.7554 22.89 27.7554 22.77C27.7554 22.6433 27.7587 22.4867 27.7654 22.3C27.7854 21.9 27.9154 21.5767 28.1554 21.33C28.3954 21.0767 28.7454 20.95 29.2054 20.95C29.6721 20.95 30.0221 21.0767 30.2554 21.33C30.4954 21.5767 30.6254 21.9 30.6454 22.3C30.6587 22.4867 30.6654 22.6433 30.6654 22.77C30.6654 22.89 30.6587 23.0367 30.6454 23.21C30.6254 23.61 30.4887 23.9267 30.2354 24.16C29.9887 24.3933 29.6454 24.51 29.2054 24.51ZM29.2054 23.89C29.3787 23.89 29.5154 23.8533 29.6154 23.78C29.7221 23.7067 29.7987 23.6167 29.8454 23.51C29.8921 23.3967 29.9187 23.2833 29.9254 23.17C29.9387 22.99 29.9454 22.85 29.9454 22.75C29.9454 22.6433 29.9387 22.5067 29.9254 22.34C29.9187 22.16 29.8587 21.9933 29.7454 21.84C29.6387 21.6867 29.4587 21.61 29.2054 21.61C28.9521 21.61 28.7721 21.6867 28.6654 21.84C28.5654 21.9933 28.5087 22.16 28.4954 22.34C28.4887 22.5067 28.4854 22.6433 28.4854 22.75C28.4854 22.85 28.4887 22.99 28.4954 23.17C28.5087 23.2833 28.5354 23.3967 28.5754 23.51C28.6221 23.6167 28.6954 23.7067 28.7954 23.78C28.8954 23.8533 29.0321 23.89 29.2054 23.89Z" fill="#0061F9"/>
</svg>
