<svg width="15" height="4" viewBox="0 0 15 4" fill="none" xmlns="http://www.w3.org/2000/svg">
<path fill-rule="evenodd" clip-rule="evenodd" d="M0 2C0 1.60218 0.158035 1.22064 0.43934 0.93934C0.720644 0.658035 1.10218 0.5 1.5 0.5C1.89782 0.5 2.27936 0.658035 2.56066 0.93934C2.84196 1.22064 3 1.60218 3 2C3 2.39782 2.84196 2.77936 2.56066 3.06066C2.27936 3.34196 1.89782 3.5 1.5 3.5C1.10218 3.5 0.720644 3.34196 0.43934 3.06066C0.158035 2.77936 0 2.39782 0 2ZM6 2C6 1.60218 6.15804 1.22064 6.43934 0.93934C6.72064 0.658035 7.10218 0.5 7.5 0.5C7.89782 0.5 8.27936 0.658035 8.56066 0.93934C8.84196 1.22064 9 1.60218 9 2C9 2.39782 8.84196 2.77936 8.56066 3.06066C8.27936 3.34196 7.89782 3.5 7.5 3.5C7.10218 3.5 6.72064 3.34196 6.43934 3.06066C6.15804 2.77936 6 2.39782 6 2ZM12 2C12 1.60218 12.158 1.22064 12.4393 0.93934C12.7206 0.658035 13.1022 0.5 13.5 0.5C13.8978 0.5 14.2794 0.658035 14.5607 0.93934C14.842 1.22064 15 1.60218 15 2C15 2.39782 14.842 2.77936 14.5607 3.06066C14.2794 3.34196 13.8978 3.5 13.5 3.5C13.1022 3.5 12.7206 3.34196 12.4393 3.06066C12.158 2.77936 12 2.39782 12 2Z" fill="black"/>
</svg>
