<svg width="32" height="32" viewBox="0 0 32 32" fill="none" xmlns="http://www.w3.org/2000/svg">
<g clip-path="url(#clip0_5163_42168)">
<path d="M22.317 11.957H30.5817C31.3627 11.957 31.9956 12.6352 31.9956 13.4716V21.536C31.9956 24.6102 29.6692 27.1024 26.7995 27.1024H26.7749C23.9052 27.1028 21.5785 24.6111 21.5781 21.5368V12.7487C21.5781 12.6448 21.5972 12.5418 21.6343 12.4457C21.6714 12.3497 21.7258 12.2624 21.7944 12.1888C21.8631 12.1153 21.9445 12.057 22.0342 12.0172C22.1239 11.9775 22.22 11.957 22.317 11.957Z" fill="#5059C9"/>
<path d="M27.9032 10.3617C29.7525 10.3617 31.2517 8.75567 31.2517 6.77458C31.2517 4.79349 29.7525 3.1875 27.9032 3.1875C26.0539 3.1875 24.5547 4.79349 24.5547 6.77458C24.5547 8.75567 26.0539 10.3617 27.9032 10.3617Z" fill="#5059C9"/>
<path d="M17.4851 10.3626C20.1564 10.3626 22.3218 8.04289 22.3218 5.18132C22.3218 2.31976 20.1564 0 17.4851 0C14.8139 0 12.6484 2.31976 12.6484 5.18132C12.6484 8.04289 14.8139 10.3626 17.4851 10.3626Z" fill="#7B83EB"/>
<path d="M23.9383 11.957H10.296C9.52444 11.9775 8.91413 12.6634 8.932 13.49V22.6879C8.82427 27.6477 12.4872 31.7637 17.1171 31.8851C21.7469 31.7637 25.4099 27.6477 25.3023 22.6879V13.49C25.3202 12.6634 24.7099 11.9775 23.9383 11.957Z" fill="#7B83EB"/>
<path opacity="0.1" d="M17.8594 11.957V24.8465C17.8577 25.1356 17.7762 25.4177 17.6253 25.6573C17.4744 25.897 17.2607 26.0836 17.0112 26.1937C16.8487 26.2673 16.6741 26.3052 16.4977 26.3052H9.58487C9.48813 26.0421 9.39889 25.779 9.3244 25.5082C9.06392 24.5935 8.93104 23.6426 8.93007 22.6863V13.4875C8.9122 12.6624 9.5215 11.9775 10.2918 11.9572L17.8594 11.957Z" fill="black"/>
<path opacity="0.2" d="M17.115 11.957V25.6437C17.115 25.8326 17.0797 26.0196 17.0109 26.1937C16.9082 26.461 16.734 26.6899 16.5102 26.8516C16.2865 27.0132 16.0232 27.1005 15.7533 27.1024H9.93458C9.8081 26.8393 9.68899 26.5762 9.58487 26.3052C9.48484 26.0447 9.3979 25.7786 9.3244 25.5082C9.06392 24.5935 8.93104 23.6426 8.93007 22.6863V13.4875C8.9122 12.6624 9.5215 11.9775 10.2918 11.9572L17.115 11.957Z" fill="black"/>
<path opacity="0.2" d="M17.1152 11.957V24.0494C17.1095 24.8525 16.5032 25.5021 15.7534 25.5082H9.3244C9.06392 24.5935 8.93104 23.6426 8.93007 22.6863V13.4875C8.9122 12.6624 9.5215 11.9775 10.2918 11.9572L17.1152 11.957Z" fill="black"/>
<path opacity="0.2" d="M16.3711 11.957V24.0494C16.3654 24.8525 15.7591 25.5021 15.0094 25.5082H9.3244C9.06392 24.5935 8.93104 23.6426 8.93007 22.6863V13.4875C8.9122 12.6624 9.5215 11.9775 10.2918 11.9572L16.3711 11.957Z" fill="black"/>
<path opacity="0.1" d="M17.8639 7.83765V10.3485C17.7374 10.3565 17.6183 10.3646 17.4918 10.3646C17.3653 10.3646 17.2462 10.3565 17.1197 10.3485C16.8686 10.3307 16.6195 10.288 16.3757 10.221C15.6328 10.0326 14.9422 9.65843 14.3602 9.1292C13.7782 8.59998 13.3214 7.9307 13.0272 7.17609C12.9244 6.91904 12.8447 6.65211 12.7891 6.37891H16.5021C17.2529 6.38199 17.861 7.03323 17.8639 7.83765Z" fill="black"/>
<path opacity="0.2" d="M17.1159 8.63439V10.3482C16.8647 10.3303 16.6156 10.2877 16.3718 10.2207C15.629 10.0322 14.9384 9.65809 14.3564 9.12886C13.7744 8.59964 13.3177 7.93037 13.0234 7.17578H15.7541C16.505 7.17873 17.113 7.83011 17.1159 8.63439Z" fill="black"/>
<path opacity="0.2" d="M17.1159 8.63439V10.3482C16.8647 10.3303 16.6156 10.2877 16.3718 10.2207C15.629 10.0322 14.9384 9.65809 14.3564 9.12886C13.7744 8.59964 13.3177 7.93037 13.0234 7.17578H15.7541C16.505 7.17873 17.113 7.83011 17.1159 8.63439Z" fill="black"/>
<path opacity="0.2" d="M16.3719 8.63453V10.2209C15.6291 10.0324 14.9384 9.65822 14.3564 9.12897C13.7744 8.59972 13.3177 7.93041 13.0234 7.17578H15.0102C15.7611 7.17886 16.3691 7.83024 16.3719 8.63453Z" fill="black"/>
<path d="M1.36397 7.17578H15.0062C15.7596 7.17578 16.3703 7.82998 16.3703 8.63695V23.2514C16.3703 24.0584 15.7596 24.7126 15.0063 24.7126H1.36397C0.610682 24.7126 0 24.0584 0 23.2514V8.63708C0 7.82984 0.610682 7.17578 1.36397 7.17578Z" fill="url(#paint0_linear_5163_42168)"/>
<path d="M11.7728 12.7346H9.04562V20.6899H7.30819V12.7346H4.59375V11.1914H11.7728V12.7346Z" fill="white"/>
</g>
<defs>
<linearGradient id="paint0_linear_5163_42168" x1="284.385" y1="-106.989" x2="1466.68" y2="1804.48" gradientUnits="userSpaceOnUse">
<stop stop-color="#5A62C3"/>
<stop offset="0.5" stop-color="#4D55BD"/>
<stop offset="1" stop-color="#3940AB"/>
</linearGradient>
<clipPath id="clip0_5163_42168">
<rect width="32" height="32" fill="white"/>
</clipPath>
</defs>
</svg>
